# Blender 4.0.2
# www.blender.org
mtllib large_cube.mtl
o cube_l
v -0.014000 0.045000 -0.014000
v -0.005317 0.045000 -0.009875
v -0.014000 0.045000 -0.044000
v 0.004426 0.045000 -0.009875
v 0.044000 0.045000 0.014000
v 0.044000 0.045000 -0.014000
v 0.014000 0.045000 -0.014000
v -0.005317 0.045000 0.010125
v -0.014000 0.045000 0.014000
v -0.044000 0.045000 0.014000
v -0.044000 0.045000 -0.014000
v -0.001728 0.045000 -0.006285
v -0.001728 0.045000 -0.002439
v 0.004426 0.045000 -0.006285
v 0.004426 0.045000 -0.002439
v 0.004426 0.045000 0.001151
v 0.014000 0.045000 0.014000
v 0.014000 0.045000 -0.044000
v -0.001728 0.045000 0.001151
v -0.001728 0.045000 0.010125
v 0.014000 0.045000 0.044000
v -0.014000 0.045000 0.044000
v 0.014000 -0.044000 -0.045000
v -0.014000 -0.044000 -0.045000
v -0.014000 -0.014000 -0.045000
v 0.014000 -0.014000 -0.045000
v -0.005317 -0.009875 -0.045000
v 0.044000 0.014000 -0.045000
v 0.044000 -0.014000 -0.045000
v -0.001728 -0.006285 -0.045000
v -0.001728 -0.002439 -0.045000
v 0.005452 -0.006285 -0.045000
v 0.005452 -0.002439 -0.045000
v 0.005452 0.001151 -0.045000
v 0.014000 0.014000 -0.045000
v 0.005452 -0.009875 -0.045000
v -0.001728 0.001151 -0.045000
v -0.001728 0.006535 -0.045000
v 0.005452 0.006535 -0.045000
v 0.005452 0.010125 -0.045000
v 0.014000 0.044000 -0.045000
v -0.005317 0.010125 -0.045000
v -0.044000 -0.014000 -0.045000
v -0.044000 0.014000 -0.045000
v -0.014000 0.014000 -0.045000
v -0.014000 0.044000 -0.045000
v 0.045000 0.003450 -0.009135
v 0.045000 0.002472 -0.009563
v 0.045000 0.014000 -0.044000
v 0.045000 0.014000 0.014000
v 0.045000 0.003153 0.008817
v 0.045000 0.004208 0.008175
v 0.045000 -0.001433 0.009819
v 0.045000 0.000737 0.009565
v 0.045000 0.002084 0.009239
v 0.045000 0.001378 -0.009838
v 0.045000 -0.000870 -0.010070
v 0.045000 -0.014000 -0.044000
v 0.045000 -0.003226 -0.010125
v 0.045000 -0.014000 -0.014000
v 0.045000 -0.007817 -0.010125
v 0.045000 0.006980 -0.005403
v 0.045000 0.006270 -0.006608
v 0.045000 0.014000 -0.014000
v 0.045000 0.005439 -0.007617
v 0.045000 0.004425 -0.008508
v 0.045000 -0.007817 0.009875
v 0.045000 -0.014000 0.014000
v 0.045000 -0.044000 -0.014000
v 0.045000 -0.044000 0.014000
v 0.045000 0.008080 -0.000405
v 0.045000 0.007955 -0.002215
v 0.045000 0.007576 -0.003900
v 0.045000 -0.014000 0.044000
v 0.045000 0.014000 0.044000
v 0.045000 -0.003294 0.009875
v 0.045000 0.044000 -0.014000
v 0.045000 0.044000 0.014000
v 0.045000 0.007539 0.003353
v 0.045000 0.007913 0.001767
v 0.045000 0.005182 0.007332
v 0.045000 0.006011 0.006352
v 0.045000 0.006958 0.004799
v 0.014000 -0.045000 -0.044000
v 0.004942 -0.045000 -0.009881
v 0.003514 -0.045000 -0.010279
v 0.006863 -0.045000 -0.004151
v -0.005727 -0.045000 0.000671
v -0.005753 -0.045000 0.000040
v 0.009551 -0.045000 -0.006695
v 0.044000 -0.045000 -0.014000
v 0.044000 -0.045000 0.014000
v 0.014000 -0.045000 -0.014000
v 0.007778 -0.045000 -0.008262
v 0.006280 -0.045000 -0.009265
v 0.005785 -0.045000 0.005157
v 0.006999 -0.045000 0.004014
v 0.006999 -0.045000 -0.004014
v 0.009631 -0.045000 0.006530
v 0.004672 -0.045000 0.005917
v 0.003612 -0.045000 0.006429
v 0.002433 -0.045000 0.006779
v 0.001110 -0.045000 0.006918
v 0.000958 -0.045000 0.006923
v -0.000233 -0.045000 0.006829
v -0.001212 -0.045000 0.006589
v -0.002100 -0.045000 0.006218
v -0.002963 -0.045000 0.005681
v -0.001671 -0.045000 0.010157
v -0.000012 -0.045000 0.010458
v 0.014000 -0.045000 0.014000
v 0.001098 -0.045000 0.010513
v 0.014000 -0.045000 0.044000
v -0.014000 -0.045000 0.044000
v -0.003163 -0.045000 0.009632
v -0.004720 -0.045000 0.008796
v -0.003758 -0.045000 0.004993
v -0.004098 -0.045000 0.004627
v -0.004730 -0.045000 0.003783
v 0.003321 -0.045000 -0.006572
v -0.005669 -0.045000 -0.001192
v 0.004222 -0.045000 -0.006200
v 0.005257 -0.045000 -0.005552
v 0.002883 -0.045000 0.010370
v 0.004352 -0.045000 0.010020
v 0.005988 -0.045000 0.009370
v 0.008686 -0.045000 0.007522
v 0.007294 -0.045000 0.008622
v -0.006039 -0.045000 0.007798
v -0.014000 -0.045000 0.014000
v -0.006476 -0.045000 0.007387
v -0.005243 -0.045000 0.002783
v -0.005568 -0.045000 0.001757
v -0.005411 -0.045000 -0.002335
v -0.005036 -0.045000 -0.003289
v -0.004472 -0.045000 -0.004230
v -0.008489 -0.045000 -0.004483
v -0.044000 -0.045000 -0.014000
v -0.007735 -0.045000 -0.005929
v -0.014000 -0.045000 -0.014000
v -0.006694 -0.045000 -0.007278
v 0.002043 -0.045000 -0.010478
v 0.001042 -0.045000 -0.010513
v -0.014000 -0.045000 -0.044000
v -0.000812 -0.045000 -0.010382
v -0.002397 -0.045000 -0.010023
v -0.003815 -0.045000 -0.009459
v -0.005197 -0.045000 -0.008622
v -0.006380 -0.045000 -0.007607
v -0.003889 -0.045000 -0.004933
v -0.003131 -0.045000 -0.005593
v 0.002302 -0.045000 -0.006821
v -0.001258 -0.045000 -0.006568
v -0.000213 -0.045000 -0.006825
v 0.001026 -0.045000 -0.006923
v -0.009213 -0.045000 0.001848
v -0.008863 -0.045000 0.003394
v -0.044000 -0.045000 0.014000
v -0.008303 -0.045000 0.004815
v -0.007489 -0.045000 0.006187
v -0.002262 -0.045000 -0.006140
v -0.009003 -0.045000 -0.002936
v -0.009285 -0.045000 -0.001265
v -0.009343 -0.045000 0.000032
v -0.045000 0.044000 0.014000
v -0.045000 0.044000 -0.014000
v -0.045000 0.014000 0.014000
v -0.045000 0.014000 -0.014000
v -0.045000 -0.014000 -0.044000
v -0.045000 -0.003885 -0.009553
v -0.045000 -0.003063 -0.009828
v -0.045000 -0.005742 0.003207
v -0.045000 -0.005503 0.002621
v -0.045000 -0.044000 -0.014000
v -0.045000 -0.014000 0.014000
v -0.045000 -0.004834 0.007790
v -0.045000 -0.005320 0.007112
v -0.045000 -0.006852 -0.002129
v -0.045000 -0.007121 -0.003028
v -0.045000 -0.006560 -0.007070
v -0.045000 -0.014000 -0.014000
v -0.045000 -0.006930 -0.006236
v -0.045000 -0.007154 -0.005391
v -0.045000 0.000061 0.009813
v -0.045000 -0.001618 0.009603
v -0.045000 -0.014000 0.044000
v -0.045000 -0.001966 0.009518
v -0.045000 -0.002861 0.009215
v -0.045000 -0.003637 0.008819
v -0.045000 -0.004291 0.008335
v -0.045000 -0.006053 -0.007848
v -0.045000 -0.005391 -0.008573
v -0.045000 -0.004679 -0.009126
v -0.045000 -0.006519 -0.001450
v -0.045000 -0.001722 -0.010058
v -0.045000 -0.000308 -0.010125
v -0.045000 0.005317 -0.010125
v -0.045000 -0.044000 0.014000
v -0.045000 -0.005965 0.004659
v -0.045000 -0.005906 0.003892
v -0.045000 -0.007236 -0.003927
v -0.045000 -0.007247 -0.004336
v -0.045000 0.002112 0.009875
v -0.045000 0.014000 0.044000
v -0.045000 0.005317 0.009875
v -0.045000 0.014000 -0.044000
v -0.045000 -0.005619 0.006513
v -0.045000 -0.005857 0.005728
v -0.045000 -0.005958 0.004931
v -0.045000 -0.005540 -0.000273
v -0.045000 -0.006095 -0.000847
v -0.045000 -0.005143 0.002039
v -0.045000 -0.004698 0.001511
v -0.045000 -0.004793 0.000294
v -0.045000 -0.003889 0.000804
v 0.014000 0.014000 0.045000
v 0.001670 0.009875 0.045000
v 0.009747 -0.010125 0.045000
v -0.014000 -0.044000 0.045000
v 0.014000 -0.044000 0.045000
v 0.014000 -0.014000 0.045000
v -0.009740 -0.010125 0.045000
v -0.014000 -0.014000 0.045000
v -0.005910 -0.010125 0.045000
v 0.044000 -0.014000 0.045000
v 0.044000 0.014000 0.045000
v -0.014000 0.044000 0.045000
v -0.014000 0.014000 0.045000
v -0.001659 0.009875 0.045000
v 0.005913 -0.010125 0.045000
v 0.004358 -0.006022 0.045000
v -0.004356 -0.006022 0.045000
v 0.014000 0.044000 0.045000
v -0.044000 0.014000 0.045000
v -0.044000 -0.014000 0.045000
v -0.044000 -0.014000 -0.014000
v -0.044000 -0.014000 -0.044000
v -0.044000 -0.044000 -0.014000
v -0.044000 -0.044000 -0.044000
v -0.014000 -0.044000 -0.044000
v -0.014000 -0.014000 -0.044000
v 0.044000 -0.014000 0.014000
v 0.044000 -0.014000 0.044000
v 0.044000 -0.044000 0.014000
v 0.044000 -0.044000 0.044000
v 0.014000 -0.014000 0.044000
v 0.014000 -0.044000 0.044000
v 0.044000 0.044000 0.044000
v 0.044000 0.044000 0.014000
v 0.014000 0.044000 0.044000
v 0.014000 0.044000 0.014000
v -0.044000 -0.014000 0.044000
v -0.044000 -0.014000 0.014000
v -0.044000 -0.044000 0.044000
v -0.044000 -0.044000 0.014000
v 0.044000 0.014000 0.014000
v 0.044000 0.014000 0.044000
v 0.014000 0.044000 -0.044000
v 0.014000 0.044000 -0.014000
v 0.044000 0.044000 -0.044000
v 0.044000 0.044000 -0.014000
v 0.044000 0.014000 -0.044000
v 0.014000 0.014000 -0.044000
v -0.044000 0.044000 -0.014000
v -0.014000 0.044000 -0.014000
v -0.044000 0.044000 -0.044000
v -0.014000 0.044000 -0.044000
v -0.014000 0.014000 -0.044000
v -0.014000 0.044988 -0.044156
v -0.014000 0.044951 -0.044309
v -0.014000 0.044454 -0.044891
v -0.014000 0.044588 -0.044809
v -0.014000 0.044707 -0.044707
v -0.014000 0.044309 -0.044951
v -0.014000 0.044156 -0.044988
v -0.014000 0.044891 -0.044454
v -0.014000 0.044809 -0.044588
v -0.044156 0.044988 -0.014000
v -0.044000 0.014000 -0.014000
v -0.044588 0.044809 -0.014000
v -0.044454 0.044891 -0.014000
v -0.044309 0.044951 -0.014000
v -0.044988 0.044156 -0.014000
v -0.044951 0.044309 -0.014000
v -0.044891 0.044454 -0.014000
v -0.044809 0.044588 -0.014000
v -0.044707 0.044707 -0.014000
v 0.014000 0.014000 0.044000
v 0.014000 0.044988 0.044156
v 0.014000 0.044951 0.044309
v 0.014000 0.044454 0.044891
v 0.014000 0.044588 0.044809
v 0.014000 0.044707 0.044707
v 0.014000 0.044309 0.044951
v 0.014000 0.044156 0.044988
v 0.014000 0.044891 0.044454
v 0.014000 0.044809 0.044588
v 0.044156 0.044988 0.014000
v 0.044588 0.044809 0.014000
v 0.044454 0.044891 0.014000
v 0.044309 0.044951 0.014000
v 0.044988 0.044156 0.014000
v 0.044951 0.044309 0.014000
v 0.044891 0.044454 0.014000
v 0.044809 0.044588 0.014000
v 0.044707 0.044707 0.014000
v -0.044000 0.044000 0.014000
v -0.014000 0.044000 0.014000
v -0.044707 0.044707 0.014000
v -0.044809 0.044588 0.014000
v -0.044891 0.044454 0.014000
v -0.044951 0.044309 0.014000
v -0.044156 0.044988 0.014000
v -0.044309 0.044951 0.014000
v -0.044000 0.014000 0.014000
v -0.044988 0.044156 0.014000
v -0.044454 0.044891 0.014000
v -0.044588 0.044809 0.014000
v -0.014000 0.044000 0.044000
v -0.014000 0.044988 0.044156
v -0.014000 0.014000 0.044000
v -0.014000 0.044809 0.044588
v -0.014000 0.044891 0.044454
v -0.014000 0.044951 0.044309
v -0.014000 0.044156 0.044988
v -0.014000 0.044309 0.044951
v -0.014000 0.044454 0.044891
v -0.014000 0.044588 0.044809
v -0.014000 0.044707 0.044707
v -0.044000 0.044000 0.044000
v 0.044000 0.014000 -0.014000
v 0.044156 0.044988 -0.014000
v 0.044309 0.044951 -0.014000
v 0.044891 0.044454 -0.014000
v 0.044809 0.044588 -0.014000
v 0.044707 0.044707 -0.014000
v 0.044951 0.044309 -0.014000
v 0.044988 0.044156 -0.014000
v 0.044454 0.044891 -0.014000
v 0.044588 0.044809 -0.014000
v 0.014000 0.044988 -0.044156
v 0.014000 0.044809 -0.044588
v 0.014000 0.044891 -0.044454
v 0.014000 0.044951 -0.044309
v 0.014000 0.044156 -0.044988
v 0.014000 0.044309 -0.044951
v 0.014000 0.044454 -0.044891
v 0.014000 0.044588 -0.044809
v 0.014000 0.044707 -0.044707
v -0.044000 0.014000 0.044000
v -0.044156 0.014000 0.044988
v -0.044988 0.014000 0.044156
v -0.044951 0.014000 0.044309
v -0.044707 0.014000 0.044707
v -0.044588 0.014000 0.044809
v -0.044891 0.014000 0.044454
v -0.044809 0.014000 0.044588
v -0.044454 0.014000 0.044891
v -0.044309 0.014000 0.044951
v -0.044000 0.014000 -0.044000
v -0.044988 0.014000 -0.044156
v -0.044707 0.014000 -0.044707
v -0.044809 0.014000 -0.044588
v -0.044156 0.014000 -0.044988
v -0.044309 0.014000 -0.044951
v -0.044891 0.014000 -0.044454
v -0.044951 0.014000 -0.044309
v -0.044454 0.014000 -0.044891
v -0.044588 0.014000 -0.044809
v -0.014000 -0.044000 0.014000
v -0.044000 -0.045000 0.014000
v -0.044156 -0.044988 0.014000
v -0.044988 -0.044156 0.014000
v -0.044951 -0.044309 0.014000
v -0.044891 -0.044454 0.014000
v -0.044588 -0.044809 0.014000
v -0.044454 -0.044891 0.014000
v -0.044309 -0.044951 0.014000
v -0.044809 -0.044588 0.014000
v -0.044707 -0.044707 0.014000
v -0.014000 -0.014000 0.044000
v -0.044988 -0.014000 0.044156
v -0.044707 -0.014000 0.044707
v -0.044809 -0.014000 0.044588
v -0.044156 -0.014000 0.044988
v -0.044309 -0.014000 0.044951
v -0.044891 -0.014000 0.044454
v -0.044951 -0.014000 0.044309
v -0.044454 -0.014000 0.044891
v -0.044588 -0.014000 0.044809
v -0.044156 -0.014000 -0.044988
v -0.044707 -0.014000 -0.044707
v -0.044588 -0.014000 -0.044809
v -0.044988 -0.014000 -0.044156
v -0.044951 -0.014000 -0.044309
v -0.044454 -0.014000 -0.044891
v -0.044309 -0.014000 -0.044951
v -0.044891 -0.014000 -0.044454
v -0.044809 -0.014000 -0.044588
v -0.014000 -0.044000 -0.014000
v -0.044988 -0.044156 -0.014000
v -0.044951 -0.044309 -0.014000
v -0.044000 -0.045000 -0.014000
v -0.044156 -0.044988 -0.014000
v -0.044309 -0.044951 -0.014000
v -0.044707 -0.044707 -0.014000
v -0.044809 -0.044588 -0.014000
v -0.044891 -0.044454 -0.014000
v -0.044454 -0.044891 -0.014000
v -0.044588 -0.044809 -0.014000
v -0.014000 -0.045000 -0.044000
v -0.014000 -0.044988 -0.044156
v -0.014000 -0.044156 -0.044988
v -0.014000 -0.044309 -0.044951
v -0.014000 -0.044454 -0.044891
v -0.014000 -0.044809 -0.044588
v -0.014000 -0.044891 -0.044454
v -0.014000 -0.044951 -0.044309
v -0.014000 -0.044588 -0.044809
v -0.014000 -0.044707 -0.044707
v 0.044156 0.014000 -0.044988
v 0.044707 0.014000 -0.044707
v 0.044588 0.014000 -0.044809
v 0.044988 0.014000 -0.044156
v 0.044951 0.014000 -0.044309
v 0.044454 0.014000 -0.044891
v 0.044309 0.014000 -0.044951
v 0.044891 0.014000 -0.044454
v 0.044809 0.014000 -0.044588
v 0.044000 -0.014000 -0.044000
v 0.014000 -0.014000 -0.044000
v 0.044000 -0.014000 -0.014000
v 0.044988 -0.014000 -0.044156
v 0.044707 -0.014000 -0.044707
v 0.044809 -0.014000 -0.044588
v 0.044156 -0.014000 -0.044988
v 0.044309 -0.014000 -0.044951
v 0.044891 -0.014000 -0.044454
v 0.044951 -0.014000 -0.044309
v 0.044454 -0.014000 -0.044891
v 0.044588 -0.014000 -0.044809
v 0.014000 -0.044000 -0.044000
v 0.014000 -0.044000 -0.014000
v 0.014000 -0.044156 -0.044988
v 0.014000 -0.044309 -0.044951
v 0.014000 -0.045000 -0.044000
v 0.014000 -0.044988 -0.044156
v 0.014000 -0.044951 -0.044309
v 0.014000 -0.044707 -0.044707
v 0.014000 -0.044588 -0.044809
v 0.014000 -0.044454 -0.044891
v 0.014000 -0.044891 -0.044454
v 0.014000 -0.044809 -0.044588
v 0.044000 -0.044000 -0.044000
v 0.044000 -0.044000 -0.014000
v 0.044988 -0.044156 -0.014000
v 0.044809 -0.044588 -0.014000
v 0.044707 -0.044707 -0.014000
v 0.044588 -0.044809 -0.014000
v 0.044454 -0.044891 -0.014000
v 0.044309 -0.044951 -0.014000
v 0.044156 -0.044988 -0.014000
v 0.044951 -0.044309 -0.014000
v 0.044891 -0.044454 -0.014000
v 0.044988 0.014000 0.044156
v 0.044707 0.014000 0.044707
v 0.044809 0.014000 0.044588
v 0.044156 0.014000 0.044988
v 0.044309 0.014000 0.044951
v 0.044891 0.014000 0.044454
v 0.044951 0.014000 0.044309
v 0.044454 0.014000 0.044891
v 0.044588 0.014000 0.044809
v 0.044156 -0.014000 0.044988
v 0.044707 -0.014000 0.044707
v 0.044588 -0.014000 0.044809
v 0.044988 -0.014000 0.044156
v 0.044951 -0.014000 0.044309
v 0.044454 -0.014000 0.044891
v 0.044309 -0.014000 0.044951
v 0.044891 -0.014000 0.044454
v 0.044809 -0.014000 0.044588
v 0.014000 -0.044000 0.014000
v 0.044988 -0.044156 0.014000
v 0.044951 -0.044309 0.014000
v 0.044000 -0.045000 0.014000
v 0.044156 -0.044988 0.014000
v 0.044309 -0.044951 0.014000
v 0.044707 -0.044707 0.014000
v 0.044809 -0.044588 0.014000
v 0.044891 -0.044454 0.014000
v 0.044454 -0.044891 0.014000
v 0.044588 -0.044809 0.014000
v 0.014000 -0.044156 0.044988
v 0.014000 -0.044588 0.044809
v 0.014000 -0.044707 0.044707
v 0.014000 -0.044809 0.044588
v 0.014000 -0.044891 0.044454
v 0.014000 -0.044951 0.044309
v 0.014000 -0.044988 0.044156
v 0.014000 -0.044309 0.044951
v 0.014000 -0.044454 0.044891
v -0.014000 -0.044588 0.044809
v -0.014000 -0.044454 0.044891
v -0.014000 -0.044000 0.044000
v -0.014000 -0.044309 0.044951
v -0.014000 -0.044156 0.044988
v -0.014000 -0.044988 0.044156
v -0.014000 -0.044951 0.044309
v -0.014000 -0.044891 0.044454
v -0.014000 -0.044809 0.044588
v -0.014000 -0.044707 0.044707
v -0.014000 -0.045000 -0.044000
v -0.014000 -0.045000 0.044000
v 0.014000 -0.045000 0.044000
v -0.044000 -0.045000 0.014000
v 0.044000 -0.045000 -0.014000
v -0.009740 -0.010125 0.043000
v -0.001659 0.009875 0.043000
v 0.001670 0.009875 0.043000
v 0.009747 -0.010125 0.043000
v 0.005913 -0.010125 0.043000
v 0.004358 -0.006022 0.043000
v -0.004356 -0.006022 0.043000
v -0.005910 -0.010125 0.043000
v -0.002994 -0.002433 0.043000
v 0.003000 -0.002433 0.043000
v 0.000003 0.004510 0.043000
v 0.003000 -0.002433 0.045000
v 0.000003 0.004510 0.045000
v -0.002994 -0.002433 0.045000
v -0.043000 -0.000308 -0.010125
v -0.043000 0.005317 -0.010125
v -0.043000 0.005317 0.009875
v -0.043000 0.002112 0.009875
v -0.043000 -0.001966 0.009518
v -0.043000 -0.001618 0.009603
v -0.043000 0.000061 0.009813
v -0.043000 -0.005965 0.004659
v -0.043000 -0.005958 0.004931
v -0.043000 -0.005857 0.005728
v -0.043000 -0.005619 0.006513
v -0.043000 -0.005320 0.007112
v -0.043000 -0.004834 0.007790
v -0.043000 -0.004291 0.008335
v -0.043000 -0.003637 0.008819
v -0.043000 -0.002861 0.009215
v -0.043000 -0.003889 0.000804
v -0.043000 -0.004698 0.001511
v -0.043000 -0.005143 0.002039
v -0.043000 -0.005503 0.002621
v -0.043000 -0.005742 0.003207
v -0.043000 -0.005906 0.003892
v -0.043000 -0.007247 -0.004336
v -0.043000 -0.007236 -0.003927
v -0.043000 -0.007121 -0.003028
v -0.043000 -0.006852 -0.002129
v -0.043000 -0.006519 -0.001450
v -0.043000 -0.006095 -0.000847
v -0.043000 -0.005540 -0.000273
v -0.043000 -0.004793 0.000294
v -0.043000 -0.001722 -0.010058
v -0.043000 -0.003063 -0.009828
v -0.043000 -0.003885 -0.009553
v -0.043000 -0.004679 -0.009126
v -0.043000 -0.005391 -0.008573
v -0.043000 -0.006053 -0.007848
v -0.043000 -0.006560 -0.007070
v -0.043000 -0.006930 -0.006236
v -0.043000 -0.007154 -0.005391
v -0.043000 0.001728 -0.001407
v -0.043000 -0.001859 0.002767
v -0.043000 -0.001631 0.002554
v -0.043000 -0.001347 0.002364
v -0.043000 -0.000997 0.002197
v -0.043000 -0.000539 0.002059
v -0.043000 0.000076 0.001957
v -0.043000 0.000282 -0.001419
v -0.043000 -0.001048 -0.001561
v -0.043000 -0.003657 -0.004196
v -0.043000 -0.003646 -0.004466
v -0.043000 -0.003581 -0.004817
v -0.043000 -0.003496 -0.005069
v -0.043000 -0.003339 -0.005366
v -0.043000 -0.003186 -0.005573
v -0.043000 -0.002968 -0.005781
v -0.043000 -0.002686 -0.005988
v -0.043000 -0.002373 -0.006140
v -0.043000 -0.001836 -0.006308
v -0.043000 -0.000824 -0.006469
v -0.043000 0.000694 -0.006535
v -0.043000 0.001728 -0.006535
v -0.043000 -0.002375 0.004178
v -0.043000 -0.002349 0.004528
v -0.043000 -0.002296 0.004779
v -0.043000 -0.002199 0.005031
v -0.043000 -0.002045 0.005297
v -0.043000 -0.002059 0.003024
v -0.043000 -0.002198 0.003278
v -0.043000 -0.002300 0.003568
v -0.043000 -0.002353 0.003863
v -0.043000 0.000870 -0.001407
v -0.043000 -0.001868 0.005515
v -0.043000 -0.001649 0.005711
v -0.043000 -0.001396 0.005877
v -0.043000 -0.000999 0.006058
v -0.043000 -0.000577 0.006176
v -0.043000 0.000286 0.006279
v -0.043000 0.000602 0.006285
v -0.043000 0.001728 0.006285
v -0.043000 0.001728 0.001926
v -0.043000 0.000774 0.001926
v -0.043000 -0.001837 -0.001767
v -0.043000 -0.002309 -0.001970
v -0.043000 -0.002664 -0.002194
v -0.043000 -0.002975 -0.002466
v -0.043000 -0.003239 -0.002779
v -0.043000 -0.003402 -0.003048
v -0.043000 -0.003541 -0.003397
v -0.043000 -0.003629 -0.003774
v -0.045000 0.000602 0.006285
v -0.045000 0.001728 0.006285
v -0.045000 0.000286 0.006279
v -0.045000 -0.000577 0.006176
v -0.045000 -0.000999 0.006058
v -0.045000 -0.001396 0.005877
v -0.045000 -0.001649 0.005711
v -0.045000 -0.001868 0.005515
v -0.045000 -0.002045 0.005297
v -0.045000 -0.002199 0.005031
v -0.045000 -0.002296 0.004779
v -0.045000 -0.002349 0.004528
v -0.045000 -0.002375 0.004178
v -0.045000 -0.002353 0.003863
v -0.045000 -0.002300 0.003568
v -0.045000 -0.002198 0.003278
v -0.045000 -0.002059 0.003024
v -0.045000 -0.001859 0.002767
v -0.045000 -0.001631 0.002554
v -0.045000 -0.001347 0.002364
v -0.045000 -0.000997 0.002197
v -0.045000 -0.000539 0.002059
v -0.045000 0.000076 0.001957
v -0.045000 0.000774 0.001926
v -0.045000 0.001728 0.001926
v -0.045000 0.000870 -0.001407
v -0.045000 0.001728 -0.001407
v -0.045000 0.000282 -0.001419
v -0.045000 -0.001048 -0.001561
v -0.045000 -0.001837 -0.001767
v -0.045000 -0.002309 -0.001970
v -0.045000 -0.002664 -0.002194
v -0.045000 -0.002975 -0.002466
v -0.045000 -0.003239 -0.002779
v -0.045000 -0.003402 -0.003048
v -0.045000 -0.003541 -0.003397
v -0.045000 -0.003629 -0.003774
v -0.045000 -0.003657 -0.004196
v -0.045000 -0.003646 -0.004466
v -0.045000 -0.003581 -0.004817
v -0.045000 -0.003496 -0.005069
v -0.045000 -0.003339 -0.005366
v -0.045000 -0.003186 -0.005573
v -0.045000 -0.002968 -0.005781
v -0.045000 -0.002686 -0.005988
v -0.045000 -0.002373 -0.006140
v -0.045000 -0.001836 -0.006308
v -0.045000 -0.000824 -0.006469
v -0.045000 0.000694 -0.006535
v -0.045000 0.001728 -0.006535
v 0.009631 -0.043000 0.006530
v 0.008686 -0.043000 0.007522
v 0.007294 -0.043000 0.008622
v 0.005988 -0.043000 0.009370
v 0.004352 -0.043000 0.010020
v 0.002883 -0.043000 0.010370
v 0.001098 -0.043000 0.010513
v 0.006999 -0.043000 0.004014
v 0.009631 -0.045000 0.006530
v 0.006999 -0.045000 0.004014
v 0.000958 -0.043000 0.006923
v 0.001110 -0.043000 0.006918
v 0.002433 -0.043000 0.006779
v 0.003612 -0.043000 0.006429
v 0.004672 -0.043000 0.005917
v 0.005785 -0.043000 0.005157
v -0.005753 -0.043000 0.000040
v -0.005727 -0.043000 0.000671
v -0.005568 -0.043000 0.001757
v -0.005243 -0.043000 0.002783
v -0.004730 -0.043000 0.003783
v -0.004098 -0.043000 0.004627
v -0.003758 -0.043000 0.004993
v -0.002963 -0.043000 0.005681
v -0.002100 -0.043000 0.006218
v -0.001212 -0.043000 0.006589
v -0.000233 -0.043000 0.006829
v 0.001026 -0.043000 -0.006923
v -0.000213 -0.043000 -0.006825
v -0.001258 -0.043000 -0.006568
v -0.002262 -0.043000 -0.006140
v -0.003131 -0.043000 -0.005593
v -0.003889 -0.043000 -0.004933
v -0.004472 -0.043000 -0.004230
v -0.005036 -0.043000 -0.003289
v -0.005411 -0.043000 -0.002335
v -0.005669 -0.043000 -0.001192
v 0.006999 -0.043000 -0.004014
v 0.006863 -0.043000 -0.004151
v 0.005257 -0.043000 -0.005552
v 0.004222 -0.043000 -0.006200
v 0.003321 -0.043000 -0.006572
v 0.002302 -0.043000 -0.006821
v 0.009551 -0.043000 -0.006695
v 0.006999 -0.045000 -0.004014
v 0.009551 -0.045000 -0.006695
v 0.001042 -0.043000 -0.010513
v 0.002043 -0.043000 -0.010478
v 0.003514 -0.043000 -0.010279
v 0.004942 -0.043000 -0.009881
v 0.006280 -0.043000 -0.009265
v 0.007778 -0.043000 -0.008262
v -0.009343 -0.043000 0.000032
v -0.009285 -0.043000 -0.001265
v -0.009003 -0.043000 -0.002936
v -0.008489 -0.043000 -0.004483
v -0.007735 -0.043000 -0.005929
v -0.006694 -0.043000 -0.007278
v -0.006380 -0.043000 -0.007607
v -0.005197 -0.043000 -0.008622
v -0.003815 -0.043000 -0.009459
v -0.002397 -0.043000 -0.010023
v -0.000812 -0.043000 -0.010382
v -0.000012 -0.043000 0.010458
v -0.001671 -0.043000 0.010157
v -0.003163 -0.043000 0.009632
v -0.004720 -0.043000 0.008796
v -0.006039 -0.043000 0.007798
v -0.006476 -0.043000 0.007387
v -0.007489 -0.043000 0.006187
v -0.008303 -0.043000 0.004815
v -0.008863 -0.043000 0.003394
v -0.009213 -0.043000 0.001848
v 0.043000 -0.007817 -0.010125
v 0.043000 -0.007817 0.009875
v 0.043000 -0.003294 0.009875
v 0.043000 0.008080 -0.000405
v 0.043000 0.007913 0.001767
v 0.043000 0.007539 0.003353
v 0.043000 0.006958 0.004799
v 0.043000 0.006011 0.006352
v 0.043000 0.005182 0.007332
v 0.043000 0.004208 0.008175
v 0.043000 0.003153 0.008817
v 0.043000 0.002084 0.009239
v 0.043000 0.000737 0.009565
v 0.043000 -0.001433 0.009819
v 0.043000 -0.003226 -0.010125
v 0.043000 -0.000870 -0.010070
v 0.043000 0.001378 -0.009838
v 0.043000 0.002472 -0.009563
v 0.043000 0.003450 -0.009135
v 0.043000 0.004425 -0.008508
v 0.043000 0.005439 -0.007617
v 0.043000 0.006270 -0.006608
v 0.043000 0.006980 -0.005403
v 0.043000 0.007576 -0.003900
v 0.043000 0.007955 -0.002215
v 0.043000 0.001154 0.005611
v 0.043000 0.001952 0.005192
v 0.043000 0.002603 0.004683
v 0.043000 0.003342 0.003826
v 0.043000 0.003792 0.003063
v 0.043000 0.004149 0.002148
v 0.043000 0.004398 0.001036
v 0.043000 0.000259 0.005921
v 0.043000 -0.001223 0.006199
v 0.043000 -0.002857 0.006285
v 0.043000 -0.004228 0.006285
v 0.043000 -0.004228 -0.006535
v 0.043000 -0.002353 -0.006535
v 0.043000 -0.001127 -0.006503
v 0.043000 0.000214 -0.006354
v 0.043000 0.001223 -0.006106
v 0.043000 0.001790 -0.005860
v 0.043000 0.002356 -0.005491
v 0.043000 0.002884 -0.005014
v 0.043000 0.003350 -0.004441
v 0.043000 0.003786 -0.003709
v 0.043000 0.004146 -0.002826
v 0.043000 0.004372 -0.001863
v 0.043000 0.004489 -0.000437
v 0.043000 0.004490 -0.000341
v 0.045000 -0.002857 0.006285
v 0.045000 -0.004228 0.006285
v 0.045000 -0.001223 0.006199
v 0.045000 0.000259 0.005921
v 0.045000 0.001154 0.005611
v 0.045000 0.001952 0.005192
v 0.045000 0.002603 0.004683
v 0.045000 0.003342 0.003826
v 0.045000 0.003792 0.003063
v 0.045000 0.004149 0.002148
v 0.045000 0.004398 0.001036
v 0.045000 0.004490 -0.000341
v 0.045000 0.004489 -0.000437
v 0.045000 0.004372 -0.001863
v 0.045000 0.004146 -0.002826
v 0.045000 0.003786 -0.003709
v 0.045000 0.003350 -0.004441
v 0.045000 0.002884 -0.005014
v 0.045000 0.002356 -0.005491
v 0.045000 0.001790 -0.005860
v 0.045000 0.001223 -0.006106
v 0.045000 0.000214 -0.006354
v 0.045000 -0.001127 -0.006503
v 0.045000 -0.002353 -0.006535
v 0.045000 -0.004228 -0.006535
v -0.005317 0.010125 -0.043000
v -0.005317 -0.009875 -0.043000
v 0.005452 -0.009875 -0.043000
v 0.005452 -0.006285 -0.043000
v -0.001728 -0.006285 -0.043000
v -0.001728 -0.002439 -0.043000
v 0.005452 -0.002439 -0.043000
v 0.005452 0.001151 -0.043000
v -0.001728 0.001151 -0.043000
v -0.001728 0.006535 -0.043000
v 0.005452 0.006535 -0.043000
v 0.005452 0.010125 -0.043000
v -0.005317 0.043000 0.010125
v -0.005317 0.043000 -0.009875
v 0.004426 0.043000 -0.009875
v 0.004426 0.043000 -0.006285
v -0.001728 0.043000 -0.006285
v -0.001728 0.043000 -0.002439
v 0.004426 0.043000 -0.002439
v 0.004426 0.043000 0.001151
v -0.001728 0.043000 0.001151
v -0.001728 0.043000 0.010125
vn -0.0000 1.0000 -0.0000
vn -0.0000 -0.0000 -1.0000
vn 1.0000 -0.0000 -0.0000
vn -0.0000 -1.0000 -0.0000
vn -1.0000 -0.0000 -0.0000
vn -0.0000 -0.0000 1.0000
vn -0.0000 -0.0785 -0.9969
vn -0.0000 -0.2335 -0.9724
vn -0.0000 -0.3827 -0.9239
vn -0.0000 -0.5225 -0.8526
vn -0.0000 -0.6494 -0.7604
vn -0.0000 -0.7604 -0.6494
vn -0.0000 -0.8526 -0.5225
vn -0.0000 -0.9239 -0.3827
vn -0.0000 -0.9724 -0.2334
vn -0.0000 -0.9969 -0.0785
vn -0.0000 -0.0784 0.9969
vn -0.0000 -0.2335 0.9724
vn -0.0000 -0.3827 0.9239
vn -0.0000 -0.5225 0.8526
vn -0.0000 -0.6494 0.7604
vn -0.0000 -0.7604 0.6494
vn -0.0000 -0.8526 0.5225
vn -0.0000 -0.9239 0.3827
vn -0.0000 -0.9724 0.2334
vn -0.0000 -0.9969 0.0785
vn -0.9969 -0.0785 -0.0000
vn -0.9724 -0.2335 -0.0000
vn -0.9239 -0.3827 -0.0000
vn -0.8526 -0.5225 -0.0000
vn -0.7604 -0.6494 -0.0000
vn -0.6494 -0.7604 -0.0000
vn -0.5225 -0.8526 -0.0000
vn -0.3827 -0.9239 -0.0000
vn -0.2334 -0.9724 -0.0000
vn -0.0785 -0.9969 -0.0000
vn -0.0785 -0.0000 -0.9969
vn -0.2335 -0.0000 -0.9724
vn -0.3827 -0.0000 -0.9239
vn -0.5225 -0.0000 -0.8526
vn -0.6494 -0.0000 -0.7604
vn -0.7604 -0.0000 -0.6494
vn -0.8526 -0.0000 -0.5225
vn -0.9239 -0.0000 -0.3827
vn -0.9724 -0.0000 -0.2335
vn -0.9969 -0.0000 -0.0785
vn -0.9969 -0.0000 0.0785
vn -0.9724 -0.0000 0.2335
vn -0.9239 -0.0000 0.3826
vn -0.9239 -0.0000 0.3827
vn -0.8526 -0.0000 0.5225
vn -0.7604 -0.0000 0.6494
vn -0.6494 -0.0000 0.7604
vn -0.5225 -0.0000 0.8526
vn -0.5224 -0.0000 0.8527
vn -0.3827 -0.0000 0.9239
vn -0.2336 -0.0000 0.9723
vn -0.2334 -0.0000 0.9724
vn -0.0784 -0.0000 0.9969
vn -0.0000 0.0785 -0.9969
vn -0.0000 0.2335 -0.9724
vn -0.0000 0.3827 -0.9239
vn -0.0000 0.5225 -0.8527
vn -0.0000 0.5225 -0.8526
vn -0.0000 0.6494 -0.7604
vn -0.0000 0.7604 -0.6494
vn -0.0000 0.7605 -0.6494
vn -0.0000 0.8526 -0.5225
vn -0.0000 0.9239 -0.3826
vn -0.0000 0.9239 -0.3827
vn -0.0000 0.9724 -0.2334
vn -0.0000 0.9723 -0.2336
vn -0.0000 0.9969 -0.0785
vn -0.0000 0.9969 -0.0784
vn -0.9969 0.0785 -0.0000
vn -0.9724 0.2335 -0.0000
vn -0.9239 0.3827 -0.0000
vn -0.8526 0.5225 -0.0000
vn -0.7604 0.6494 -0.0000
vn -0.6494 0.7604 -0.0000
vn -0.5225 0.8526 -0.0000
vn -0.3827 0.9239 -0.0000
vn -0.2335 0.9724 -0.0000
vn -0.0785 0.9969 -0.0000
vn -0.0000 0.0784 0.9969
vn -0.0000 0.2335 0.9724
vn -0.0000 0.3827 0.9239
vn -0.0000 0.5224 0.8527
vn -0.0000 0.5225 0.8526
vn -0.0000 0.6494 0.7604
vn -0.0000 0.7604 0.6494
vn -0.0000 0.7605 0.6494
vn -0.0000 0.8526 0.5225
vn -0.0000 0.9239 0.3826
vn -0.0000 0.9239 0.3827
vn -0.0000 0.9724 0.2334
vn -0.0000 0.9723 0.2336
vn -0.0000 0.9969 0.0785
vn -0.0000 0.9969 0.0784
vn 0.9969 -0.0000 -0.0784
vn 0.9724 -0.0000 -0.2335
vn 0.9239 -0.0000 -0.3827
vn 0.8526 -0.0000 -0.5225
vn 0.7604 -0.0000 -0.6494
vn 0.6494 -0.0000 -0.7604
vn 0.5225 -0.0000 -0.8526
vn 0.3827 -0.0000 -0.9239
vn 0.2335 -0.0000 -0.9724
vn 0.0785 -0.0000 -0.9969
vn 0.9969 0.0784 -0.0000
vn 0.9724 0.2335 -0.0000
vn 0.9239 0.3827 -0.0000
vn 0.8526 0.5225 -0.0000
vn 0.8527 0.5224 -0.0000
vn 0.7604 0.6494 -0.0000
vn 0.6494 0.7604 -0.0000
vn 0.5226 0.8526 -0.0000
vn 0.5225 0.8526 -0.0000
vn 0.3827 0.9239 -0.0000
vn 0.3826 0.9239 -0.0000
vn 0.2335 0.9724 -0.0000
vn 0.0785 0.9969 -0.0000
vn 0.0784 -0.0000 0.9969
vn 0.2334 -0.0000 0.9724
vn 0.2336 -0.0000 0.9723
vn 0.3827 -0.0000 0.9239
vn 0.5225 -0.0000 0.8527
vn 0.5225 -0.0000 0.8526
vn 0.6494 -0.0000 0.7604
vn 0.7604 -0.0000 0.6494
vn 0.8526 -0.0000 0.5225
vn 0.9239 -0.0000 0.3827
vn 0.9724 -0.0000 0.2335
vn 0.9969 -0.0000 0.0784
vn 0.9969 -0.0784 -0.0000
vn 0.9724 -0.2335 -0.0000
vn 0.9239 -0.3827 -0.0000
vn 0.8526 -0.5225 -0.0000
vn 0.8527 -0.5224 -0.0000
vn 0.7604 -0.6495 -0.0000
vn 0.6494 -0.7604 -0.0000
vn 0.5225 -0.8526 -0.0000
vn 0.3827 -0.9239 -0.0000
vn 0.2334 -0.9724 -0.0000
vn 0.2335 -0.9724 -0.0000
vn 0.0785 -0.9969 -0.0000
vn 0.9272 -0.3746 -0.0000
vn -0.9272 -0.3745 -0.0000
vn 0.9351 0.3543 -0.0000
vn -0.9351 0.3543 -0.0000
vn 0.9181 0.3963 -0.0000
vn -0.9181 0.3963 -0.0000
vn -0.0000 0.2369 -0.9715
vn -0.0000 0.1238 -0.9923
vn -0.0000 0.0302 -0.9995
vn -0.0000 0.9997 -0.0251
vn -0.0000 0.9997 -0.0250
vn -0.0000 0.9921 -0.1254
vn -0.0000 0.9921 -0.1253
vn -0.0000 0.9568 -0.2906
vn -0.0000 0.8946 -0.4468
vn -0.0000 0.8131 -0.5821
vn -0.0000 0.7085 -0.7057
vn -0.0000 0.5944 -0.8042
vn -0.0000 0.4551 -0.8905
vn -0.0000 0.3209 -0.9471
vn -0.0000 0.6581 0.7530
vn -0.0000 0.7645 0.6446
vn -0.0000 0.8501 0.5267
vn -0.0000 0.9265 0.3763
vn -0.0000 0.9724 0.2332
vn -0.0000 0.9971 0.0767
vn -0.0000 0.9996 -0.0266
vn -0.0000 0.9919 -0.1267
vn -0.0000 0.9579 -0.2872
vn -0.0000 0.9579 -0.2873
vn -0.0000 0.8982 -0.4396
vn -0.0000 0.8180 -0.5752
vn -0.0000 0.7187 -0.6953
vn -0.0000 0.6044 -0.7966
vn -0.0000 0.4922 -0.8705
vn -0.0000 0.0473 0.9989
vn -0.0000 0.1689 0.9856
vn -0.0000 0.3171 0.9484
vn -0.0000 0.3172 0.9484
vn -0.0000 0.4741 0.8805
vn -0.0000 0.6134 0.7898
vn -0.0000 0.7382 0.6746
vn -0.0000 0.8379 0.5459
vn -0.0000 0.9141 0.4056
vn -0.0000 0.9667 0.2559
vn -0.0000 0.9962 0.0875
vn -0.0000 -0.0187 0.9998
vn -0.0000 -0.1192 0.9929
vn -0.0000 -0.2678 0.9635
vn -0.0000 -0.4151 0.9098
vn -0.0000 -0.5493 0.8357
vn -0.0000 -0.6670 0.7450
vn -0.0000 -0.7751 0.6318
vn -0.0000 -0.8667 0.4988
vn -0.0000 -0.8668 0.4987
vn -0.0000 -0.9329 0.3601
vn -0.0000 -0.9781 0.2083
vn -0.0000 -0.9973 0.0734
vn -0.0000 -0.9975 -0.0701
vn -0.0000 -0.9846 -0.1746
vn -0.0000 -0.9431 -0.3325
vn -0.0000 -0.8760 -0.4823
vn -0.0000 -0.7894 -0.6139
vn -0.0000 -0.6835 -0.7299
vn -0.0000 -0.5567 -0.8307
vn -0.0000 -0.4312 -0.9022
vn -0.0000 -0.4313 -0.9022
vn -0.0000 -0.2884 -0.9575
vn -0.0000 -0.1632 -0.9866
vn -0.0000 -0.0438 -0.9990
vn -0.0000 -0.0207 0.9998
vn -0.0000 -0.1056 0.9944
vn -0.0000 -0.2530 0.9675
vn -0.0000 -0.3961 0.9182
vn -0.0000 -0.5340 0.8455
vn -0.0000 -0.6572 0.7537
vn -0.0000 -0.7654 0.6436
vn -0.0000 -0.8546 0.5192
vn -0.0000 -0.9288 0.3706
vn -0.0000 -0.9288 0.3705
vn -0.0000 -0.9741 0.2260
vn -0.0000 -0.9977 0.0672
vn -0.0000 -0.9991 -0.0422
vn -0.0000 -0.9991 -0.0421
vn -0.0000 -0.9835 -0.1810
vn -0.0000 -0.9477 -0.3192
vn -0.0000 -0.8844 -0.4667
vn -0.0000 -0.8034 -0.5954
vn -0.0000 -0.6912 -0.7227
vn -0.0000 -0.5905 -0.8071
vn -0.0000 -0.4369 -0.8995
vn -0.0000 -0.2997 -0.9540
vn -0.0000 -0.2998 -0.9540
vn -0.0000 -0.1572 -0.9876
vn -0.0000 -0.0433 -0.9991
vn -0.7237 -0.0000 -0.6901
vn -0.6199 -0.0000 -0.7846
vn -0.4970 -0.0000 -0.8677
vn -0.3694 -0.0000 -0.9293
vn -0.2314 -0.0000 -0.9728
vn -0.0800 -0.0000 -0.9968
vn -0.6910 -0.0000 0.7229
vn 0.0300 -0.0000 0.9995
vn 0.0301 -0.0000 0.9995
vn 0.1051 -0.0000 0.9945
vn 0.2839 -0.0000 0.9588
vn 0.4351 -0.0000 0.9004
vn 0.5639 -0.0000 0.8258
vn 0.6854 -0.0000 0.7281
vn -0.9991 -0.0000 0.0412
vn -0.9894 -0.0000 0.1452
vn -0.9534 -0.0000 0.3017
vn -0.8896 -0.0000 0.4567
vn -0.8009 -0.0000 0.5988
vn -0.7318 -0.0000 0.6815
vn -0.6544 -0.0000 0.7561
vn -0.5282 -0.0000 0.8491
vn -0.3859 -0.0000 0.9226
vn -0.2385 -0.0000 0.9712
vn -0.0788 -0.0000 -0.9969
vn -0.2389 -0.0000 -0.9711
vn -0.3924 -0.0000 -0.9198
vn -0.5329 -0.0000 -0.8462
vn -0.6567 -0.0000 -0.7542
vn -0.7695 -0.0000 -0.6386
vn -0.8578 -0.0000 -0.5140
vn -0.9307 -0.0000 -0.3658
vn -0.9754 -0.0000 -0.2206
vn -0.9977 -0.0000 -0.0679
vn 0.7081 -0.0000 -0.7061
vn 0.6576 -0.0000 -0.7534
vn 0.5302 -0.0000 -0.8479
vn 0.3816 -0.0000 -0.9243
vn 0.2378 -0.0000 -0.9713
vn 0.0794 -0.0000 -0.9968
vn -0.7242 -0.0000 -0.6896
vn -0.0350 -0.0000 0.9994
vn -0.1341 -0.0000 0.9910
vn -0.2683 -0.0000 0.9633
vn -0.4182 -0.0000 0.9084
vn -0.5564 -0.0000 0.8309
vn -0.6622 -0.0000 0.7493
vn 0.9990 -0.0000 0.0448
vn 0.9861 -0.0000 0.1662
vn 0.9489 -0.0000 0.3155
vn 0.8865 -0.0000 0.4627
vn 0.7919 -0.0000 0.6107
vn 0.7235 -0.0000 0.6903
vn 0.6512 -0.0000 0.7589
vn 0.5177 -0.0000 0.8555
vn 0.3701 -0.0000 0.9290
vn 0.2206 -0.0000 0.9754
vn 0.0706 -0.0000 0.9975
vn 0.0495 -0.0000 -0.9988
vn 0.1784 -0.0000 -0.9840
vn 0.3317 -0.0000 -0.9434
vn 0.4732 -0.0000 -0.8810
vn 0.6032 -0.0000 -0.7976
vn 0.6859 -0.0000 -0.7277
vn 0.7641 -0.0000 -0.6451
vn 0.8601 -0.0000 -0.5101
vn 0.9302 -0.0000 -0.3670
vn 0.9754 -0.0000 -0.2205
vn 0.9974 -0.0000 -0.0715
vn -0.0000 -0.9971 -0.0765
vn -0.0000 -0.9733 -0.2296
vn -0.0000 -0.9278 -0.3731
vn -0.0000 -0.8538 -0.5206
vn -0.0000 -0.7634 -0.6459
vn -0.0000 -0.6547 -0.7559
vn -0.0000 -0.5195 -0.8545
vn -0.0000 -0.3676 -0.9300
vn -0.0000 -0.2350 -0.9720
vn -0.0000 -0.1164 -0.9932
vn -0.0000 -0.0299 -0.9996
vn -0.0000 -0.0235 0.9997
vn -0.0000 -0.1026 0.9947
vn -0.0000 -0.2439 0.9698
vn -0.0000 -0.4007 0.9162
vn -0.0000 -0.5409 0.8411
vn -0.0000 -0.6603 0.7510
vn -0.0000 -0.7717 0.6360
vn -0.0000 -0.8614 0.5078
vn -0.0000 -0.9297 0.3683
vn -0.0000 -0.9756 0.2194
vn -0.0000 -0.9976 0.0691
vn -0.0000 0.0527 0.9986
vn -0.0000 0.1842 0.9829
vn -0.0000 0.3275 0.9448
vn -0.0000 0.4650 0.8853
vn -0.0000 0.6157 0.7879
vn -0.0000 0.6157 0.7880
vn -0.0000 0.7576 0.6527
vn -0.0000 0.8614 0.5079
vn -0.0000 0.9314 0.3641
vn -0.0000 0.9760 0.2179
vn -0.0000 0.9977 0.0673
vn -0.0000 0.9999 -0.0143
vn -0.0000 0.9999 -0.0144
vn -0.0000 0.9966 -0.0819
vn -0.0000 0.9736 -0.2283
vn -0.0000 0.9736 -0.2282
vn -0.0000 0.9259 -0.3778
vn -0.0000 0.8591 -0.5118
vn -0.0000 0.7760 -0.6307
vn -0.0000 0.6707 -0.7417
vn -0.0000 0.5452 -0.8383
vn -0.0000 0.3990 -0.9169
vn -0.0000 0.3990 -0.9170
vn -0.0000 0.2383 -0.9712
vn -0.0000 0.1106 -0.9939
vn -0.0000 0.0263 -0.9997
vn 1.0000 0.0001 -0.0000
s 0
f 1//1 2//1 3//1
f 3//1 2//1 4//1
f 5//1 6//1 7//1
f 8//1 2//1 9//1
f 9//1 2//1 1//1
f 9//1 1//1 10//1
f 10//1 1//1 11//1
f 12//1 13//1 14//1
f 14//1 13//1 15//1
f 16//1 17//1 15//1
f 15//1 17//1 5//1
f 15//1 5//1 14//1
f 14//1 5//1 7//1
f 14//1 7//1 4//1
f 4//1 7//1 18//1
f 4//1 18//1 3//1
f 16//1 19//1 17//1
f 17//1 19//1 20//1
f 17//1 20//1 21//1
f 21//1 20//1 8//1
f 21//1 8//1 22//1
f 22//1 8//1 9//1
f 23//2 24//2 25//2
f 26//2 23//2 27//2
f 28//2 29//2 26//2
f 30//2 31//2 32//2
f 32//2 31//2 33//2
f 34//2 35//2 33//2
f 33//2 35//2 28//2
f 33//2 28//2 32//2
f 32//2 28//2 26//2
f 32//2 26//2 36//2
f 36//2 26//2 27//2
f 37//2 38//2 34//2
f 34//2 38//2 39//2
f 34//2 39//2 35//2
f 35//2 39//2 40//2
f 35//2 40//2 41//2
f 41//2 40//2 42//2
f 43//2 44//2 25//2
f 25//2 44//2 45//2
f 23//2 25//2 27//2
f 27//2 25//2 45//2
f 27//2 45//2 42//2
f 42//2 45//2 46//2
f 42//2 46//2 41//2
f 47//3 48//3 49//3
f 50//3 51//3 52//3
f 53//3 54//3 50//3
f 50//3 54//3 55//3
f 50//3 55//3 51//3
f 48//3 56//3 49//3
f 49//3 56//3 57//3
f 49//3 57//3 58//3
f 58//3 57//3 59//3
f 58//3 59//3 60//3
f 60//3 59//3 61//3
f 62//3 63//3 64//3
f 64//3 63//3 65//3
f 64//3 65//3 49//3
f 49//3 65//3 66//3
f 49//3 66//3 47//3
f 61//3 67//3 60//3
f 60//3 67//3 68//3
f 60//3 68//3 69//3
f 69//3 68//3 70//3
f 71//3 72//3 64//3
f 64//3 72//3 73//3
f 64//3 73//3 62//3
f 74//3 68//3 75//3
f 75//3 68//3 67//3
f 75//3 67//3 50//3
f 50//3 67//3 76//3
f 50//3 76//3 53//3
f 77//3 78//3 79//3
f 77//3 79//3 64//3
f 64//3 79//3 80//3
f 64//3 80//3 71//3
f 52//3 81//3 50//3
f 50//3 81//3 82//3
f 50//3 82//3 78//3
f 78//3 82//3 83//3
f 78//3 83//3 79//3
f 84//4 85//4 86//4
f 87//4 88//4 89//4
f 90//4 91//4 92//4
f 91//4 90//4 93//4
f 93//4 90//4 94//4
f 93//4 94//4 84//4
f 84//4 94//4 95//4
f 84//4 95//4 85//4
f 96//4 87//4 97//4
f 97//4 87//4 98//4
f 97//4 98//4 99//4
f 96//4 100//4 87//4
f 87//4 100//4 101//4
f 87//4 101//4 102//4
f 102//4 103//4 87//4
f 87//4 103//4 104//4
f 87//4 104//4 105//4
f 105//4 106//4 87//4
f 87//4 106//4 107//4
f 87//4 107//4 108//4
f 109//4 110//4 111//4
f 111//4 110//4 112//4
f 111//4 113//4 109//4
f 109//4 113//4 114//4
f 109//4 114//4 115//4
f 115//4 114//4 116//4
f 108//4 117//4 87//4
f 87//4 117//4 118//4
f 87//4 118//4 119//4
f 120//4 89//4 121//4
f 120//4 122//4 89//4
f 89//4 122//4 123//4
f 89//4 123//4 87//4
f 112//4 124//4 111//4
f 111//4 124//4 125//4
f 111//4 125//4 126//4
f 98//4 90//4 99//4
f 99//4 90//4 92//4
f 99//4 92//4 127//4
f 127//4 92//4 111//4
f 127//4 111//4 128//4
f 128//4 111//4 126//4
f 116//4 114//4 129//4
f 129//4 114//4 130//4
f 129//4 130//4 131//4
f 119//4 132//4 87//4
f 87//4 132//4 133//4
f 87//4 133//4 88//4
f 121//4 134//4 120//4
f 120//4 134//4 135//4
f 120//4 135//4 136//4
f 137//4 138//4 139//4
f 139//4 138//4 140//4
f 139//4 140//4 141//4
f 86//4 142//4 84//4
f 84//4 142//4 143//4
f 84//4 143//4 144//4
f 144//4 143//4 145//4
f 144//4 145//4 146//4
f 146//4 147//4 144//4
f 144//4 147//4 148//4
f 144//4 148//4 140//4
f 140//4 148//4 149//4
f 140//4 149//4 141//4
f 136//4 150//4 120//4
f 120//4 150//4 151//4
f 120//4 151//4 152//4
f 153//4 154//4 155//4
f 156//4 157//4 158//4
f 158//4 157//4 159//4
f 158//4 159//4 130//4
f 130//4 159//4 160//4
f 130//4 160//4 131//4
f 152//4 151//4 155//4
f 155//4 151//4 161//4
f 155//4 161//4 153//4
f 137//4 162//4 138//4
f 138//4 162//4 163//4
f 138//4 163//4 158//4
f 158//4 163//4 164//4
f 158//4 164//4 156//4
f 165//5 166//5 167//5
f 167//5 166//5 168//5
f 169//5 170//5 171//5
f 172//5 173//5 174//5
f 175//5 176//5 177//5
f 178//5 179//5 174//5
f 180//5 181//5 182//5
f 182//5 181//5 174//5
f 182//5 174//5 183//5
f 184//5 185//5 186//5
f 186//5 185//5 187//5
f 187//5 188//5 186//5
f 186//5 188//5 189//5
f 186//5 189//5 175//5
f 175//5 189//5 190//5
f 175//5 190//5 176//5
f 180//5 191//5 181//5
f 181//5 191//5 192//5
f 181//5 192//5 169//5
f 169//5 192//5 193//5
f 169//5 193//5 170//5
f 178//5 174//5 194//5
f 171//5 195//5 169//5
f 169//5 195//5 196//5
f 169//5 196//5 197//5
f 198//5 199//5 174//5
f 174//5 199//5 200//5
f 174//5 200//5 172//5
f 179//5 201//5 174//5
f 174//5 201//5 202//5
f 174//5 202//5 183//5
f 184//5 186//5 203//5
f 203//5 186//5 204//5
f 203//5 204//5 205//5
f 204//5 167//5 205//5
f 205//5 167//5 168//5
f 205//5 168//5 197//5
f 197//5 168//5 206//5
f 197//5 206//5 169//5
f 177//5 207//5 175//5
f 175//5 207//5 208//5
f 175//5 208//5 198//5
f 198//5 208//5 209//5
f 198//5 209//5 199//5
f 173//5 210//5 174//5
f 174//5 210//5 211//5
f 174//5 211//5 194//5
f 173//5 212//5 210//5
f 210//5 212//5 213//5
f 210//5 213//5 214//5
f 214//5 213//5 215//5
f 216//6 217//6 218//6
f 219//6 220//6 221//6
f 222//6 223//6 224//6
f 224//6 223//6 219//6
f 221//6 225//6 226//6
f 227//6 228//6 229//6
f 226//6 216//6 221//6
f 221//6 216//6 218//6
f 221//6 218//6 219//6
f 219//6 218//6 230//6
f 219//6 230//6 224//6
f 224//6 230//6 231//6
f 224//6 231//6 232//6
f 217//6 216//6 229//6
f 229//6 216//6 233//6
f 229//6 233//6 227//6
f 234//6 235//6 228//6
f 228//6 235//6 223//6
f 228//6 223//6 229//6
f 229//6 223//6 222//6
f 236//5 237//5 238//5
f 238//5 237//5 239//5
f 239//2 237//2 240//2
f 240//2 237//2 241//2
f 242//3 243//3 244//3
f 244//3 243//3 245//3
f 243//6 246//6 245//6
f 245//6 246//6 247//6
f 248//1 249//1 250//1
f 250//1 249//1 251//1
f 252//5 253//5 254//5
f 254//5 253//5 255//5
f 256//3 249//3 257//3
f 257//3 249//3 248//3
f 258//1 259//1 260//1
f 260//1 259//1 261//1
f 262//2 263//2 260//2
f 260//2 263//2 258//2
f 264//1 265//1 266//1
f 266//1 265//1 267//1
f 267//5 265//5 1//5
f 45//5 268//5 46//5
f 46//5 268//5 267//5
f 1//5 3//5 267//5
f 267//5 3//5 269//5
f 267//5 269//5 270//5
f 271//5 267//5 272//5
f 272//5 267//5 273//5
f 271//5 274//5 267//5
f 267//5 274//5 275//5
f 267//5 275//5 46//5
f 270//5 276//5 267//5
f 267//5 276//5 277//5
f 267//5 277//5 273//5
f 1//2 265//2 11//2
f 11//2 265//2 264//2
f 11//2 264//2 278//2
f 279//2 168//2 264//2
f 264//2 168//2 166//2
f 280//2 281//2 264//2
f 264//2 281//2 282//2
f 264//2 282//2 278//2
f 166//2 283//2 264//2
f 264//2 283//2 284//2
f 264//2 284//2 285//2
f 285//2 286//2 264//2
f 264//2 286//2 287//2
f 264//2 287//2 280//2
f 250//3 251//3 17//3
f 216//3 288//3 233//3
f 233//3 288//3 250//3
f 17//3 21//3 250//3
f 250//3 21//3 289//3
f 250//3 289//3 290//3
f 291//3 250//3 292//3
f 292//3 250//3 293//3
f 291//3 294//3 250//3
f 250//3 294//3 295//3
f 250//3 295//3 233//3
f 290//3 296//3 250//3
f 250//3 296//3 297//3
f 250//3 297//3 293//3
f 17//6 251//6 5//6
f 5//6 251//6 249//6
f 5//6 249//6 298//6
f 256//6 50//6 249//6
f 249//6 50//6 78//6
f 299//6 300//6 249//6
f 249//6 300//6 301//6
f 249//6 301//6 298//6
f 78//6 302//6 249//6
f 249//6 302//6 303//6
f 249//6 303//6 304//6
f 304//6 305//6 249//6
f 249//6 305//6 306//6
f 249//6 306//6 299//6
f 307//6 308//6 9//6
f 309//6 310//6 307//6
f 307//6 310//6 311//6
f 307//6 311//6 312//6
f 9//6 10//6 307//6
f 307//6 10//6 313//6
f 307//6 313//6 314//6
f 167//6 315//6 165//6
f 165//6 315//6 307//6
f 165//6 307//6 316//6
f 316//6 307//6 312//6
f 314//6 317//6 307//6
f 307//6 317//6 318//6
f 307//6 318//6 309//6
f 9//5 308//5 22//5
f 22//5 308//5 319//5
f 22//5 319//5 320//5
f 321//5 228//5 319//5
f 319//5 228//5 227//5
f 322//5 323//5 319//5
f 319//5 323//5 324//5
f 319//5 324//5 320//5
f 227//5 325//5 319//5
f 319//5 325//5 326//5
f 319//5 326//5 327//5
f 327//5 328//5 319//5
f 319//5 328//5 329//5
f 319//5 329//5 322//5
f 319//1 308//1 330//1
f 330//1 308//1 307//1
f 261//2 259//2 7//2
f 64//2 331//2 77//2
f 77//2 331//2 261//2
f 7//2 6//2 261//2
f 261//2 6//2 332//2
f 261//2 332//2 333//2
f 334//2 261//2 335//2
f 335//2 261//2 336//2
f 334//2 337//2 261//2
f 261//2 337//2 338//2
f 261//2 338//2 77//2
f 333//2 339//2 261//2
f 261//2 339//2 340//2
f 261//2 340//2 336//2
f 7//3 259//3 18//3
f 18//3 259//3 258//3
f 18//3 258//3 341//3
f 263//3 35//3 258//3
f 258//3 35//3 41//3
f 342//3 343//3 258//3
f 258//3 343//3 344//3
f 258//3 344//3 341//3
f 41//3 345//3 258//3
f 258//3 345//3 346//3
f 258//3 346//3 347//3
f 347//3 348//3 258//3
f 258//3 348//3 349//3
f 258//3 349//3 342//3
f 330//5 307//5 350//5
f 350//5 307//5 315//5
f 350//1 315//1 167//1
f 228//1 321//1 234//1
f 234//1 321//1 350//1
f 234//1 350//1 351//1
f 167//1 204//1 350//1
f 350//1 204//1 352//1
f 350//1 352//1 353//1
f 350//1 354//1 355//1
f 353//1 356//1 350//1
f 350//1 356//1 357//1
f 350//1 357//1 354//1
f 355//1 358//1 350//1
f 350//1 358//1 359//1
f 350//1 359//1 351//1
f 360//1 268//1 45//1
f 168//1 279//1 206//1
f 206//1 279//1 360//1
f 206//1 360//1 361//1
f 360//1 362//1 363//1
f 45//1 44//1 360//1
f 360//1 44//1 364//1
f 360//1 364//1 365//1
f 363//1 366//1 360//1
f 360//1 366//1 367//1
f 360//1 367//1 361//1
f 365//1 368//1 360//1
f 360//1 368//1 369//1
f 360//1 369//1 362//1
f 279//5 264//5 360//5
f 360//5 264//5 266//5
f 130//6 370//6 371//6
f 371//6 370//6 255//6
f 371//6 255//6 372//6
f 253//6 175//6 255//6
f 255//6 175//6 198//6
f 198//6 373//6 255//6
f 255//6 373//6 374//6
f 255//6 374//6 375//6
f 376//6 377//6 255//6
f 255//6 377//6 378//6
f 255//6 378//6 372//6
f 375//6 379//6 255//6
f 255//6 379//6 380//6
f 255//6 380//6 376//6
f 252//4 381//4 223//4
f 175//4 253//4 186//4
f 186//4 253//4 252//4
f 186//4 252//4 382//4
f 252//4 383//4 384//4
f 223//4 235//4 252//4
f 252//4 235//4 385//4
f 252//4 385//4 386//4
f 384//4 387//4 252//4
f 252//4 387//4 388//4
f 252//4 388//4 382//4
f 386//4 389//4 252//4
f 252//4 389//4 390//4
f 252//4 390//4 383//4
f 237//4 236//4 181//4
f 25//4 241//4 43//4
f 43//4 241//4 237//4
f 43//4 237//4 391//4
f 237//4 392//4 393//4
f 181//4 169//4 237//4
f 237//4 169//4 394//4
f 237//4 394//4 395//4
f 393//4 396//4 237//4
f 237//4 396//4 397//4
f 237//4 397//4 391//4
f 395//4 398//4 237//4
f 237//4 398//4 399//4
f 237//4 399//4 392//4
f 238//2 400//2 140//2
f 181//2 236//2 174//2
f 174//2 236//2 238//2
f 174//2 238//2 401//2
f 401//2 238//2 402//2
f 140//2 403//2 238//2
f 238//2 403//2 404//2
f 238//2 404//2 405//2
f 406//2 407//2 238//2
f 238//2 407//2 408//2
f 238//2 408//2 402//2
f 405//2 409//2 238//2
f 238//2 409//2 410//2
f 238//2 410//2 406//2
f 140//5 400//5 411//5
f 411//5 400//5 240//5
f 411//5 240//5 412//5
f 241//5 25//5 240//5
f 240//5 25//5 24//5
f 24//5 413//5 240//5
f 240//5 413//5 414//5
f 240//5 414//5 415//5
f 416//5 417//5 240//5
f 240//5 417//5 418//5
f 240//5 418//5 412//5
f 415//5 419//5 240//5
f 240//5 419//5 420//5
f 240//5 420//5 416//5
f 268//2 360//2 267//2
f 267//2 360//2 266//2
f 262//1 331//1 64//1
f 35//1 263//1 28//1
f 28//1 263//1 262//1
f 28//1 262//1 421//1
f 262//1 422//1 423//1
f 64//1 49//1 262//1
f 262//1 49//1 424//1
f 262//1 424//1 425//1
f 423//1 426//1 262//1
f 262//1 426//1 427//1
f 262//1 427//1 421//1
f 425//1 428//1 262//1
f 262//1 428//1 429//1
f 262//1 429//1 422//1
f 430//4 431//4 26//4
f 60//4 432//4 58//4
f 58//4 432//4 430//4
f 58//4 430//4 433//4
f 430//4 434//4 435//4
f 26//4 29//4 430//4
f 430//4 29//4 436//4
f 430//4 436//4 437//4
f 435//4 438//4 430//4
f 430//4 438//4 439//4
f 430//4 439//4 433//4
f 437//4 440//4 430//4
f 430//4 440//4 441//4
f 430//4 441//4 434//4
f 442//3 443//3 93//3
f 26//3 431//3 23//3
f 23//3 431//3 442//3
f 23//3 442//3 444//3
f 444//3 442//3 445//3
f 93//3 446//3 442//3
f 442//3 446//3 447//3
f 442//3 447//3 448//3
f 449//3 450//3 442//3
f 442//3 450//3 451//3
f 442//3 451//3 445//3
f 448//3 452//3 442//3
f 442//3 452//3 453//3
f 442//3 453//3 449//3
f 442//2 431//2 454//2
f 454//2 431//2 430//2
f 454//3 430//3 455//3
f 455//3 430//3 432//3
f 93//2 443//2 91//2
f 91//2 443//2 455//2
f 432//2 60//2 455//2
f 455//2 60//2 69//2
f 455//2 69//2 456//2
f 457//2 458//2 455//2
f 455//2 458//2 459//2
f 455//2 459//2 460//2
f 460//2 461//2 455//2
f 455//2 461//2 462//2
f 455//2 462//2 91//2
f 456//2 463//2 455//2
f 455//2 463//2 464//2
f 455//2 464//2 457//2
f 331//3 262//3 261//3
f 261//3 262//3 260//3
f 257//1 288//1 216//1
f 50//1 256//1 75//1
f 75//1 256//1 257//1
f 75//1 257//1 465//1
f 257//1 466//1 467//1
f 216//1 226//1 257//1
f 257//1 226//1 468//1
f 257//1 468//1 469//1
f 467//1 470//1 257//1
f 257//1 470//1 471//1
f 257//1 471//1 465//1
f 469//1 472//1 257//1
f 257//1 472//1 473//1
f 257//1 473//1 466//1
f 243//4 242//4 68//4
f 221//4 246//4 225//4
f 225//4 246//4 243//4
f 225//4 243//4 474//4
f 243//4 475//4 476//4
f 68//4 74//4 243//4
f 243//4 74//4 477//4
f 243//4 477//4 478//4
f 476//4 479//4 243//4
f 243//4 479//4 480//4
f 243//4 480//4 474//4
f 478//4 481//4 243//4
f 243//4 481//4 482//4
f 243//4 482//4 475//4
f 244//6 483//6 111//6
f 68//6 242//6 70//6
f 70//6 242//6 244//6
f 70//6 244//6 484//6
f 484//6 244//6 485//6
f 111//6 486//6 244//6
f 244//6 486//6 487//6
f 244//6 487//6 488//6
f 489//6 490//6 244//6
f 244//6 490//6 491//6
f 244//6 491//6 485//6
f 488//6 492//6 244//6
f 244//6 492//6 493//6
f 244//6 493//6 489//6
f 111//3 483//3 113//3
f 113//3 483//3 247//3
f 246//3 221//3 247//3
f 247//3 221//3 220//3
f 247//3 220//3 494//3
f 495//3 496//3 247//3
f 247//3 496//3 497//3
f 247//3 497//3 498//3
f 498//3 499//3 247//3
f 247//3 499//3 500//3
f 247//3 500//3 113//3
f 494//3 501//3 247//3
f 247//3 501//3 502//3
f 247//3 502//3 495//3
f 257//6 248//6 288//6
f 288//6 248//6 250//6
f 503//5 504//5 505//5
f 223//5 381//5 219//5
f 219//5 381//5 505//5
f 370//5 130//5 505//5
f 505//5 130//5 114//5
f 504//5 506//5 505//5
f 505//5 506//5 507//5
f 505//5 507//5 219//5
f 114//5 508//5 505//5
f 505//5 508//5 509//5
f 505//5 509//5 510//5
f 510//5 511//5 505//5
f 505//5 511//5 512//5
f 505//5 512//5 503//5
f 381//6 252//6 505//6
f 505//6 252//6 254//6
f 321//6 319//6 350//6
f 350//6 319//6 330//6
f 370//4 505//4 255//4
f 255//4 505//4 254//4
f 247//4 483//4 245//4
f 245//4 483//4 244//4
f 443//4 442//4 455//4
f 455//4 442//4 454//4
f 240//4 400//4 239//4
f 239//4 400//4 238//4
f 24//7 23//7 444//7
f 24//7 444//7 413//7
f 413//8 444//8 445//8
f 413//8 445//8 414//8
f 414//9 445//9 451//9
f 414//9 451//9 415//9
f 415//10 451//10 450//10
f 415//10 450//10 419//10
f 419//11 450//11 449//11
f 419//11 449//11 420//11
f 420//12 449//12 453//12
f 420//12 453//12 416//12
f 416//13 453//13 452//13
f 416//13 452//13 417//13
f 417//14 452//14 448//14
f 417//14 448//14 418//14
f 418//15 448//15 447//15
f 418//15 447//15 412//15
f 412//16 447//16 446//16
f 412//16 446//16 513//16
f 220//17 219//17 507//17
f 220//17 507//17 494//17
f 494//18 507//18 506//18
f 494//18 506//18 501//18
f 501//19 506//19 504//19
f 501//19 504//19 502//19
f 502//20 504//20 503//20
f 502//20 503//20 495//20
f 495//21 503//21 512//21
f 495//21 512//21 496//21
f 496//22 512//22 511//22
f 496//22 511//22 497//22
f 497//23 511//23 510//23
f 497//23 510//23 498//23
f 498//24 510//24 509//24
f 498//24 509//24 499//24
f 499//25 509//25 508//25
f 499//25 508//25 500//25
f 500//26 508//26 514//26
f 500//26 514//26 515//26
f 198//27 174//27 401//27
f 198//27 401//27 373//27
f 373//28 401//28 402//28
f 373//28 402//28 374//28
f 374//29 402//29 408//29
f 374//29 408//29 375//29
f 375//30 408//30 407//30
f 375//30 407//30 379//30
f 379//31 407//31 406//31
f 379//31 406//31 380//31
f 380//32 406//32 410//32
f 380//32 410//32 376//32
f 376//33 410//33 409//33
f 376//33 409//33 377//33
f 377//34 409//34 405//34
f 377//34 405//34 378//34
f 378//35 405//35 404//35
f 378//35 404//35 372//35
f 372//36 404//36 403//36
f 372//36 403//36 516//36
f 44//37 43//37 391//37
f 44//37 391//37 364//37
f 364//38 391//38 397//38
f 364//38 397//38 365//38
f 365//39 397//39 396//39
f 365//39 396//39 368//39
f 368//40 396//40 393//40
f 368//40 393//40 369//40
f 369//41 393//41 392//41
f 369//41 392//41 362//41
f 362//42 392//42 399//42
f 362//42 399//42 363//42
f 363//43 399//43 398//43
f 363//43 398//43 366//43
f 366//44 398//44 395//44
f 366//44 395//44 367//44
f 367//45 395//45 394//45
f 367//45 394//45 361//45
f 361//46 394//46 169//46
f 361//46 169//46 206//46
f 204//47 186//47 382//47
f 204//47 382//47 352//47
f 352//48 382//48 388//48
f 352//48 388//48 353//48
f 353//49 388//49 387//49
f 353//50 387//50 356//50
f 356//51 387//51 384//51
f 356//51 384//51 357//51
f 357//52 384//52 383//52
f 357//52 383//52 354//52
f 354//53 383//53 390//53
f 354//53 390//53 355//53
f 355//54 390//54 389//54
f 355//55 389//55 358//55
f 358//56 389//56 386//56
f 358//56 386//56 359//56
f 359//57 386//57 385//57
f 359//58 385//58 351//58
f 351//59 385//59 235//59
f 351//59 235//59 234//59
f 41//60 46//60 275//60
f 41//60 275//60 345//60
f 345//61 275//61 274//61
f 345//61 274//61 346//61
f 346//62 274//62 271//62
f 346//62 271//62 347//62
f 347//63 271//63 272//63
f 347//64 272//64 348//64
f 348//65 272//65 273//65
f 348//65 273//65 349//65
f 349//66 273//66 277//66
f 349//67 277//67 342//67
f 342//68 277//68 276//68
f 342//68 276//68 343//68
f 343//69 276//69 270//69
f 343//70 270//70 344//70
f 344//71 270//71 269//71
f 344//72 269//72 341//72
f 341//73 269//73 3//73
f 341//74 3//74 18//74
f 166//75 165//75 316//75
f 166//75 316//75 283//75
f 283//76 316//76 312//76
f 283//76 312//76 284//76
f 284//77 312//77 311//77
f 284//77 311//77 285//77
f 285//78 311//78 310//78
f 285//78 310//78 286//78
f 286//79 310//79 309//79
f 286//79 309//79 287//79
f 287//80 309//80 318//80
f 287//80 318//80 280//80
f 280//81 318//81 317//81
f 280//81 317//81 281//81
f 281//82 317//82 314//82
f 281//82 314//82 282//82
f 282//83 314//83 313//83
f 282//83 313//83 278//83
f 278//84 313//84 10//84
f 278//84 10//84 11//84
f 227//85 233//85 295//85
f 227//85 295//85 325//85
f 325//86 295//86 294//86
f 325//86 294//86 326//86
f 326//87 294//87 291//87
f 326//87 291//87 327//87
f 327//88 291//88 292//88
f 327//89 292//89 328//89
f 328//90 292//90 293//90
f 328//90 293//90 329//90
f 329//91 293//91 297//91
f 329//92 297//92 322//92
f 322//93 297//93 296//93
f 322//93 296//93 323//93
f 323//94 296//94 290//94
f 323//95 290//95 324//95
f 324//96 290//96 289//96
f 324//97 289//97 320//97
f 320//98 289//98 21//98
f 320//99 21//99 22//99
f 49//100 58//100 433//100
f 49//100 433//100 424//100
f 424//101 433//101 439//101
f 424//101 439//101 425//101
f 425//102 439//102 438//102
f 425//102 438//102 428//102
f 428//103 438//103 435//103
f 428//103 435//103 429//103
f 429//104 435//104 434//104
f 429//104 434//104 422//104
f 422//105 434//105 441//105
f 422//105 441//105 423//105
f 423//106 441//106 440//106
f 423//106 440//106 426//106
f 426//107 440//107 437//107
f 426//107 437//107 427//107
f 427//108 437//108 436//108
f 427//108 436//108 421//108
f 421//109 436//109 29//109
f 421//109 29//109 28//109
f 78//110 77//110 338//110
f 78//110 338//110 302//110
f 302//111 338//111 337//111
f 302//111 337//111 303//111
f 303//112 337//112 334//112
f 303//112 334//112 304//112
f 304//113 334//113 335//113
f 304//114 335//114 305//114
f 305//115 335//115 336//115
f 305//115 336//115 306//115
f 306//116 336//116 340//116
f 306//116 340//116 299//116
f 299//117 340//117 339//117
f 299//118 339//118 300//118
f 300//119 339//119 333//119
f 300//120 333//120 301//120
f 301//121 333//121 332//121
f 301//121 332//121 298//121
f 298//122 332//122 6//122
f 298//122 6//122 5//122
f 226//123 225//123 474//123
f 226//123 474//123 468//123
f 468//124 474//124 480//124
f 468//125 480//125 469//125
f 469//126 480//126 479//126
f 469//126 479//126 472//126
f 472//127 479//127 476//127
f 472//128 476//128 473//128
f 473//129 476//129 475//129
f 473//129 475//129 466//129
f 466//130 475//130 482//130
f 466//130 482//130 467//130
f 467//131 482//131 481//131
f 467//131 481//131 470//131
f 470//132 481//132 478//132
f 470//132 478//132 471//132
f 471//133 478//133 477//133
f 471//133 477//133 465//133
f 465//134 477//134 74//134
f 465//134 74//134 75//134
f 69//135 70//135 484//135
f 69//135 484//135 456//135
f 456//136 484//136 485//136
f 456//136 485//136 463//136
f 463//137 485//137 491//137
f 463//137 491//137 464//137
f 464//138 491//138 490//138
f 464//139 490//139 457//139
f 457//140 490//140 489//140
f 457//140 489//140 458//140
f 458//141 489//141 493//141
f 458//141 493//141 459//141
f 459//142 493//142 492//142
f 459//142 492//142 460//142
f 460//143 492//143 488//143
f 460//143 488//143 461//143
f 461//144 488//144 487//144
f 461//145 487//145 462//145
f 462//146 487//146 486//146
f 462//146 486//146 517//146
f 518//147 519//147 222//147
f 222//147 519//147 229//147
f 519//4 520//4 229//4
f 229//4 520//4 217//4
f 520//148 521//148 217//148
f 217//148 521//148 218//148
f 521//1 522//1 218//1
f 218//1 522//1 230//1
f 522//149 523//149 230//149
f 230//149 523//149 231//149
f 523//1 524//1 231//1
f 231//1 524//1 232//1
f 524//150 525//150 232//150
f 232//150 525//150 224//150
f 525//1 518//1 224//1
f 224//1 518//1 222//1
f 526//6 524//6 527//6
f 527//6 524//6 523//6
f 525//6 524//6 518//6
f 518//6 524//6 526//6
f 518//6 526//6 519//6
f 519//6 526//6 528//6
f 519//6 528//6 520//6
f 520//6 528//6 527//6
f 520//6 527//6 521//6
f 521//6 527//6 523//6
f 521//6 523//6 522//6
f 527//151 528//151 529//151
f 529//151 528//151 530//151
f 526//4 527//4 531//4
f 531//4 527//4 529//4
f 528//152 526//152 530//152
f 530//152 526//152 531//152
f 530//6 531//6 529//6
f 532//6 533//6 196//6
f 196//6 533//6 197//6
f 533//4 534//4 197//4
f 197//4 534//4 205//4
f 534//2 535//2 205//2
f 205//2 535//2 203//2
f 536//153 187//153 185//153
f 536//153 185//153 537//153
f 537//154 185//154 184//154
f 537//154 184//154 538//154
f 538//155 184//155 203//155
f 538//155 203//155 535//155
f 539//156 199//156 209//156
f 539//157 209//157 540//157
f 540//158 209//158 208//158
f 540//159 208//159 541//159
f 541//160 208//160 207//160
f 541//160 207//160 542//160
f 542//161 207//161 177//161
f 542//161 177//161 543//161
f 543//162 177//162 176//162
f 543//162 176//162 544//162
f 544//163 176//163 190//163
f 544//163 190//163 545//163
f 545//164 190//164 189//164
f 545//164 189//164 546//164
f 546//165 189//165 188//165
f 546//165 188//165 547//165
f 547//166 188//166 187//166
f 547//166 187//166 536//166
f 548//167 215//167 213//167
f 548//167 213//167 549//167
f 549//168 213//168 212//168
f 549//168 212//168 550//168
f 550//169 212//169 173//169
f 550//169 173//169 551//169
f 551//170 173//170 172//170
f 551//170 172//170 552//170
f 552//171 172//171 200//171
f 552//171 200//171 553//171
f 553//172 200//172 199//172
f 553//172 199//172 539//172
f 554//173 202//173 201//173
f 554//173 201//173 555//173
f 555//174 201//174 179//174
f 555//174 179//174 556//174
f 556//175 179//175 178//175
f 556//176 178//176 557//176
f 557//177 178//177 194//177
f 557//177 194//177 558//177
f 558//178 194//178 211//178
f 558//178 211//178 559//178
f 559//179 211//179 210//179
f 559//179 210//179 560//179
f 560//180 210//180 214//180
f 560//180 214//180 561//180
f 561//181 214//181 215//181
f 561//181 215//181 548//181
f 532//182 196//182 195//182
f 532//182 195//182 562//182
f 562//183 195//183 171//183
f 562//183 171//183 563//183
f 563//184 171//184 170//184
f 563//185 170//185 564//185
f 564//186 170//186 193//186
f 564//186 193//186 565//186
f 565//187 193//187 192//187
f 565//187 192//187 566//187
f 566//188 192//188 191//188
f 566//188 191//188 567//188
f 567//189 191//189 180//189
f 567//189 180//189 568//189
f 568//190 180//190 182//190
f 568//190 182//190 569//190
f 569//191 182//191 183//191
f 569//191 183//191 570//191
f 570//192 183//192 202//192
f 570//192 202//192 554//192
f 571//5 534//5 533//5
f 572//5 573//5 548//5
f 548//5 573//5 574//5
f 548//5 574//5 575//5
f 575//5 576//5 571//5
f 571//5 576//5 577//5
f 578//5 579//5 548//5
f 580//5 581//5 570//5
f 570//5 581//5 582//5
f 570//5 582//5 569//5
f 569//5 582//5 583//5
f 569//5 583//5 568//5
f 568//5 583//5 584//5
f 568//5 584//5 567//5
f 567//5 584//5 585//5
f 567//5 585//5 566//5
f 566//5 585//5 586//5
f 566//5 586//5 565//5
f 565//5 586//5 587//5
f 565//5 587//5 564//5
f 564//5 587//5 588//5
f 564//5 588//5 563//5
f 563//5 588//5 589//5
f 563//5 589//5 562//5
f 562//5 589//5 590//5
f 562//5 590//5 532//5
f 532//5 590//5 591//5
f 532//5 591//5 533//5
f 533//5 591//5 592//5
f 533//5 592//5 571//5
f 593//5 539//5 594//5
f 594//5 539//5 540//5
f 594//5 540//5 595//5
f 595//5 540//5 541//5
f 595//5 541//5 596//5
f 596//5 541//5 542//5
f 596//5 542//5 597//5
f 572//5 548//5 598//5
f 598//5 548//5 549//5
f 598//5 549//5 599//5
f 599//5 549//5 550//5
f 599//5 550//5 600//5
f 600//5 550//5 551//5
f 600//5 551//5 601//5
f 601//5 551//5 552//5
f 601//5 552//5 593//5
f 593//5 552//5 553//5
f 593//5 553//5 539//5
f 575//5 571//5 548//5
f 548//5 571//5 602//5
f 548//5 602//5 578//5
f 542//5 543//5 597//5
f 597//5 543//5 544//5
f 597//5 544//5 603//5
f 603//5 544//5 545//5
f 603//5 545//5 604//5
f 604//5 545//5 546//5
f 604//5 546//5 605//5
f 605//5 546//5 547//5
f 605//5 547//5 606//5
f 606//5 547//5 536//5
f 606//5 536//5 607//5
f 607//5 536//5 537//5
f 607//5 537//5 608//5
f 608//5 537//5 538//5
f 608//5 538//5 609//5
f 609//5 538//5 535//5
f 609//5 535//5 610//5
f 610//5 535//5 534//5
f 610//5 534//5 611//5
f 611//5 534//5 571//5
f 611//5 571//5 612//5
f 612//5 571//5 577//5
f 579//5 613//5 548//5
f 548//5 613//5 614//5
f 548//5 614//5 561//5
f 561//5 614//5 615//5
f 561//5 615//5 560//5
f 560//5 615//5 616//5
f 560//5 616//5 559//5
f 559//5 616//5 617//5
f 559//5 617//5 558//5
f 558//5 617//5 618//5
f 558//5 618//5 557//5
f 557//5 618//5 619//5
f 557//5 619//5 556//5
f 556//5 619//5 620//5
f 556//5 620//5 555//5
f 555//5 620//5 580//5
f 555//5 580//5 554//5
f 554//5 580//5 570//5
f 609//6 610//6 621//6
f 621//6 610//6 622//6
f 609//193 621//193 623//193
f 609//193 623//193 608//193
f 608//194 623//194 624//194
f 608//194 624//194 607//194
f 607//195 624//195 625//195
f 607//195 625//195 606//195
f 606//196 625//196 626//196
f 606//196 626//196 605//196
f 605//197 626//197 627//197
f 605//197 627//197 604//197
f 604//198 627//198 628//198
f 604//198 628//198 603//198
f 603//199 628//199 629//199
f 603//199 629//199 597//199
f 597//200 629//200 630//200
f 597//201 630//201 596//201
f 596//202 630//202 631//202
f 596//202 631//202 595//202
f 595//203 631//203 632//203
f 595//203 632//203 594//203
f 594//204 632//204 633//204
f 594//204 633//204 593//204
f 593//205 633//205 634//205
f 593//205 634//205 601//205
f 601//206 634//206 635//206
f 601//206 635//206 600//206
f 600//207 635//207 636//207
f 600//207 636//207 599//207
f 599//208 636//208 637//208
f 599//208 637//208 598//208
f 598//209 637//209 638//209
f 598//209 638//209 572//209
f 572//210 638//210 639//210
f 572//210 639//210 573//210
f 573//211 639//211 640//211
f 573//211 640//211 574//211
f 574//212 640//212 641//212
f 574//213 641//213 575//213
f 575//214 641//214 642//214
f 575//214 642//214 576//214
f 576//215 642//215 643//215
f 576//215 643//215 577//215
f 577//216 643//216 644//216
f 577//216 644//216 612//216
f 611//2 612//2 645//2
f 645//2 612//2 644//2
f 610//1 611//1 622//1
f 622//1 611//1 645//1
f 602//6 571//6 646//6
f 646//6 571//6 647//6
f 602//217 646//217 648//217
f 602//217 648//217 578//217
f 578//218 648//218 649//218
f 578//218 649//218 579//218
f 579//219 649//219 650//219
f 579//219 650//219 613//219
f 613//220 650//220 651//220
f 613//220 651//220 614//220
f 614//221 651//221 652//221
f 614//221 652//221 615//221
f 615//222 652//222 653//222
f 615//222 653//222 616//222
f 616//223 653//223 654//223
f 616//223 654//223 617//223
f 617//224 654//224 655//224
f 617//224 655//224 618//224
f 618//225 655//225 656//225
f 618//226 656//226 619//226
f 619//227 656//227 657//227
f 619//227 657//227 620//227
f 620//228 657//228 658//228
f 620//228 658//228 580//228
f 580//229 658//229 659//229
f 580//230 659//230 581//230
f 581//231 659//231 660//231
f 581//231 660//231 582//231
f 582//232 660//232 661//232
f 582//232 661//232 583//232
f 583//233 661//233 662//233
f 583//233 662//233 584//233
f 584//234 662//234 663//234
f 584//234 663//234 585//234
f 585//235 663//235 664//235
f 585//235 664//235 586//235
f 586//236 664//236 665//236
f 586//236 665//236 587//236
f 587//237 665//237 666//237
f 587//237 666//237 588//237
f 588//238 666//238 667//238
f 588//239 667//239 589//239
f 589//240 667//240 668//240
f 589//240 668//240 590//240
f 590//241 668//241 669//241
f 590//241 669//241 591//241
f 592//2 591//2 670//2
f 670//2 591//2 669//2
f 571//1 592//1 647//1
f 647//1 592//1 670//1
f 622//5 645//5 621//5
f 621//5 645//5 644//5
f 621//5 644//5 623//5
f 623//5 644//5 643//5
f 634//5 633//5 623//5
f 623//5 633//5 632//5
f 623//5 632//5 624//5
f 624//5 632//5 625//5
f 643//5 642//5 623//5
f 623//5 642//5 641//5
f 623//5 641//5 640//5
f 629//5 628//5 630//5
f 630//5 628//5 627//5
f 630//5 627//5 631//5
f 640//5 639//5 623//5
f 623//5 639//5 638//5
f 623//5 638//5 637//5
f 631//5 627//5 632//5
f 632//5 627//5 626//5
f 632//5 626//5 625//5
f 637//5 636//5 623//5
f 623//5 636//5 635//5
f 623//5 635//5 634//5
f 647//5 670//5 646//5
f 646//5 670//5 669//5
f 646//5 669//5 648//5
f 648//5 669//5 649//5
f 669//5 668//5 658//5
f 658//5 668//5 667//5
f 658//5 667//5 666//5
f 666//5 665//5 658//5
f 658//5 665//5 664//5
f 658//5 664//5 659//5
f 664//5 663//5 662//5
f 658//5 657//5 669//5
f 669//5 657//5 656//5
f 669//5 656//5 655//5
f 662//5 661//5 664//5
f 664//5 661//5 660//5
f 664//5 660//5 659//5
f 655//5 654//5 669//5
f 669//5 654//5 653//5
f 669//5 653//5 652//5
f 652//5 651//5 669//5
f 669//5 651//5 650//5
f 669//5 650//5 649//5
f 671//242 99//242 127//242
f 671//242 127//242 672//242
f 672//243 127//243 128//243
f 672//243 128//243 673//243
f 673//244 128//244 126//244
f 673//244 126//244 674//244
f 674//245 126//245 125//245
f 674//245 125//245 675//245
f 675//246 125//246 124//246
f 675//246 124//246 676//246
f 676//247 124//247 112//247
f 676//247 112//247 677//247
f 671//248 678//248 679//248
f 679//248 678//248 680//248
f 681//249 104//249 103//249
f 681//250 103//250 682//250
f 682//251 103//251 102//251
f 682//251 102//251 683//251
f 683//252 102//252 101//252
f 683//252 101//252 684//252
f 684//253 101//253 100//253
f 684//253 100//253 685//253
f 685//254 100//254 96//254
f 685//254 96//254 686//254
f 686//255 96//255 97//255
f 686//255 97//255 678//255
f 687//256 89//256 88//256
f 687//256 88//256 688//256
f 688//257 88//257 133//257
f 688//257 133//257 689//257
f 689//258 133//258 132//258
f 689//258 132//258 690//258
f 690//259 132//259 119//259
f 690//259 119//259 691//259
f 691//260 119//260 118//260
f 691//260 118//260 692//260
f 692//261 118//261 117//261
f 692//261 117//261 693//261
f 693//262 117//262 108//262
f 693//262 108//262 694//262
f 694//263 108//263 107//263
f 694//263 107//263 695//263
f 695//264 107//264 106//264
f 695//264 106//264 696//264
f 696//265 106//265 105//265
f 696//265 105//265 697//265
f 697//59 105//59 104//59
f 697//59 104//59 681//59
f 698//266 155//266 154//266
f 698//266 154//266 699//266
f 699//267 154//267 153//267
f 699//267 153//267 700//267
f 700//268 153//268 161//268
f 700//268 161//268 701//268
f 701//269 161//269 151//269
f 701//269 151//269 702//269
f 702//270 151//270 150//270
f 702//270 150//270 703//270
f 703//271 150//271 136//271
f 703//271 136//271 704//271
f 704//272 136//272 135//272
f 704//272 135//272 705//272
f 705//273 135//273 134//273
f 705//273 134//273 706//273
f 706//274 134//274 121//274
f 706//274 121//274 707//274
f 707//275 121//275 89//275
f 707//275 89//275 687//275
f 708//276 98//276 87//276
f 708//276 87//276 709//276
f 709//277 87//277 123//277
f 709//277 123//277 710//277
f 710//278 123//278 122//278
f 710//278 122//278 711//278
f 711//279 122//279 120//279
f 711//279 120//279 712//279
f 712//280 120//280 152//280
f 712//280 152//280 713//280
f 713//281 152//281 155//281
f 713//281 155//281 698//281
f 708//282 714//282 715//282
f 715//282 714//282 716//282
f 717//283 143//283 142//283
f 717//283 142//283 718//283
f 718//284 142//284 86//284
f 718//284 86//284 719//284
f 719//285 86//285 85//285
f 719//285 85//285 720//285
f 720//286 85//286 95//286
f 720//286 95//286 721//286
f 721//287 95//287 94//287
f 721//287 94//287 722//287
f 722//288 94//288 90//288
f 722//288 90//288 714//288
f 723//289 164//289 163//289
f 723//289 163//289 724//289
f 724//290 163//290 162//290
f 724//290 162//290 725//290
f 725//291 162//291 137//291
f 725//291 137//291 726//291
f 726//292 137//292 139//292
f 726//292 139//292 727//292
f 727//293 139//293 141//293
f 727//293 141//293 728//293
f 728//294 141//294 149//294
f 728//294 149//294 729//294
f 729//295 149//295 148//295
f 729//295 148//295 730//295
f 730//296 148//296 147//296
f 730//296 147//296 731//296
f 731//297 147//297 146//297
f 731//297 146//297 732//297
f 732//298 146//298 145//298
f 732//298 145//298 733//298
f 733//299 145//299 143//299
f 733//299 143//299 717//299
f 677//300 112//300 110//300
f 677//300 110//300 734//300
f 734//301 110//301 109//301
f 734//301 109//301 735//301
f 735//302 109//302 115//302
f 735//302 115//302 736//302
f 736//303 115//303 116//303
f 736//303 116//303 737//303
f 737//304 116//304 129//304
f 737//304 129//304 738//304
f 738//305 129//305 131//305
f 738//305 131//305 739//305
f 739//306 131//306 160//306
f 739//306 160//306 740//306
f 740//307 160//307 159//307
f 740//307 159//307 741//307
f 741//308 159//308 157//308
f 741//308 157//308 742//308
f 742//309 157//309 156//309
f 742//309 156//309 743//309
f 743//310 156//310 164//310
f 743//310 164//310 723//310
f 686//4 678//4 671//4
f 704//4 705//4 726//4
f 677//4 734//4 697//4
f 743//4 689//4 742//4
f 742//4 689//4 690//4
f 742//4 690//4 741//4
f 741//4 690//4 740//4
f 740//4 690//4 691//4
f 740//4 691//4 739//4
f 697//4 734//4 696//4
f 696//4 734//4 735//4
f 696//4 735//4 695//4
f 695//4 735//4 736//4
f 695//4 736//4 694//4
f 671//4 672//4 686//4
f 686//4 672//4 673//4
f 686//4 673//4 685//4
f 685//4 673//4 674//4
f 685//4 674//4 684//4
f 684//4 674//4 675//4
f 684//4 675//4 683//4
f 683//4 675//4 676//4
f 683//4 676//4 682//4
f 682//4 676//4 677//4
f 682//4 677//4 681//4
f 681//4 677//4 697//4
f 698//4 718//4 713//4
f 713//4 718//4 719//4
f 713//4 719//4 712//4
f 712//4 719//4 720//4
f 712//4 720//4 711//4
f 711//4 720//4 721//4
f 711//4 721//4 710//4
f 710//4 721//4 722//4
f 710//4 722//4 709//4
f 709//4 722//4 714//4
f 709//4 714//4 708//4
f 726//4 705//4 725//4
f 725//4 705//4 706//4
f 725//4 706//4 724//4
f 724//4 706//4 707//4
f 724//4 707//4 723//4
f 723//4 707//4 687//4
f 723//4 687//4 743//4
f 743//4 687//4 688//4
f 743//4 688//4 689//4
f 691//4 692//4 739//4
f 739//4 692//4 693//4
f 739//4 693//4 738//4
f 738//4 693//4 694//4
f 738//4 694//4 737//4
f 737//4 694//4 736//4
f 726//4 727//4 704//4
f 704//4 727//4 728//4
f 704//4 728//4 703//4
f 703//4 728//4 729//4
f 703//4 729//4 702//4
f 702//4 729//4 730//4
f 702//4 730//4 701//4
f 701//4 730//4 731//4
f 701//4 731//4 700//4
f 700//4 731//4 732//4
f 700//4 732//4 699//4
f 699//4 732//4 733//4
f 699//4 733//4 698//4
f 698//4 733//4 717//4
f 698//4 717//4 718//4
f 744//1 745//1 61//1
f 61//1 745//1 67//1
f 745//2 746//2 67//2
f 67//2 746//2 76//2
f 747//311 71//311 80//311
f 747//311 80//311 748//311
f 748//312 80//312 79//312
f 748//312 79//312 749//312
f 749//313 79//313 83//313
f 749//313 83//313 750//313
f 750//314 83//314 82//314
f 750//314 82//314 751//314
f 751//315 82//315 81//315
f 751//315 81//315 752//315
f 752//316 81//316 52//316
f 752//316 52//316 753//316
f 753//317 52//317 51//317
f 753//317 51//317 754//317
f 754//318 51//318 55//318
f 754//318 55//318 755//318
f 755//319 55//319 54//319
f 755//319 54//319 756//319
f 756//320 54//320 53//320
f 756//320 53//320 757//320
f 757//321 53//321 76//321
f 757//321 76//321 746//321
f 758//322 59//322 57//322
f 758//322 57//322 759//322
f 759//323 57//323 56//323
f 759//323 56//323 760//323
f 760//324 56//324 48//324
f 760//324 48//324 761//324
f 761//325 48//325 47//325
f 761//325 47//325 762//325
f 762//326 47//326 66//326
f 762//326 66//326 763//326
f 763//327 66//327 65//327
f 763//327 65//327 764//327
f 764//328 65//328 63//328
f 764//328 63//328 765//328
f 765//329 63//329 62//329
f 765//329 62//329 766//329
f 766//330 62//330 73//330
f 766//330 73//330 767//330
f 767//331 73//331 72//331
f 767//331 72//331 768//331
f 768//332 72//332 71//332
f 768//332 71//332 747//332
f 758//6 744//6 59//6
f 59//6 744//6 61//6
f 769//3 770//3 753//3
f 753//3 770//3 752//3
f 752//3 770//3 771//3
f 752//3 771//3 751//3
f 751//3 771//3 772//3
f 751//3 772//3 750//3
f 750//3 772//3 773//3
f 750//3 773//3 749//3
f 749//3 773//3 774//3
f 749//3 774//3 748//3
f 748//3 774//3 775//3
f 748//3 775//3 747//3
f 753//3 754//3 769//3
f 769//3 754//3 755//3
f 769//3 755//3 776//3
f 776//3 755//3 756//3
f 776//3 756//3 777//3
f 777//3 756//3 757//3
f 777//3 757//3 778//3
f 778//3 757//3 746//3
f 778//3 746//3 779//3
f 779//3 746//3 745//3
f 779//3 745//3 780//3
f 780//3 745//3 744//3
f 780//3 744//3 781//3
f 781//3 744//3 758//3
f 781//3 758//3 782//3
f 782//3 758//3 759//3
f 782//3 759//3 783//3
f 783//3 759//3 760//3
f 783//3 760//3 784//3
f 784//3 760//3 761//3
f 784//3 761//3 785//3
f 785//3 761//3 762//3
f 785//3 762//3 786//3
f 786//3 762//3 763//3
f 786//3 763//3 787//3
f 787//3 763//3 764//3
f 787//3 764//3 788//3
f 788//3 764//3 765//3
f 788//3 765//3 789//3
f 789//3 765//3 766//3
f 789//3 766//3 790//3
f 790//3 766//3 767//3
f 790//3 767//3 791//3
f 791//3 767//3 768//3
f 791//3 768//3 792//3
f 792//3 768//3 747//3
f 792//3 747//3 793//3
f 793//3 747//3 775//3
f 778//6 779//6 794//6
f 794//6 779//6 795//6
f 778//333 794//333 796//333
f 778//333 796//333 777//333
f 777//334 796//334 797//334
f 777//334 797//334 776//334
f 776//335 797//335 798//335
f 776//335 798//335 769//335
f 769//336 798//336 799//336
f 769//336 799//336 770//336
f 770//337 799//337 800//337
f 770//338 800//338 771//338
f 771//339 800//339 801//339
f 771//339 801//339 772//339
f 772//340 801//340 802//340
f 772//340 802//340 773//340
f 773//341 802//341 803//341
f 773//341 803//341 774//341
f 774//342 803//342 804//342
f 774//342 804//342 775//342
f 775//343 804//343 805//343
f 775//343 805//343 793//343
f 793//344 805//344 806//344
f 793//345 806//345 792//345
f 792//346 806//346 807//346
f 792//346 807//346 791//346
f 791//347 807//347 808//347
f 791//348 808//348 790//348
f 790//349 808//349 809//349
f 790//349 809//349 789//349
f 789//350 809//350 810//350
f 789//350 810//350 788//350
f 788//351 810//351 811//351
f 788//351 811//351 787//351
f 787//352 811//352 812//352
f 787//352 812//352 786//352
f 786//353 812//353 813//353
f 786//353 813//353 785//353
f 785//354 813//354 814//354
f 785//355 814//355 784//355
f 784//356 814//356 815//356
f 784//356 815//356 783//356
f 783//357 815//357 816//357
f 783//357 816//357 782//357
f 782//358 816//358 817//358
f 782//358 817//358 781//358
f 780//2 781//2 818//2
f 818//2 781//2 817//2
f 779//4 780//4 795//4
f 795//4 780//4 818//4
f 794//3 795//3 818//3
f 818//3 817//3 794//3
f 794//3 817//3 816//3
f 794//3 816//3 815//3
f 797//3 796//3 805//3
f 805//3 796//3 794//3
f 805//3 794//3 806//3
f 812//3 811//3 794//3
f 794//3 811//3 810//3
f 794//3 810//3 809//3
f 809//3 808//3 794//3
f 794//3 808//3 807//3
f 794//3 807//3 806//3
f 797//3 805//3 798//3
f 798//3 805//3 804//3
f 798//3 804//3 803//3
f 815//3 814//3 794//3
f 794//3 814//3 813//3
f 794//3 813//3 812//3
f 803//3 802//3 798//3
f 798//3 802//3 801//3
f 798//3 801//3 799//3
f 799//359 801//359 800//359
f 819//3 820//3 42//3
f 42//3 820//3 27//3
f 820//1 821//1 27//1
f 27//1 821//1 36//1
f 821//5 822//5 36//5
f 36//5 822//5 32//5
f 822//4 823//4 32//4
f 32//4 823//4 30//4
f 823//5 824//5 30//5
f 30//5 824//5 31//5
f 824//1 825//1 31//1
f 31//1 825//1 33//1
f 825//5 826//5 33//5
f 33//5 826//5 34//5
f 826//4 827//4 34//4
f 34//4 827//4 37//4
f 827//5 828//5 37//5
f 37//5 828//5 38//5
f 828//1 829//1 38//1
f 38//1 829//1 39//1
f 829//5 830//5 39//5
f 39//5 830//5 40//5
f 830//4 819//4 40//4
f 40//4 819//4 42//4
f 830//2 829//2 819//2
f 819//2 829//2 828//2
f 819//2 828//2 820//2
f 820//2 828//2 827//2
f 822//2 821//2 823//2
f 823//2 821//2 820//2
f 823//2 820//2 824//2
f 824//2 820//2 827//2
f 824//2 827//2 825//2
f 825//2 827//2 826//2
f 831//3 832//3 8//3
f 8//3 832//3 2//3
f 832//6 833//6 2//6
f 2//6 833//6 4//6
f 833//5 834//5 4//5
f 4//5 834//5 14//5
f 834//2 835//2 14//2
f 14//2 835//2 12//2
f 835//5 836//5 12//5
f 12//5 836//5 13//5
f 836//6 837//6 13//6
f 13//6 837//6 15//6
f 837//5 838//5 15//5
f 15//5 838//5 16//5
f 838//2 839//2 16//2
f 16//2 839//2 19//2
f 839//5 840//5 19//5
f 19//5 840//5 20//5
f 840//2 831//2 20//2
f 20//2 831//2 8//2
f 831//1 840//1 832//1
f 832//1 840//1 839//1
f 834//1 833//1 835//1
f 835//1 833//1 832//1
f 835//1 832//1 836//1
f 836//1 832//1 839//1
f 836//1 839//1 837//1
f 837//1 839//1 838//1
