o small_cube
v 0.005000 0.024000 -0.025000
v 0.024000 0.024000 -0.025000
v 0.005000 -0.005000 -0.025000
v 0.024000 0.005000 -0.025000
v 0.019058 -0.017577 -0.025000
v 0.016173 -0.017577 -0.025000
v 0.019058 -0.012962 -0.025000
v 0.016173 -0.012962 -0.025000
v 0.024000 -0.024000 -0.025000
v 0.005000 -0.024000 -0.025000
v 0.006750 -0.020269 -0.025000
v -0.024000 -0.024000 -0.025000
v -0.024000 -0.005000 -0.025000
v 0.006750 -0.017577 -0.025000
v 0.013481 -0.017577 -0.025000
v 0.013481 -0.012962 -0.025000
v 0.021750 -0.020269 -0.025000
v 0.021750 -0.012962 -0.025000
v -0.024000 -0.025000 0.024000
v -0.024000 -0.025000 0.005000
v 0.005000 -0.025000 0.005000
v 0.006750 -0.025000 0.012192
v 0.006750 -0.025000 0.020269
v -0.005000 -0.025000 0.024000
v 0.024000 -0.025000 0.024000
v 0.005000 -0.025000 -0.024000
v 0.024000 -0.025000 -0.024000
v 0.024000 -0.025000 0.005000
v 0.019058 -0.025000 0.017577
v 0.016173 -0.025000 0.017577
v 0.019058 -0.025000 0.012192
v 0.016173 -0.025000 0.012192
v 0.021750 -0.025000 0.020269
v 0.021750 -0.025000 0.012192
v 0.013481 -0.025000 0.012192
v 0.009442 -0.025000 0.012192
v 0.009442 -0.025000 0.017577
v 0.013481 -0.025000 0.017577
v 0.025000 0.011829 0.008677
v 0.025000 0.010555 0.009165
v 0.025000 0.005000 0.005000
v 0.025000 0.009648 0.009696
v 0.025000 0.022000 0.020269
v 0.025000 0.024000 0.024000
v 0.025000 0.007000 0.020269
v 0.025000 0.005000 0.024000
v 0.025000 0.007000 0.016826
v 0.025000 -0.024000 0.024000
v 0.025000 0.007044 0.015015
v 0.025000 -0.024000 0.005000
v 0.025000 0.007217 0.013363
v 0.025000 0.007425 0.012543
v 0.025000 0.014930 0.008363
v 0.025000 0.016259 0.008534
v 0.025000 0.017432 0.008861
v 0.025000 0.024000 -0.005000
v 0.025000 0.018485 0.009341
v 0.025000 0.014290 0.008346
v 0.025000 0.013089 0.008419
v 0.025000 0.008890 0.010318
v 0.025000 0.008220 0.011077
v 0.025000 0.007747 0.011810
v 0.025000 0.021549 0.012927
v 0.025000 0.021239 0.012108
v 0.025000 0.020813 0.011375
v 0.025000 0.022000 0.016877
v 0.025000 0.021970 0.015675
v 0.025000 0.021804 0.014072
v 0.025000 0.020259 0.010690
v 0.025000 0.019557 0.010050
v 0.025000 0.005000 -0.024000
v 0.025000 0.024000 -0.024000
v -0.006868 0.008479 0.025000
v 0.024000 0.005000 0.025000
v 0.024000 0.024000 0.025000
v -0.005000 -0.024000 0.025000
v -0.010142 0.006159 0.025000
v -0.011235 0.005825 0.025000
v -0.005000 0.005000 0.025000
v -0.008004 0.007457 0.025000
v -0.009203 0.006619 0.025000
v -0.010088 0.009336 0.025000
v -0.009151 0.010127 0.025000
v -0.018346 0.013530 0.025000
v -0.018327 0.014003 0.025000
v -0.024000 0.024000 0.025000
v -0.016158 0.020827 0.025000
v -0.015010 0.021185 0.025000
v -0.024000 -0.005000 0.025000
v -0.017832 0.006964 0.025000
v -0.018731 0.007710 0.025000
v -0.019702 0.018064 0.025000
v -0.018947 0.018981 0.025000
v -0.009637 0.017323 0.025000
v -0.008782 0.016511 0.025000
v -0.008782 0.010489 0.025000
v -0.006808 0.018398 0.025000
v -0.010501 0.017923 0.025000
v -0.011297 0.018312 0.025000
v -0.012185 0.018580 0.025000
v -0.013068 0.018684 0.025000
v -0.013313 0.018692 0.025000
v -0.014206 0.018622 0.025000
v -0.014941 0.018442 0.025000
v -0.015607 0.018163 0.025000
v -0.016253 0.017761 0.025000
v -0.024000 -0.024000 0.025000
v -0.015702 0.005944 0.025000
v -0.016778 0.006351 0.025000
v -0.019290 0.008314 0.025000
v -0.019934 0.009218 0.025000
v -0.020452 0.010270 0.025000
v -0.018371 0.019511 0.025000
v -0.017366 0.020225 0.025000
v -0.016850 0.017244 0.025000
v -0.017105 0.016971 0.025000
v -0.017578 0.016338 0.025000
v -0.012590 0.005635 0.025000
v -0.013250 0.005615 0.025000
v -0.014491 0.005693 0.025000
v -0.020958 0.014759 0.025000
v -0.020704 0.015962 0.025000
v -0.020296 0.017032 0.025000
v -0.017963 0.015588 0.025000
v -0.018207 0.014818 0.025000
v -0.018283 0.012606 0.025000
v -0.011541 0.008571 0.025000
v -0.010865 0.008850 0.025000
v -0.013769 0.021365 0.025000
v -0.013208 0.021385 0.025000
v -0.005000 0.024000 0.025000
v -0.011946 0.021289 0.025000
v -0.010767 0.021015 0.025000
v -0.009553 0.020534 0.025000
v -0.007507 0.019132 0.025000
v -0.008526 0.019943 0.025000
v -0.018089 0.011749 0.025000
v -0.017808 0.011034 0.025000
v -0.017385 0.010327 0.025000
v -0.016948 0.009800 0.025000
v -0.016379 0.009305 0.025000
v -0.012305 0.008384 0.025000
v -0.014975 0.008574 0.025000
v -0.014191 0.008381 0.025000
v -0.013262 0.008308 0.025000
v -0.015728 0.008895 0.025000
v -0.020823 0.011466 0.025000
v -0.021009 0.012733 0.025000
v -0.021038 0.013524 0.025000
v -0.025000 -0.005000 -0.005000
v -0.025000 0.024000 -0.005000
v -0.025000 -0.010846 -0.011092
v -0.025000 -0.005000 -0.024000
v -0.025000 -0.011697 -0.013691
v -0.025000 0.024000 -0.024000
v -0.025000 -0.011346 -0.013171
v -0.025000 -0.011095 -0.012618
v -0.025000 -0.010927 -0.012005
v -0.025000 -0.010848 -0.011203
v -0.025000 -0.010915 -0.010299
v -0.025000 -0.011074 -0.009689
v -0.025000 -0.011327 -0.009106
v -0.025000 -0.013265 -0.007226
v -0.025000 -0.013899 -0.006996
v -0.025000 -0.005000 0.024000
v -0.025000 -0.014836 -0.006817
v -0.025000 -0.024000 0.024000
v -0.025000 -0.016050 -0.006750
v -0.025000 -0.024000 0.005000
v -0.025000 -0.020269 -0.006750
v -0.025000 -0.024000 -0.024000
v -0.025000 -0.020269 -0.021750
v -0.025000 -0.014806 -0.021483
v -0.025000 -0.014136 -0.021255
v -0.025000 -0.013554 -0.020958
v -0.025000 -0.013063 -0.020595
v -0.025000 -0.012655 -0.020186
v -0.025000 -0.012291 -0.019678
v -0.025000 -0.012060 -0.019215
v -0.025000 -0.011712 -0.008496
v -0.025000 -0.012199 -0.007950
v -0.025000 -0.012684 -0.007558
v -0.025000 -0.012403 -0.015898
v -0.025000 -0.012121 -0.014133
v -0.025000 -0.012816 -0.015417
v -0.025000 -0.012684 -0.014562
v -0.025000 -0.013364 -0.014947
v -0.025000 -0.011899 -0.018687
v -0.025000 -0.011817 -0.018132
v -0.025000 -0.011808 -0.017838
v -0.025000 -0.011853 -0.017250
v -0.025000 -0.011971 -0.016757
v -0.025000 -0.012158 -0.016300
v -0.025000 -0.017865 -0.021750
v -0.025000 -0.016327 -0.021704
v -0.025000 -0.015130 -0.021559
v -0.024000 0.025000 -0.024000
v -0.024000 0.025000 -0.005000
v -0.021712 0.025000 -0.007000
v -0.007096 0.025000 -0.007000
v -0.009972 0.025000 -0.007000
v -0.005000 0.025000 0.024000
v 0.024000 0.025000 -0.005000
v 0.024000 0.025000 -0.024000
v -0.005000 0.025000 -0.005000
v 0.005000 0.025000 -0.024000
v -0.013154 0.025000 -0.022000
v -0.015651 0.025000 -0.022000
v -0.011138 0.025000 -0.010077
v -0.017673 0.025000 -0.010077
v -0.018839 0.025000 -0.007000
v -0.024000 0.025000 0.024000
v 0.024000 0.024988 -0.024156
v 0.005000 0.024988 -0.024156
v 0.024000 0.024951 -0.024309
v 0.005000 0.024951 -0.024309
v 0.024000 0.024891 -0.024454
v 0.005000 0.024891 -0.024454
v 0.024000 0.024809 -0.024588
v 0.005000 0.024809 -0.024588
v 0.024000 0.024707 -0.024707
v 0.005000 0.024707 -0.024707
v 0.024000 0.024588 -0.024809
v 0.005000 0.024588 -0.024809
v 0.024000 0.024454 -0.024891
v 0.005000 0.024454 -0.024891
v 0.024000 0.024309 -0.024951
v 0.005000 0.024309 -0.024951
v 0.024000 0.024156 -0.024988
v 0.005000 0.024156 -0.024988
v 0.024155 0.024156 -0.024976
v 0.024250 0.024951 -0.024182
v 0.024127 0.024988 -0.024092
v 0.024139 0.024988 -0.024071
v 0.024156 0.024988 -0.024000
v 0.024155 0.024988 -0.024024
v 0.024111 0.024988 -0.024111
v 0.024219 0.024951 -0.024219
v 0.024321 0.024891 -0.024321
v 0.024092 0.024988 -0.024127
v 0.024275 0.024951 -0.024140
v 0.024149 0.024988 -0.024048
v 0.024294 0.024951 -0.024095
v 0.024305 0.024951 -0.024048
v 0.024309 0.024951 -0.024000
v 0.024182 0.024951 -0.024250
v 0.024267 0.024891 -0.024367
v 0.024345 0.024809 -0.024476
v 0.024071 0.024988 -0.024139
v 0.024367 0.024891 -0.024267
v 0.024405 0.024891 -0.024206
v 0.024432 0.024891 -0.024140
v 0.024448 0.024891 -0.024071
v 0.024454 0.024891 -0.024000
v 0.024140 0.024951 -0.024275
v 0.024206 0.024891 -0.024405
v 0.024267 0.024809 -0.024524
v 0.024321 0.024707 -0.024630
v 0.024048 0.024988 -0.024149
v 0.024416 0.024809 -0.024416
v 0.024476 0.024809 -0.024345
v 0.024524 0.024809 -0.024267
v 0.024559 0.024809 -0.024182
v 0.024581 0.024809 -0.024092
v 0.024588 0.024809 -0.024000
v 0.024095 0.024951 -0.024294
v 0.024140 0.024891 -0.024432
v 0.024182 0.024809 -0.024559
v 0.024219 0.024707 -0.024673
v 0.024250 0.024588 -0.024769
v 0.024024 0.024988 -0.024155
v 0.024416 0.024707 -0.024572
v 0.024500 0.024707 -0.024500
v 0.024572 0.024707 -0.024416
v 0.024630 0.024707 -0.024321
v 0.024673 0.024707 -0.024219
v 0.024698 0.024707 -0.024111
v 0.024707 0.024707 -0.024000
v 0.024048 0.024951 -0.024305
v 0.024071 0.024891 -0.024448
v 0.024092 0.024809 -0.024581
v 0.024111 0.024707 -0.024698
v 0.024127 0.024588 -0.024799
v 0.024139 0.024454 -0.024880
v 0.024367 0.024588 -0.024721
v 0.024476 0.024588 -0.024655
v 0.024572 0.024588 -0.024572
v 0.024655 0.024588 -0.024476
v 0.024721 0.024588 -0.024367
v 0.024769 0.024588 -0.024250
v 0.024799 0.024588 -0.024127
v 0.024809 0.024588 -0.024000
v 0.024275 0.024454 -0.024847
v 0.024405 0.024454 -0.024794
v 0.024524 0.024454 -0.024721
v 0.024630 0.024454 -0.024630
v 0.024721 0.024454 -0.024524
v 0.024794 0.024454 -0.024405
v 0.024847 0.024454 -0.024275
v 0.024880 0.024454 -0.024139
v 0.024891 0.024454 -0.024000
v 0.024149 0.024309 -0.024939
v 0.024294 0.024309 -0.024905
v 0.024432 0.024309 -0.024847
v 0.024559 0.024309 -0.024769
v 0.024673 0.024309 -0.024673
v 0.024769 0.024309 -0.024559
v 0.024847 0.024309 -0.024432
v 0.024905 0.024309 -0.024294
v 0.024939 0.024309 -0.024149
v 0.024951 0.024309 -0.024000
v 0.024305 0.024156 -0.024939
v 0.024448 0.024156 -0.024880
v 0.024581 0.024156 -0.024799
v 0.024698 0.024156 -0.024698
v 0.024799 0.024156 -0.024581
v 0.024880 0.024156 -0.024448
v 0.024939 0.024156 -0.024305
v 0.024976 0.024156 -0.024155
v 0.024988 0.024156 -0.024000
v 0.024156 0.024000 -0.024988
v 0.024309 0.024000 -0.024951
v 0.024454 0.024000 -0.024891
v 0.024588 0.024000 -0.024809
v 0.024707 0.024000 -0.024707
v 0.024809 0.024000 -0.024588
v 0.024891 0.024000 -0.024454
v 0.024951 0.024000 -0.024309
v 0.024988 0.024000 -0.024156
v 0.024156 0.024988 -0.005000
v 0.024309 0.024951 -0.005000
v 0.024454 0.024891 -0.005000
v 0.024588 0.024809 -0.005000
v 0.024707 0.024707 -0.005000
v 0.024809 0.024588 -0.005000
v 0.024891 0.024454 -0.005000
v 0.024951 0.024309 -0.005000
v 0.024988 0.024156 -0.005000
v 0.024988 0.005000 -0.024156
v 0.024951 0.005000 -0.024309
v 0.024891 0.005000 -0.024454
v 0.024809 0.005000 -0.024588
v 0.024707 0.005000 -0.024707
v 0.024588 0.005000 -0.024809
v 0.024454 0.005000 -0.024891
v 0.024309 0.005000 -0.024951
v 0.024156 0.005000 -0.024988
v 0.005000 -0.024988 -0.024156
v 0.024000 -0.024988 -0.024156
v 0.005000 -0.024951 -0.024309
v 0.024000 -0.024951 -0.024309
v 0.005000 -0.024891 -0.024454
v 0.024000 -0.024891 -0.024454
v 0.005000 -0.024809 -0.024588
v 0.024000 -0.024809 -0.024588
v 0.005000 -0.024707 -0.024707
v 0.024000 -0.024707 -0.024707
v 0.005000 -0.024588 -0.024809
v 0.024000 -0.024588 -0.024809
v 0.005000 -0.024454 -0.024891
v 0.024000 -0.024454 -0.024891
v 0.005000 -0.024309 -0.024951
v 0.024000 -0.024309 -0.024951
v 0.005000 -0.024156 -0.024988
v 0.024000 -0.024156 -0.024988
v -0.024988 -0.005000 -0.024156
v -0.024988 -0.024000 -0.024156
v -0.024951 -0.005000 -0.024309
v -0.024951 -0.024000 -0.024309
v -0.024891 -0.005000 -0.024454
v -0.024891 -0.024000 -0.024454
v -0.024809 -0.005000 -0.024588
v -0.024809 -0.024000 -0.024588
v -0.024707 -0.005000 -0.024707
v -0.024707 -0.024000 -0.024707
v -0.024588 -0.005000 -0.024809
v -0.024588 -0.024000 -0.024809
v -0.024454 -0.005000 -0.024891
v -0.024454 -0.024000 -0.024891
v -0.024309 -0.005000 -0.024951
v -0.024309 -0.024000 -0.024951
v -0.024156 -0.005000 -0.024988
v -0.024156 -0.024000 -0.024988
v -0.024988 0.024156 -0.005000
v -0.024988 0.024156 -0.024000
v -0.024951 0.024309 -0.005000
v -0.024951 0.024309 -0.024000
v -0.024891 0.024454 -0.005000
v -0.024891 0.024454 -0.024000
v -0.024809 0.024588 -0.005000
v -0.024809 0.024588 -0.024000
v -0.024707 0.024707 -0.005000
v -0.024707 0.024707 -0.024000
v -0.024588 0.024809 -0.005000
v -0.024588 0.024809 -0.024000
v -0.024454 0.024891 -0.005000
v -0.024454 0.024891 -0.024000
v -0.024309 0.024951 -0.005000
v -0.024309 0.024951 -0.024000
v -0.024156 0.024988 -0.005000
v -0.024156 0.024988 -0.024000
v -0.024000 0.024988 0.024156
v -0.005000 0.024988 0.024156
v -0.024000 0.024951 0.024309
v -0.005000 0.024951 0.024309
v -0.024000 0.024891 0.024454
v -0.005000 0.024891 0.024454
v -0.024000 0.024809 0.024588
v -0.005000 0.024809 0.024588
v -0.024000 0.024707 0.024707
v -0.005000 0.024707 0.024707
v -0.024000 0.024588 0.024809
v -0.005000 0.024588 0.024809
v -0.024000 0.024454 0.024891
v -0.005000 0.024454 0.024891
v -0.024000 0.024309 0.024951
v -0.005000 0.024309 0.024951
v -0.024000 0.024156 0.024988
v -0.005000 0.024156 0.024988
v -0.024000 0.024000 0.025000
v -0.005000 0.024000 0.025000
v 0.024988 0.024000 0.024156
v 0.024988 0.005000 0.024156
v 0.024951 0.024000 0.024309
v 0.024951 0.005000 0.024309
v 0.024891 0.024000 0.024454
v 0.024891 0.005000 0.024454
v 0.024809 0.024000 0.024588
v 0.024809 0.005000 0.024588
v 0.024707 0.024000 0.024707
v 0.024707 0.005000 0.024707
v 0.024588 0.024000 0.024809
v 0.024588 0.005000 0.024809
v 0.024454 0.024000 0.024891
v 0.024454 0.005000 0.024891
v 0.024309 0.024000 0.024951
v 0.024309 0.005000 0.024951
v 0.024156 0.024000 0.024988
v 0.024156 0.005000 0.024988
v 0.024000 0.024000 0.025000
v 0.024000 0.005000 0.025000
v 0.024988 -0.024156 0.024000
v 0.024988 -0.024156 0.005000
v 0.024951 -0.024309 0.024000
v 0.024951 -0.024309 0.005000
v 0.024891 -0.024454 0.024000
v 0.024891 -0.024454 0.005000
v 0.024809 -0.024588 0.024000
v 0.024809 -0.024588 0.005000
v 0.024707 -0.024707 0.024000
v 0.024707 -0.024707 0.005000
v 0.024588 -0.024809 0.024000
v 0.024588 -0.024809 0.005000
v 0.024454 -0.024891 0.024000
v 0.024454 -0.024891 0.005000
v 0.024309 -0.024951 0.024000
v 0.024309 -0.024951 0.005000
v 0.024156 -0.024988 0.024000
v 0.024156 -0.024988 0.005000
v -0.024156 -0.024988 0.024000
v -0.024156 -0.024988 0.005000
v -0.024309 -0.024951 0.024000
v -0.024309 -0.024951 0.005000
v -0.024454 -0.024891 0.024000
v -0.024454 -0.024891 0.005000
v -0.024588 -0.024809 0.024000
v -0.024588 -0.024809 0.005000
v -0.024707 -0.024707 0.024000
v -0.024707 -0.024707 0.005000
v -0.024809 -0.024588 0.024000
v -0.024809 -0.024588 0.005000
v -0.024891 -0.024454 0.024000
v -0.024891 -0.024454 0.005000
v -0.024951 -0.024309 0.024000
v -0.024951 -0.024309 0.005000
v -0.024988 -0.024156 0.024000
v -0.024988 -0.024156 0.005000
v -0.024988 -0.024000 0.024156
v -0.024988 -0.005000 0.024156
v -0.024951 -0.024000 0.024309
v -0.024951 -0.005000 0.024309
v -0.024891 -0.024000 0.024454
v -0.024891 -0.005000 0.024454
v -0.024809 -0.024000 0.024588
v -0.024809 -0.005000 0.024588
v -0.024707 -0.024000 0.024707
v -0.024707 -0.005000 0.024707
v -0.024588 -0.024000 0.024809
v -0.024588 -0.005000 0.024809
v -0.024454 -0.024000 0.024891
v -0.024454 -0.005000 0.024891
v -0.024309 -0.024000 0.024951
v -0.024309 -0.005000 0.024951
v -0.024156 -0.024000 0.024988
v -0.024156 -0.005000 0.024988
v -0.024000 -0.024000 0.025000
v -0.024000 -0.005000 0.025000
v -0.024000 -0.024000 0.025000
v -0.024156 -0.024155 0.024976
v -0.024951 -0.024250 0.024182
v -0.024988 -0.024127 0.024092
v -0.024988 -0.024139 0.024071
v -0.024988 -0.024155 0.024024
v -0.024988 -0.024111 0.024111
v -0.024951 -0.024219 0.024219
v -0.024891 -0.024321 0.024321
v -0.024988 -0.024092 0.024127
v -0.024951 -0.024275 0.024140
v -0.024988 -0.024149 0.024048
v -0.024951 -0.024294 0.024095
v -0.024951 -0.024305 0.024048
v -0.024951 -0.024182 0.024250
v -0.024891 -0.024267 0.024367
v -0.024809 -0.024345 0.024476
v -0.024988 -0.024071 0.024139
v -0.024891 -0.024367 0.024267
v -0.024891 -0.024405 0.024206
v -0.024891 -0.024432 0.024140
v -0.024891 -0.024448 0.024071
v -0.024951 -0.024140 0.024275
v -0.024891 -0.024206 0.024405
v -0.024809 -0.024267 0.024524
v -0.024707 -0.024321 0.024630
v -0.024988 -0.024048 0.024149
v -0.024809 -0.024416 0.024416
v -0.024809 -0.024476 0.024345
v -0.024809 -0.024524 0.024267
v -0.024809 -0.024559 0.024182
v -0.024809 -0.024581 0.024092
v -0.024951 -0.024095 0.024294
v -0.024891 -0.024140 0.024432
v -0.024809 -0.024182 0.024559
v -0.024707 -0.024219 0.024672
v -0.024588 -0.024250 0.024769
v -0.024988 -0.024024 0.024155
v -0.024707 -0.024416 0.024572
v -0.024707 -0.024500 0.024500
v -0.024707 -0.024572 0.024416
v -0.024707 -0.024630 0.024321
v -0.024707 -0.024672 0.024219
v -0.024707 -0.024698 0.024111
v -0.024951 -0.024048 0.024305
v -0.024891 -0.024071 0.024448
v -0.024809 -0.024092 0.024581
v -0.024707 -0.024111 0.024698
v -0.024588 -0.024127 0.024799
v -0.024454 -0.024139 0.024880
v -0.024588 -0.024367 0.024721
v -0.024588 -0.024476 0.024655
v -0.024588 -0.024572 0.024572
v -0.024588 -0.024655 0.024476
v -0.024588 -0.024721 0.024367
v -0.024588 -0.024769 0.024250
v -0.024588 -0.024799 0.024127
v -0.024454 -0.024275 0.024847
v -0.024454 -0.024405 0.024794
v -0.024454 -0.024524 0.024721
v -0.024454 -0.024630 0.024630
v -0.024454 -0.024721 0.024524
v -0.024454 -0.024794 0.024405
v -0.024454 -0.024847 0.024275
v -0.024454 -0.024880 0.024139
v -0.024309 -0.024149 0.024939
v -0.024309 -0.024294 0.024905
v -0.024309 -0.024432 0.024847
v -0.024309 -0.024559 0.024769
v -0.024309 -0.024672 0.024672
v -0.024309 -0.024769 0.024559
v -0.024309 -0.024847 0.024432
v -0.024309 -0.024905 0.024294
v -0.024309 -0.024939 0.024149
v -0.024156 -0.024305 0.024939
v -0.024156 -0.024448 0.024880
v -0.024156 -0.024581 0.024799
v -0.024156 -0.024698 0.024698
v -0.024156 -0.024799 0.024581
v -0.024156 -0.024880 0.024448
v -0.024156 -0.024939 0.024305
v -0.024156 -0.024976 0.024155
v -0.024000 -0.024156 0.024988
v -0.024000 -0.024309 0.024951
v -0.024000 -0.024454 0.024891
v -0.024000 -0.024588 0.024809
v -0.024000 -0.024707 0.024707
v -0.024000 -0.024809 0.024588
v -0.024000 -0.024891 0.024454
v -0.024000 -0.024951 0.024309
v -0.024000 -0.024988 0.024156
v -0.005000 -0.024988 0.024156
v -0.005000 -0.024951 0.024309
v -0.005000 -0.024891 0.024454
v -0.005000 -0.024809 0.024588
v -0.005000 -0.024707 0.024707
v -0.005000 -0.024588 0.024809
v -0.005000 -0.024454 0.024891
v -0.005000 -0.024309 0.024951
v -0.005000 -0.024156 0.024988
v -0.005000 -0.024000 0.025000
v -0.021712 0.023000 -0.007000
v -0.015651 0.023000 -0.022000
v -0.013154 0.023000 -0.022000
v -0.007096 0.023000 -0.007000
v -0.009972 0.023000 -0.007000
v -0.011138 0.023000 -0.010077
v -0.017673 0.023000 -0.010077
v -0.018839 0.023000 -0.007000
v -0.016651 0.023000 -0.012769
v -0.012156 0.023000 -0.012769
v -0.014404 0.023000 -0.017977
v -0.012156 0.025000 -0.012769
v -0.014404 0.025000 -0.017977
v -0.016651 0.025000 -0.012769
v -0.023000 -0.016050 -0.006750
v -0.023000 -0.020269 -0.006750
v -0.023000 -0.020269 -0.021750
v -0.023000 -0.017865 -0.021750
v -0.023000 -0.014806 -0.021483
v -0.023000 -0.015130 -0.021559
v -0.023000 -0.016327 -0.021704
v -0.023000 -0.011808 -0.017838
v -0.023000 -0.011817 -0.018132
v -0.023000 -0.011899 -0.018687
v -0.023000 -0.012060 -0.019215
v -0.023000 -0.012291 -0.019678
v -0.023000 -0.012655 -0.020186
v -0.023000 -0.013063 -0.020595
v -0.023000 -0.013554 -0.020958
v -0.023000 -0.014136 -0.021255
v -0.023000 -0.013364 -0.014947
v -0.023000 -0.012816 -0.015417
v -0.023000 -0.012403 -0.015898
v -0.023000 -0.012158 -0.016300
v -0.023000 -0.011971 -0.016757
v -0.023000 -0.011853 -0.017250
v -0.023000 -0.010846 -0.011092
v -0.023000 -0.010848 -0.011203
v -0.023000 -0.010927 -0.012005
v -0.023000 -0.011095 -0.012618
v -0.023000 -0.011346 -0.013171
v -0.023000 -0.011697 -0.013691
v -0.023000 -0.012121 -0.014133
v -0.023000 -0.012684 -0.014562
v -0.023000 -0.014836 -0.006817
v -0.023000 -0.013899 -0.006996
v -0.023000 -0.013265 -0.007226
v -0.023000 -0.012684 -0.007558
v -0.023000 -0.012199 -0.007950
v -0.023000 -0.011712 -0.008496
v -0.023000 -0.011327 -0.009106
v -0.023000 -0.011074 -0.009689
v -0.023000 -0.010915 -0.010299
v -0.023000 -0.017577 -0.013288
v -0.023000 -0.014560 -0.017928
v -0.023000 -0.014519 -0.017740
v -0.023000 -0.014500 -0.017477
v -0.023000 -0.014623 -0.016825
v -0.023000 -0.014736 -0.016614
v -0.023000 -0.014873 -0.016435
v -0.023000 -0.014514 -0.017266
v -0.023000 -0.014550 -0.017042
v -0.023000 -0.015051 -0.016267
v -0.023000 -0.015271 -0.016116
v -0.023000 -0.015645 -0.013200
v -0.023000 -0.015533 -0.015992
v -0.023000 -0.015880 -0.015887
v -0.023000 -0.016342 -0.015811
v -0.023000 -0.016810 -0.013287
v -0.023000 -0.016862 -0.015788
v -0.023000 -0.016934 -0.013288
v -0.023000 -0.015033 -0.018616
v -0.023000 -0.014875 -0.018474
v -0.023000 -0.014747 -0.018317
v -0.023000 -0.014632 -0.018117
v -0.023000 -0.014975 -0.013043
v -0.023000 -0.014581 -0.012881
v -0.023000 -0.014304 -0.012711
v -0.023000 -0.014017 -0.012460
v -0.023000 -0.013852 -0.012259
v -0.023000 -0.013730 -0.012058
v -0.023000 -0.013626 -0.011797
v -0.023000 -0.013560 -0.011514
v -0.023000 -0.013538 -0.011197
v -0.023000 -0.013547 -0.010996
v -0.023000 -0.013595 -0.010732
v -0.023000 -0.013659 -0.010543
v -0.023000 -0.013776 -0.010320
v -0.023000 -0.013891 -0.010165
v -0.023000 -0.014051 -0.010012
v -0.023000 -0.014258 -0.009858
v -0.023000 -0.014493 -0.009743
v -0.023000 -0.014956 -0.009600
v -0.023000 -0.015748 -0.009483
v -0.023000 -0.016802 -0.009442
v -0.023000 -0.017577 -0.009442
v -0.023000 -0.017577 -0.015788
v -0.023000 -0.017577 -0.019058
v -0.023000 -0.016733 -0.019058
v -0.023000 -0.016539 -0.019055
v -0.023000 -0.015873 -0.018980
v -0.023000 -0.015549 -0.018894
v -0.023000 -0.015237 -0.018751
v -0.023000 -0.015235 -0.018750
v -0.025000 -0.016733 -0.019058
v -0.025000 -0.017577 -0.019058
v -0.025000 -0.016539 -0.019055
v -0.025000 -0.015873 -0.018980
v -0.025000 -0.015549 -0.018894
v -0.025000 -0.015237 -0.018751
v -0.025000 -0.015235 -0.018750
v -0.025000 -0.015033 -0.018616
v -0.025000 -0.014875 -0.018474
v -0.025000 -0.014747 -0.018317
v -0.025000 -0.014632 -0.018117
v -0.025000 -0.014560 -0.017928
v -0.025000 -0.014519 -0.017740
v -0.025000 -0.014500 -0.017477
v -0.025000 -0.014514 -0.017266
v -0.025000 -0.014550 -0.017042
v -0.025000 -0.014623 -0.016825
v -0.025000 -0.014736 -0.016614
v -0.025000 -0.014873 -0.016435
v -0.025000 -0.015051 -0.016267
v -0.025000 -0.015271 -0.016116
v -0.025000 -0.015533 -0.015992
v -0.025000 -0.015880 -0.015887
v -0.025000 -0.016342 -0.015811
v -0.025000 -0.016862 -0.015788
v -0.025000 -0.017577 -0.015788
v -0.025000 -0.016934 -0.013288
v -0.025000 -0.017577 -0.013288
v -0.025000 -0.016810 -0.013287
v -0.025000 -0.015645 -0.013200
v -0.025000 -0.014975 -0.013043
v -0.025000 -0.014581 -0.012881
v -0.025000 -0.014304 -0.012711
v -0.025000 -0.014017 -0.012460
v -0.025000 -0.013852 -0.012259
v -0.025000 -0.013730 -0.012058
v -0.025000 -0.013626 -0.011797
v -0.025000 -0.013560 -0.011514
v -0.025000 -0.013538 -0.011197
v -0.025000 -0.013547 -0.010996
v -0.025000 -0.013595 -0.010732
v -0.025000 -0.013659 -0.010543
v -0.025000 -0.013776 -0.010320
v -0.025000 -0.013891 -0.010165
v -0.025000 -0.014051 -0.010012
v -0.025000 -0.014258 -0.009858
v -0.025000 -0.014493 -0.009743
v -0.025000 -0.014956 -0.009600
v -0.025000 -0.015748 -0.009483
v -0.025000 -0.016802 -0.009442
v -0.025000 -0.017577 -0.009442
v -0.006808 0.018398 0.023000
v -0.007507 0.019132 0.023000
v -0.008526 0.019943 0.023000
v -0.009553 0.020534 0.023000
v -0.010767 0.021015 0.023000
v -0.011946 0.021289 0.023000
v -0.013208 0.021385 0.023000
v -0.008782 0.016511 0.023000
v -0.013313 0.018692 0.023000
v -0.013068 0.018684 0.023000
v -0.012185 0.018580 0.023000
v -0.011297 0.018312 0.023000
v -0.010501 0.017923 0.023000
v -0.009637 0.017323 0.023000
v -0.018346 0.013530 0.023000
v -0.018327 0.014003 0.023000
v -0.018207 0.014818 0.023000
v -0.017963 0.015588 0.023000
v -0.017578 0.016338 0.023000
v -0.017105 0.016971 0.023000
v -0.016850 0.017244 0.023000
v -0.016253 0.017761 0.023000
v -0.015607 0.018163 0.023000
v -0.014941 0.018442 0.023000
v -0.014206 0.018622 0.023000
v -0.013262 0.008308 0.023000
v -0.014191 0.008381 0.023000
v -0.014975 0.008574 0.023000
v -0.015728 0.008895 0.023000
v -0.016379 0.009305 0.023000
v -0.016948 0.009800 0.023000
v -0.017385 0.010327 0.023000
v -0.017808 0.011034 0.023000
v -0.018089 0.011749 0.023000
v -0.018283 0.012606 0.023000
v -0.008782 0.010489 0.023000
v -0.009151 0.010127 0.023000
v -0.010088 0.009336 0.023000
v -0.010865 0.008850 0.023000
v -0.011541 0.008571 0.023000
v -0.012305 0.008384 0.023000
v -0.006868 0.008479 0.023000
v -0.013250 0.005615 0.023000
v -0.012590 0.005635 0.023000
v -0.011235 0.005825 0.023000
v -0.010142 0.006159 0.023000
v -0.009203 0.006619 0.023000
v -0.008004 0.007457 0.023000
v -0.021038 0.013524 0.023000
v -0.021009 0.012733 0.023000
v -0.020823 0.011466 0.023000
v -0.020452 0.010270 0.023000
v -0.019934 0.009218 0.023000
v -0.019290 0.008314 0.023000
v -0.018731 0.007710 0.023000
v -0.017832 0.006964 0.023000
v -0.016778 0.006351 0.023000
v -0.015702 0.005944 0.023000
v -0.014491 0.005693 0.023000
v -0.013769 0.021365 0.023000
v -0.015010 0.021185 0.023000
v -0.016158 0.020827 0.023000
v -0.017366 0.020225 0.023000
v -0.018371 0.019511 0.023000
v -0.018947 0.018981 0.023000
v -0.019702 0.018064 0.023000
v -0.020296 0.017032 0.023000
v -0.020704 0.015962 0.023000
v -0.020958 0.014759 0.023000
v 0.023000 0.007000 0.020269
v 0.023000 0.022000 0.020269
v 0.023000 0.022000 0.016877
v 0.023000 0.014290 0.008346
v 0.023000 0.014930 0.008363
v 0.023000 0.016259 0.008534
v 0.023000 0.017432 0.008861
v 0.023000 0.018485 0.009341
v 0.023000 0.019557 0.010050
v 0.023000 0.020259 0.010690
v 0.023000 0.020813 0.011375
v 0.023000 0.021239 0.012108
v 0.023000 0.021549 0.012927
v 0.023000 0.021804 0.014072
v 0.023000 0.021970 0.015675
v 0.023000 0.007000 0.016826
v 0.023000 0.007044 0.015015
v 0.023000 0.007217 0.013363
v 0.023000 0.007425 0.012543
v 0.023000 0.007747 0.011810
v 0.023000 0.008220 0.011077
v 0.023000 0.008890 0.010318
v 0.023000 0.009648 0.009696
v 0.023000 0.010555 0.009165
v 0.023000 0.011829 0.008677
v 0.023000 0.013089 0.008419
v 0.023000 0.018802 0.013541
v 0.023000 0.019035 0.014212
v 0.023000 0.019243 0.015324
v 0.023000 0.019308 0.016549
v 0.023000 0.019308 0.017577
v 0.023000 0.009692 0.017577
v 0.023000 0.009692 0.016171
v 0.023000 0.009717 0.015252
v 0.023000 0.009836 0.014201
v 0.023000 0.010003 0.013520
v 0.023000 0.010184 0.013092
v 0.023000 0.010459 0.012661
v 0.023000 0.010817 0.012259
v 0.023000 0.011245 0.011907
v 0.023000 0.011788 0.011579
v 0.023000 0.012446 0.011306
v 0.023000 0.013166 0.011132
v 0.023000 0.014232 0.011040
v 0.023000 0.014338 0.011038
v 0.023000 0.015370 0.011108
v 0.023000 0.016209 0.011296
v 0.023000 0.016894 0.011564
v 0.023000 0.017466 0.011902
v 0.023000 0.018106 0.012454
v 0.023000 0.018488 0.012942
v 0.025000 0.019308 0.016549
v 0.025000 0.019308 0.017577
v 0.025000 0.019243 0.015324
v 0.025000 0.019035 0.014212
v 0.025000 0.018802 0.013541
v 0.025000 0.018488 0.012942
v 0.025000 0.018106 0.012454
v 0.025000 0.017466 0.011902
v 0.025000 0.016894 0.011564
v 0.025000 0.016209 0.011296
v 0.025000 0.015370 0.011108
v 0.025000 0.014338 0.011038
v 0.025000 0.014232 0.011040
v 0.025000 0.013166 0.011132
v 0.025000 0.012446 0.011306
v 0.025000 0.011788 0.011579
v 0.025000 0.011245 0.011907
v 0.025000 0.010817 0.012259
v 0.025000 0.010459 0.012661
v 0.025000 0.010184 0.013092
v 0.025000 0.010003 0.013520
v 0.025000 0.009836 0.014201
v 0.025000 0.009717 0.015252
v 0.025000 0.009692 0.016171
v 0.025000 0.009692 0.017577
v 0.006750 -0.023000 0.020269
v 0.021750 -0.023000 0.020269
v 0.021750 -0.023000 0.012192
v 0.019058 -0.023000 0.012192
v 0.019058 -0.023000 0.017577
v 0.016173 -0.023000 0.017577
v 0.016173 -0.023000 0.012192
v 0.013481 -0.023000 0.012192
v 0.013481 -0.023000 0.017577
v 0.009442 -0.023000 0.017577
v 0.009442 -0.023000 0.012192
v 0.006750 -0.023000 0.012192
v 0.006750 -0.020269 -0.023000
v 0.021750 -0.020269 -0.023000
v 0.021750 -0.012962 -0.023000
v 0.019058 -0.012962 -0.023000
v 0.019058 -0.017577 -0.023000
v 0.016173 -0.017577 -0.023000
v 0.016173 -0.012962 -0.023000
v 0.013481 -0.012962 -0.023000
v 0.013481 -0.017577 -0.023000
v 0.006750 -0.017577 -0.023000
v -0.005000 0.024000 -0.005000
v -0.024000 -0.005000 -0.005000
v -0.024000 0.024000 0.025000
v -0.005000 0.005000 0.024000
v 0.024000 0.005000 0.005000
v 0.005000 -0.024000 0.005000
v 0.005000 -0.005000 -0.024000
vn -0.0000 -0.0000 -1.0000
vn -0.0000 -1.0000 -0.0000
vn 1.0000 -0.0000 -0.0000
vn -0.0000 -0.0000 1.0000
vn -1.0000 -0.0000 -0.0000
vn -0.0000 1.0000 -0.0000
vn -0.0000 0.9969 -0.0784
vn -0.0000 0.9724 -0.2334
vn -0.0000 0.9239 -0.3827
vn -0.0000 0.8526 -0.5225
vn -0.0000 0.8527 -0.5225
vn -0.0000 0.7604 -0.6495
vn -0.0000 0.7604 -0.6494
vn -0.0000 0.6494 -0.7604
vn -0.0000 0.6495 -0.7604
vn -0.0000 0.5225 -0.8526
vn -0.0000 0.5225 -0.8527
vn -0.0000 0.3827 -0.9239
vn -0.0000 0.2334 -0.9724
vn -0.0000 0.2335 -0.9724
vn -0.0000 0.0784 -0.9969
vn 0.0782 0.0782 -0.9939
vn 0.1996 0.9722 -0.1224
vn 0.0785 0.9969 -0.0062
vn 0.0670 0.9969 -0.0411
vn 0.0599 0.9969 -0.0511
vn 0.1781 0.9722 -0.1521
vn 0.1780 0.9722 -0.1520
vn 0.2918 0.9234 -0.2492
vn 0.0512 0.9969 -0.0598
vn 0.2163 0.9722 -0.0896
vn 0.2277 0.9722 -0.0547
vn 0.2276 0.9722 -0.0546
vn 0.2334 0.9722 -0.0184
vn 0.1523 0.9722 -0.1781
vn 0.1520 0.9722 -0.1780
vn 0.2492 0.9235 -0.2918
vn 0.3400 0.8520 -0.3982
vn 0.0410 0.9969 -0.0671
vn 0.3272 0.9235 -0.2005
vn 0.3545 0.9235 -0.1468
vn 0.3732 0.9234 -0.0897
vn 0.3731 0.9235 -0.0896
vn 0.3825 0.9235 -0.0301
vn 0.3826 0.9234 -0.0301
vn 0.1222 0.9722 -0.1996
vn 0.1223 0.9722 -0.1996
vn 0.2004 0.9235 -0.3271
vn 0.2005 0.9234 -0.3272
vn 0.2735 0.8519 -0.4465
vn 0.2737 0.8519 -0.4465
vn 0.3399 0.7594 -0.5548
vn 0.0303 0.9969 -0.0727
vn 0.3983 0.8519 -0.3401
vn 0.4464 0.8519 -0.2737
vn 0.4466 0.8519 -0.2736
vn 0.4838 0.8519 -0.2004
vn 0.4838 0.8520 -0.2003
vn 0.5092 0.8519 -0.1223
vn 0.5092 0.8519 -0.1222
vn 0.5221 0.8519 -0.0411
vn 0.5220 0.8519 -0.0411
vn 0.0895 0.9722 -0.2163
vn 0.0897 0.9722 -0.2163
vn 0.1469 0.9235 -0.3545
vn 0.1467 0.9235 -0.3545
vn 0.2003 0.8519 -0.4838
vn 0.2005 0.8519 -0.4838
vn 0.2489 0.7594 -0.6011
vn 0.2490 0.7595 -0.6010
vn 0.2914 0.6483 -0.7034
vn 0.0180 0.9969 -0.0765
vn 0.4225 0.7594 -0.4947
vn 0.4946 0.7594 -0.4226
vn 0.4947 0.7594 -0.4225
vn 0.5547 0.7594 -0.3399
vn 0.5547 0.7595 -0.3399
vn 0.6011 0.7594 -0.2490
vn 0.6327 0.7594 -0.1519
vn 0.6326 0.7594 -0.1519
vn 0.6486 0.7594 -0.0511
vn 0.6486 0.7594 -0.0510
vn 0.0549 0.9722 -0.2277
vn 0.0544 0.9722 -0.2277
vn 0.0896 0.9235 -0.3731
vn 0.0895 0.9234 -0.3732
vn 0.1223 0.8519 -0.5092
vn 0.1222 0.8519 -0.5092
vn 0.1518 0.7594 -0.6326
vn 0.1519 0.7594 -0.6326
vn 0.1777 0.6482 -0.7404
vn 0.1777 0.6483 -0.7404
vn 0.1992 0.5213 -0.8298
vn 0.0062 0.9969 -0.0784
vn 0.3978 0.6483 -0.6492
vn 0.4944 0.6483 -0.5790
vn 0.4945 0.6483 -0.5789
vn 0.5790 0.6483 -0.4945
vn 0.6492 0.6483 -0.3978
vn 0.6492 0.6483 -0.3979
vn 0.7034 0.6483 -0.2914
vn 0.7035 0.6483 -0.2914
vn 0.7404 0.6483 -0.1777
vn 0.7591 0.6483 -0.0597
vn 0.7591 0.6483 -0.0598
vn 0.0185 0.9722 -0.2334
vn 0.0183 0.9722 -0.2334
vn 0.0301 0.9235 -0.3825
vn 0.0410 0.8520 -0.5220
vn 0.0411 0.8519 -0.5221
vn 0.0511 0.7594 -0.6486
vn 0.0510 0.7594 -0.6486
vn 0.0597 0.6483 -0.7591
vn 0.0598 0.6483 -0.7590
vn 0.0670 0.5213 -0.8507
vn 0.0725 0.3817 -0.9214
vn 0.3266 0.5213 -0.7884
vn 0.4459 0.5213 -0.7276
vn 0.5542 0.5213 -0.6489
vn 0.6489 0.5213 -0.5542
vn 0.7276 0.5213 -0.4459
vn 0.7884 0.5213 -0.3265
vn 0.7884 0.5213 -0.3266
vn 0.8298 0.5213 -0.1992
vn 0.8507 0.5213 -0.0669
vn 0.8507 0.5213 -0.0670
vn 0.2158 0.3817 -0.8987
vn 0.3537 0.3817 -0.8539
vn 0.3537 0.3816 -0.8540
vn 0.4830 0.3816 -0.7881
vn 0.4830 0.3817 -0.7881
vn 0.6003 0.3816 -0.7029
vn 0.6002 0.3817 -0.7029
vn 0.7029 0.3817 -0.6003
vn 0.7028 0.3817 -0.6003
vn 0.7881 0.3817 -0.4829
vn 0.7881 0.3817 -0.4830
vn 0.8540 0.3817 -0.3537
vn 0.8539 0.3817 -0.3537
vn 0.8987 0.3817 -0.2158
vn 0.9214 0.3817 -0.0725
vn 0.0763 0.2327 -0.9696
vn 0.2270 0.2328 -0.9457
vn 0.3722 0.2328 -0.8985
vn 0.5081 0.2327 -0.8293
vn 0.5082 0.2328 -0.8292
vn 0.6316 0.2327 -0.7395
vn 0.6316 0.2328 -0.7395
vn 0.7395 0.2328 -0.6316
vn 0.8292 0.2327 -0.5081
vn 0.8292 0.2328 -0.5081
vn 0.8985 0.2328 -0.3722
vn 0.9457 0.2328 -0.2270
vn 0.9457 0.2327 -0.2270
vn 0.9695 0.2328 -0.0763
vn 0.9695 0.2327 -0.0763
vn 0.2327 0.0782 -0.9694
vn 0.3816 0.0782 -0.9210
vn 0.3815 0.0782 -0.9211
vn 0.5209 0.0782 -0.8500
vn 0.5209 0.0783 -0.8500
vn 0.6474 0.0782 -0.7581
vn 0.6475 0.0783 -0.7581
vn 0.7581 0.0782 -0.6474
vn 0.7580 0.0782 -0.6475
vn 0.8500 0.0782 -0.5209
vn 0.9210 0.0782 -0.3815
vn 0.9211 0.0782 -0.3815
vn 0.9694 0.0783 -0.2327
vn 0.9694 0.0782 -0.2327
vn 0.9939 0.0782 -0.0783
vn 0.9939 0.0782 -0.0782
vn 0.0765 0.9969 -0.0184
vn 0.0763 0.2328 -0.9695
vn 0.0725 0.3817 -0.9215
vn 0.2158 0.3817 -0.8988
vn 0.3265 0.5213 -0.7884
vn 0.3399 0.7594 -0.5547
vn 0.3402 0.8519 -0.3982
vn 0.3981 0.8520 -0.3401
vn 0.2918 0.9235 -0.2492
vn 0.3272 0.9234 -0.2005
vn 0.2164 0.9722 -0.0896
vn 0.0727 0.9969 -0.0301
vn 0.0784 0.9969 -0.0000
vn 0.2335 0.9724 -0.0000
vn 0.2334 0.9724 -0.0000
vn 0.3827 0.9239 -0.0000
vn 0.5225 0.8527 -0.0000
vn 0.5225 0.8526 -0.0000
vn 0.6495 0.7604 -0.0000
vn 0.6494 0.7604 -0.0000
vn 0.7604 0.6494 -0.0000
vn 0.8526 0.5225 -0.0000
vn 0.9239 0.3827 -0.0000
vn 0.9724 0.2334 -0.0000
vn 0.9969 0.0784 -0.0000
vn 0.9969 -0.0000 -0.0784
vn 0.9724 -0.0000 -0.2335
vn 0.9724 -0.0000 -0.2334
vn 0.9239 -0.0000 -0.3827
vn 0.8527 -0.0000 -0.5225
vn 0.8526 -0.0000 -0.5225
vn 0.7604 -0.0000 -0.6495
vn 0.7604 -0.0000 -0.6494
vn 0.6494 -0.0000 -0.7604
vn 0.5225 -0.0000 -0.8526
vn 0.3827 -0.0000 -0.9239
vn 0.2334 -0.0000 -0.9724
vn 0.0784 -0.0000 -0.9969
vn -0.0000 -0.9969 -0.0785
vn -0.0000 -0.9724 -0.2334
vn -0.0000 -0.9724 -0.2335
vn -0.0000 -0.9239 -0.3827
vn -0.0000 -0.8526 -0.5225
vn -0.0000 -0.8527 -0.5225
vn -0.0000 -0.7604 -0.6495
vn -0.0000 -0.7604 -0.6494
vn -0.0000 -0.6494 -0.7604
vn -0.0000 -0.6495 -0.7604
vn -0.0000 -0.5225 -0.8526
vn -0.0000 -0.3827 -0.9239
vn -0.0000 -0.2334 -0.9724
vn -0.0000 -0.2335 -0.9724
vn -0.0000 -0.0784 -0.9969
vn -0.9969 -0.0000 -0.0785
vn -0.9724 -0.0000 -0.2334
vn -0.9239 -0.0000 -0.3827
vn -0.8527 -0.0000 -0.5225
vn -0.7604 -0.0000 -0.6495
vn -0.6494 -0.0000 -0.7604
vn -0.5225 -0.0000 -0.8526
vn -0.3827 -0.0000 -0.9239
vn -0.2334 -0.0000 -0.9724
vn -0.0784 -0.0000 -0.9969
vn -0.9969 0.0785 -0.0000
vn -0.9724 0.2334 -0.0000
vn -0.9724 0.2335 -0.0000
vn -0.9239 0.3827 -0.0000
vn -0.8526 0.5225 -0.0000
vn -0.8527 0.5225 -0.0000
vn -0.7604 0.6495 -0.0000
vn -0.7604 0.6494 -0.0000
vn -0.6494 0.7604 -0.0000
vn -0.6495 0.7604 -0.0000
vn -0.5225 0.8526 -0.0000
vn -0.3827 0.9239 -0.0000
vn -0.2334 0.9724 -0.0000
vn -0.2335 0.9724 -0.0000
vn -0.0784 0.9969 -0.0000
vn -0.0000 0.9969 0.0784
vn -0.0000 0.9724 0.2334
vn -0.0000 0.9239 0.3827
vn -0.0000 0.8526 0.5225
vn -0.0000 0.7604 0.6494
vn -0.0000 0.6494 0.7604
vn -0.0000 0.5225 0.8526
vn -0.0000 0.3827 0.9239
vn -0.0000 0.2334 0.9724
vn -0.0000 0.0785 0.9969
vn 0.9969 -0.0000 0.0784
vn 0.9724 -0.0000 0.2335
vn 0.9724 -0.0000 0.2334
vn 0.9239 -0.0000 0.3827
vn 0.8526 -0.0000 0.5225
vn 0.7604 -0.0000 0.6495
vn 0.7604 -0.0000 0.6494
vn 0.6494 -0.0000 0.7604
vn 0.6495 -0.0000 0.7604
vn 0.5225 -0.0000 0.8526
vn 0.3827 -0.0000 0.9239
vn 0.2335 -0.0000 0.9724
vn 0.2334 -0.0000 0.9724
vn 0.0785 -0.0000 0.9969
vn 0.9969 -0.0784 -0.0000
vn 0.9724 -0.2334 -0.0000
vn 0.9239 -0.3827 -0.0000
vn 0.8526 -0.5225 -0.0000
vn 0.7604 -0.6494 -0.0000
vn 0.6495 -0.7604 -0.0000
vn 0.5225 -0.8526 -0.0000
vn 0.3827 -0.9239 -0.0000
vn 0.2334 -0.9724 -0.0000
vn 0.0785 -0.9969 -0.0000
vn -0.0785 -0.9969 -0.0000
vn -0.2335 -0.9724 -0.0000
vn -0.3827 -0.9239 -0.0000
vn -0.5225 -0.8526 -0.0000
vn -0.6495 -0.7604 -0.0000
vn -0.7604 -0.6495 -0.0000
vn -0.8526 -0.5225 -0.0000
vn -0.9239 -0.3827 -0.0000
vn -0.9724 -0.2335 -0.0000
vn -0.9969 -0.0785 -0.0000
vn -0.9969 -0.0000 0.0785
vn -0.9724 -0.0000 0.2335
vn -0.9239 -0.0000 0.3827
vn -0.8526 -0.0000 0.5225
vn -0.7604 -0.0000 0.6495
vn -0.6494 -0.0000 0.7604
vn -0.5225 -0.0000 0.8526
vn -0.3827 -0.0000 0.9239
vn -0.2334 -0.0000 0.9724
vn -0.0785 -0.0000 0.9969
vn -0.0782 -0.0782 0.9939
vn -0.9722 -0.1996 0.1223
vn -0.9969 -0.0785 0.0062
vn -0.9969 -0.0671 0.0411
vn -0.9969 -0.0598 0.0511
vn -0.9722 -0.1780 0.1521
vn -0.9235 -0.2918 0.2492
vn -0.9969 -0.0511 0.0598
vn -0.9722 -0.2163 0.0896
vn -0.9722 -0.2277 0.0547
vn -0.9722 -0.2334 0.0184
vn -0.9722 -0.1521 0.1780
vn -0.9235 -0.2492 0.2918
vn -0.8519 -0.3401 0.3982
vn -0.9969 -0.0411 0.0671
vn -0.9235 -0.3271 0.2005
vn -0.9235 -0.3545 0.1468
vn -0.9235 -0.3731 0.0896
vn -0.9235 -0.3825 0.0301
vn -0.9722 -0.1223 0.1996
vn -0.9235 -0.2005 0.3272
vn -0.8519 -0.2736 0.4465
vn -0.7594 -0.3399 0.5547
vn -0.9969 -0.0301 0.0727
vn -0.8519 -0.3982 0.3401
vn -0.8519 -0.4465 0.2736
vn -0.8519 -0.4838 0.2004
vn -0.8519 -0.5092 0.1222
vn -0.8519 -0.5220 0.0411
vn -0.9722 -0.0896 0.2163
vn -0.9235 -0.1468 0.3545
vn -0.8519 -0.2004 0.4838
vn -0.7594 -0.2490 0.6011
vn -0.6483 -0.2914 0.7034
vn -0.9969 -0.0184 0.0765
vn -0.7594 -0.4225 0.4947
vn -0.7594 -0.4947 0.4225
vn -0.7594 -0.5547 0.3399
vn -0.7594 -0.6011 0.2490
vn -0.7594 -0.6326 0.1519
vn -0.7594 -0.6486 0.0510
vn -0.9722 -0.0547 0.2277
vn -0.9235 -0.0896 0.3731
vn -0.8519 -0.1222 0.5092
vn -0.7594 -0.1519 0.6326
vn -0.6483 -0.1777 0.7404
vn -0.5213 -0.1992 0.8298
vn -0.9969 -0.0062 0.0785
vn -0.6483 -0.3978 0.6492
vn -0.6483 -0.4945 0.5790
vn -0.6483 -0.5790 0.4945
vn -0.6483 -0.6492 0.3978
vn -0.6483 -0.7034 0.2914
vn -0.6483 -0.7404 0.1777
vn -0.6483 -0.7590 0.0597
vn -0.9722 -0.0184 0.2334
vn -0.9235 -0.0301 0.3825
vn -0.8519 -0.0411 0.5220
vn -0.8519 -0.0411 0.5221
vn -0.7594 -0.0510 0.6486
vn -0.6483 -0.0597 0.7590
vn -0.5213 -0.0670 0.8507
vn -0.3817 -0.0725 0.9214
vn -0.5213 -0.3266 0.7884
vn -0.5213 -0.4459 0.7276
vn -0.5213 -0.5542 0.6489
vn -0.5213 -0.6489 0.5542
vn -0.5213 -0.7276 0.4459
vn -0.5213 -0.7884 0.3266
vn -0.5213 -0.8298 0.1992
vn -0.5213 -0.8507 0.0670
vn -0.3817 -0.2158 0.8988
vn -0.3817 -0.3537 0.8539
vn -0.3817 -0.4829 0.7881
vn -0.3817 -0.6003 0.7028
vn -0.3817 -0.7028 0.6003
vn -0.3817 -0.7881 0.4829
vn -0.3817 -0.8539 0.3537
vn -0.3817 -0.8988 0.2158
vn -0.3817 -0.9214 0.0725
vn -0.2328 -0.0763 0.9695
vn -0.2328 -0.2270 0.9457
vn -0.2328 -0.3722 0.8985
vn -0.2328 -0.5081 0.8292
vn -0.2328 -0.6316 0.7395
vn -0.2328 -0.7395 0.6316
vn -0.2328 -0.8292 0.5081
vn -0.2328 -0.8985 0.3722
vn -0.2328 -0.9457 0.2270
vn -0.2328 -0.9695 0.0763
vn -0.0782 -0.2327 0.9694
vn -0.0782 -0.3815 0.9210
vn -0.0782 -0.5209 0.8500
vn -0.0782 -0.6475 0.7581
vn -0.0782 -0.7581 0.6475
vn -0.0782 -0.8500 0.5209
vn -0.0782 -0.9210 0.3815
vn -0.0782 -0.9694 0.2327
vn -0.0782 -0.9939 0.0782
vn -0.9969 -0.0765 0.0184
vn -0.9235 -0.3272 0.2005
vn -0.9969 -0.0727 0.0301
vn -0.0000 -0.9969 0.0785
vn -0.0000 -0.9724 0.2334
vn -0.0000 -0.9724 0.2335
vn -0.0000 -0.9239 0.3827
vn -0.0000 -0.8526 0.5225
vn -0.0000 -0.7604 0.6495
vn -0.0000 -0.6494 0.7604
vn -0.0000 -0.5225 0.8526
vn -0.0000 -0.3827 0.9239
vn -0.0000 -0.2334 0.9724
vn -0.0000 -0.0785 0.9969
vn 0.9272 -0.0000 0.3746
vn -0.9272 -0.0000 0.3745
vn 0.9351 -0.0000 -0.3543
vn -0.9351 -0.0000 -0.3543
vn 0.9181 -0.0000 -0.3963
vn -0.9181 -0.0000 -0.3963
vn -0.0000 -0.2309 0.9730
vn -0.0000 -0.1196 0.9928
vn -0.0000 -0.0302 0.9995
vn -0.0000 -0.9995 0.0331
vn -0.0000 -0.9894 0.1453
vn -0.0000 -0.9565 0.2917
vn -0.0000 -0.8943 0.4474
vn -0.0000 -0.8130 0.5822
vn -0.0000 -0.7085 0.7057
vn -0.0000 -0.5944 0.8042
vn -0.0000 -0.4550 0.8905
vn -0.0000 -0.4551 0.8905
vn -0.0000 -0.3209 0.9471
vn -0.0000 -0.6510 -0.7590
vn -0.0000 -0.6510 -0.7591
vn -0.0000 -0.7584 -0.6518
vn -0.0000 -0.8546 -0.5193
vn -0.0000 -0.9253 -0.3792
vn -0.0000 -0.9721 -0.2344
vn -0.0000 -0.9971 -0.0760
vn -0.0000 -0.9999 0.0140
vn -0.0000 -0.9951 0.0988
vn -0.0000 -0.9645 0.2640
vn -0.0000 -0.9108 0.4129
vn -0.0000 -0.8290 0.5593
vn -0.0000 -0.7211 0.6928
vn -0.0000 -0.6067 0.7949
vn -0.0000 -0.6068 0.7949
vn -0.0000 -0.4925 0.8703
vn -0.0000 -0.0550 -0.9985
vn -0.0000 -0.1877 -0.9822
vn -0.0000 -0.3414 -0.9399
vn -0.0000 -0.4962 -0.8682
vn -0.0000 -0.6286 -0.7777
vn -0.0000 -0.7460 -0.6659
vn -0.0000 -0.8456 -0.5338
vn -0.0000 -0.9171 -0.3987
vn -0.0000 -0.9678 -0.2516
vn -0.0000 -0.9963 -0.0865
vn -0.0000 0.0153 -0.9999
vn -0.0000 0.0154 -0.9999
vn -0.0000 0.1108 -0.9938
vn -0.0000 0.2589 -0.9659
vn -0.0000 0.4146 -0.9100
vn -0.0000 0.4905 -0.8714
vn -0.0000 0.5548 -0.8320
vn -0.0000 0.6692 -0.7431
vn -0.0000 0.6691 -0.7431
vn -0.0000 0.7747 -0.6323
vn -0.0000 0.8673 -0.4978
vn -0.0000 0.9329 -0.3601
vn -0.0000 0.9779 -0.2090
vn -0.0000 0.9973 -0.0735
vn -0.0000 0.9978 0.0663
vn -0.0000 0.9872 0.1596
vn -0.0000 0.9487 0.3162
vn -0.0000 0.8814 0.4724
vn -0.0000 0.7921 0.6104
vn -0.0000 0.6869 0.7268
vn -0.0000 0.5660 0.8244
vn -0.0000 0.4281 0.9037
vn -0.0000 0.2904 0.9569
vn -0.0000 0.1620 0.9868
vn -0.0000 0.0434 0.9991
vn -0.0000 0.0110 -0.9999
vn -0.0000 0.0111 -0.9999
vn -0.0000 0.0744 -0.9972
vn -0.0000 0.2283 -0.9736
vn -0.0000 0.3807 -0.9247
vn -0.0000 0.5230 -0.8523
vn -0.0000 0.6585 -0.7526
vn -0.0000 0.7725 -0.6350
vn -0.0000 0.8545 -0.5195
vn -0.0000 0.8545 -0.5194
vn -0.0000 0.9286 -0.3710
vn -0.0000 0.9740 -0.2265
vn -0.0000 0.9977 -0.0674
vn -0.0000 0.9991 0.0418
vn -0.0000 0.9836 0.1804
vn -0.0000 0.9480 0.3184
vn -0.0000 0.8847 0.4661
vn -0.0000 0.8041 0.5946
vn -0.0000 0.8041 0.5945
vn -0.0000 0.6927 0.7212
vn -0.0000 0.5945 0.8041
vn -0.0000 0.4425 0.8968
vn -0.0000 0.2937 0.9559
vn -0.0000 0.1457 0.9893
vn -0.0000 0.0390 0.9992
vn -0.7243 -0.6895 -0.0000
vn -0.6227 -0.7825 -0.0000
vn -0.4984 -0.8669 -0.0000
vn -0.3686 -0.9296 -0.0000
vn -0.2268 -0.9739 -0.0000
vn -0.0752 -0.9972 -0.0000
vn -0.0751 -0.9972 -0.0000
vn -0.6910 0.7229 -0.0000
vn 0.0329 0.9995 -0.0000
vn 0.1178 0.9930 -0.0000
vn 0.2881 0.9576 -0.0000
vn 0.4397 0.8982 -0.0000
vn 0.5701 0.8216 -0.0000
vn 0.6888 0.7250 -0.0000
vn -0.9991 0.0412 -0.0000
vn -0.9894 0.1452 -0.0000
vn -0.9534 0.3017 -0.0000
vn -0.8896 0.4568 -0.0000
vn -0.8008 0.5989 -0.0000
vn -0.7318 0.6815 -0.0000
vn -0.6544 0.7561 -0.0000
vn -0.5282 0.8491 -0.0000
vn -0.3859 0.9225 -0.0000
vn -0.2385 0.9711 -0.0000
vn -0.2385 0.9712 -0.0000
vn -0.0788 -0.9969 -0.0000
vn -0.2389 -0.9711 -0.0000
vn -0.2389 -0.9710 -0.0000
vn -0.3924 -0.9198 -0.0000
vn -0.5329 -0.8462 -0.0000
vn -0.6567 -0.7542 -0.0000
vn -0.7695 -0.6386 -0.0000
vn -0.8578 -0.5140 -0.0000
vn -0.9307 -0.3658 -0.0000
vn -0.9754 -0.2206 -0.0000
vn -0.9977 -0.0679 -0.0000
vn 0.7010 -0.7131 -0.0000
vn 0.6448 -0.7643 -0.0000
vn 0.5302 -0.8479 -0.0000
vn 0.3816 -0.9243 -0.0000
vn 0.2378 -0.9713 -0.0000
vn 0.0794 -0.9968 -0.0000
vn -0.7242 -0.6896 -0.0000
vn -0.0301 0.9995 -0.0000
vn -0.1387 0.9903 -0.0000
vn -0.2919 0.9564 -0.0000
vn -0.4404 0.8978 -0.0000
vn -0.5728 0.8197 -0.0000
vn -0.6688 0.7435 -0.0000
vn 0.9993 0.0366 -0.0000
vn 0.9894 0.1455 -0.0000
vn 0.9552 0.2960 -0.0000
vn 0.8967 0.4425 -0.0000
vn 0.8144 0.5803 -0.0000
vn 0.7340 0.6791 -0.0000
vn 0.6389 0.7693 -0.0000
vn 0.5027 0.8644 -0.0000
vn 0.3536 0.9354 -0.0000
vn 0.2031 0.9792 -0.0000
vn 0.0625 0.9980 -0.0000
vn 0.0352 -0.9994 -0.0000
vn 0.1436 -0.9896 -0.0000
vn 0.2974 -0.9548 -0.0000
vn 0.4465 -0.8948 -0.0000
vn 0.5787 -0.8156 -0.0000
vn 0.6777 -0.7354 -0.0000
vn 0.7719 -0.6357 -0.0000
vn 0.8665 -0.4991 -0.0000
vn 0.9346 -0.3557 -0.0000
vn 0.9783 -0.2070 -0.0000
vn 0.9979 -0.0650 -0.0000
vn -0.0000 -0.0267 0.9996
vn -0.0000 -0.1272 0.9919
vn -0.0000 -0.2689 0.9632
vn -0.0000 -0.4150 0.9098
vn -0.0000 -0.5512 0.8344
vn -0.0000 -0.6738 0.7389
vn -0.0000 -0.7774 0.6290
vn -0.0000 -0.8650 0.5018
vn -0.0000 -0.9351 0.3545
vn -0.0000 -0.9761 0.2174
vn -0.0000 -0.9947 0.1029
vn -0.0000 -0.9997 0.0249
vn -0.0000 0.9997 0.0242
vn -0.0000 0.9945 0.1043
vn -0.0000 0.9693 0.2457
vn -0.0000 0.9155 0.4024
vn -0.0000 0.8400 0.5426
vn -0.0000 0.7497 0.6617
vn -0.0000 0.6343 0.7731
vn -0.0000 0.5061 0.8625
vn -0.0000 0.3576 0.9339
vn -0.0000 0.2004 0.9797
vn -0.0000 0.0605 0.9982
vn -0.0000 0.9986 -0.0526
vn -0.0000 0.9829 -0.1842
vn -0.0000 0.9448 -0.3275
vn -0.0000 0.8853 -0.4650
vn -0.0000 0.7879 -0.6157
vn -0.0000 0.6531 -0.7573
vn -0.0000 0.5086 -0.8610
vn -0.0000 0.3649 -0.9311
vn -0.0000 0.2184 -0.9759
vn -0.0000 0.0673 -0.9977
vn -0.0000 -0.0148 -0.9999
vn -0.0000 -0.0147 -0.9999
vn -0.0000 -0.0863 -0.9963
vn -0.0000 -0.2340 -0.9722
vn -0.0000 -0.3837 -0.9235
vn -0.0000 -0.5166 -0.8562
vn -0.0000 -0.6352 -0.7723
vn -0.0000 -0.7467 -0.6652
vn -0.0000 -0.8436 -0.5370
vn -0.0000 -0.9211 -0.3892
vn -0.0000 -0.9711 -0.2385
vn -0.0000 -0.9936 -0.1132
vn -0.0000 -0.9997 -0.0263
vn 1.0000 -0.0000 -0.0001
vn -0.0000 -0.0001 1.0000
vn -0.0000 0.0002 1.0000
vn -0.0002 1.0000 -0.0000
vn -0.0001 1.0000 -0.0000
vn 1.0000 -0.0000 0.0002
vn 1.0000 -0.0000 0.0001
vn -0.0001 -1.0000 -0.0000
vn 0.0001 -1.0000 -0.0000
vn -0.0000 0.0001 -1.0000
vn -1.0000 -0.0000 -0.0002
vn -1.0000 -0.0000 0.0001
vn -1.0000 -0.0000 -0.0001
vn -0.0000 -0.0001 -1.0000
vn -0.0000 -0.0002 -1.0000
vn -0.0000 0.0002 -1.0000
s 0
f 1//1 2//1 3//1
f 3//1 2//1 4//1
f 5//1 6//1 7//1
f 7//1 6//1 8//1
f 9//1 10//1 11//1
f 10//1 12//1 11//1
f 11//1 12//1 13//1
f 11//1 13//1 14//1
f 14//1 13//1 3//1
f 14//1 3//1 15//1
f 15//1 3//1 16//1
f 11//1 17//1 9//1
f 9//1 17//1 18//1
f 9//1 18//1 4//1
f 4//1 18//1 7//1
f 4//1 7//1 3//1
f 3//1 7//1 8//1
f 3//1 8//1 16//1
f 19//2 20//2 21//2
f 22//2 23//2 24//2
f 24//2 23//2 25//2
f 26//2 27//2 21//2
f 21//2 27//2 28//2
f 29//2 30//2 31//2
f 31//2 30//2 32//2
f 23//2 33//2 25//2
f 25//2 33//2 34//2
f 25//2 34//2 28//2
f 28//2 34//2 31//2
f 28//2 31//2 21//2
f 21//2 31//2 32//2
f 21//2 32//2 35//2
f 24//2 19//2 22//2
f 22//2 19//2 21//2
f 22//2 21//2 36//2
f 36//2 21//2 35//2
f 36//2 35//2 37//2
f 37//2 35//2 38//2
f 39//3 40//3 41//3
f 41//3 40//3 42//3
f 43//3 44//3 45//3
f 45//3 44//3 46//3
f 45//3 46//3 47//3
f 47//3 46//3 48//3
f 47//3 48//3 49//3
f 49//3 48//3 50//3
f 49//3 50//3 51//3
f 51//3 50//3 52//3
f 53//3 41//3 54//3
f 54//3 41//3 55//3
f 56//3 57//3 55//3
f 53//3 58//3 41//3
f 41//3 58//3 59//3
f 41//3 59//3 39//3
f 42//3 60//3 41//3
f 41//3 60//3 61//3
f 41//3 61//3 50//3
f 50//3 61//3 62//3
f 50//3 62//3 52//3
f 63//3 64//3 56//3
f 56//3 64//3 65//3
f 43//3 66//3 44//3
f 44//3 66//3 67//3
f 44//3 67//3 56//3
f 56//3 67//3 68//3
f 56//3 68//3 63//3
f 65//3 69//3 56//3
f 56//3 69//3 70//3
f 56//3 70//3 57//3
f 55//3 41//3 56//3
f 56//3 41//3 71//3
f 56//3 71//3 72//3
f 73//4 74//4 75//4
f 76//4 77//4 78//4
f 74//4 73//4 79//4
f 79//4 73//4 80//4
f 79//4 80//4 76//4
f 76//4 80//4 81//4
f 76//4 81//4 77//4
f 82//4 83//4 84//4
f 84//4 83//4 85//4
f 86//4 87//4 88//4
f 89//4 90//4 91//4
f 86//4 92//4 93//4
f 94//4 83//4 95//4
f 95//4 83//4 96//4
f 95//4 96//4 97//4
f 94//4 98//4 83//4
f 83//4 98//4 99//4
f 83//4 99//4 100//4
f 100//4 101//4 83//4
f 83//4 101//4 102//4
f 83//4 102//4 103//4
f 103//4 104//4 83//4
f 83//4 104//4 105//4
f 83//4 105//4 106//4
f 107//4 108//4 89//4
f 89//4 108//4 109//4
f 89//4 109//4 90//4
f 91//4 110//4 89//4
f 89//4 110//4 111//4
f 89//4 111//4 112//4
f 93//4 113//4 86//4
f 86//4 113//4 114//4
f 86//4 114//4 87//4
f 106//4 115//4 83//4
f 83//4 115//4 116//4
f 83//4 116//4 117//4
f 78//4 118//4 76//4
f 76//4 118//4 119//4
f 76//4 119//4 107//4
f 107//4 119//4 120//4
f 107//4 120//4 108//4
f 121//4 122//4 86//4
f 86//4 122//4 123//4
f 86//4 123//4 92//4
f 117//4 124//4 83//4
f 83//4 124//4 125//4
f 83//4 125//4 85//4
f 126//4 127//4 84//4
f 84//4 127//4 128//4
f 84//4 128//4 82//4
f 88//4 129//4 86//4
f 86//4 129//4 130//4
f 86//4 130//4 131//4
f 130//4 132//4 131//4
f 131//4 132//4 133//4
f 131//4 133//4 134//4
f 96//4 73//4 97//4
f 97//4 73//4 75//4
f 97//4 75//4 135//4
f 135//4 75//4 131//4
f 135//4 131//4 136//4
f 136//4 131//4 134//4
f 126//4 137//4 127//4
f 127//4 137//4 138//4
f 127//4 138//4 139//4
f 139//4 140//4 127//4
f 127//4 140//4 141//4
f 127//4 141//4 142//4
f 143//4 144//4 145//4
f 142//4 141//4 145//4
f 145//4 141//4 146//4
f 145//4 146//4 143//4
f 112//4 147//4 89//4
f 89//4 147//4 148//4
f 89//4 148//4 86//4
f 86//4 148//4 149//4
f 86//4 149//4 121//4
f 150//5 151//5 152//5
f 153//5 154//5 155//5
f 155//5 154//5 156//5
f 156//5 157//5 155//5
f 155//5 157//5 158//5
f 155//5 158//5 151//5
f 151//5 158//5 159//5
f 151//5 159//5 152//5
f 152//5 160//5 150//5
f 150//5 160//5 161//5
f 150//5 161//5 162//5
f 163//5 164//5 165//5
f 165//5 164//5 166//5
f 165//5 166//5 167//5
f 167//5 166//5 168//5
f 167//5 168//5 169//5
f 169//5 168//5 170//5
f 169//5 170//5 171//5
f 171//5 170//5 172//5
f 173//5 174//5 153//5
f 153//5 174//5 175//5
f 153//5 175//5 176//5
f 176//5 177//5 153//5
f 153//5 177//5 178//5
f 153//5 178//5 179//5
f 162//5 180//5 150//5
f 150//5 180//5 181//5
f 150//5 181//5 165//5
f 165//5 181//5 182//5
f 165//5 182//5 163//5
f 154//5 183//5 184//5
f 184//5 183//5 185//5
f 184//5 185//5 186//5
f 186//5 185//5 187//5
f 179//5 188//5 153//5
f 153//5 188//5 189//5
f 153//5 189//5 190//5
f 190//5 191//5 153//5
f 153//5 191//5 192//5
f 153//5 192//5 154//5
f 154//5 192//5 193//5
f 154//5 193//5 183//5
f 172//5 194//5 171//5
f 171//5 194//5 195//5
f 171//5 195//5 153//5
f 153//5 195//5 196//5
f 153//5 196//5 173//5
f 197//6 198//6 199//6
f 200//6 201//6 202//6
f 203//6 204//6 205//6
f 205//6 204//6 206//6
f 202//6 205//6 200//6
f 200//6 205//6 206//6
f 200//6 206//6 207//6
f 207//6 206//6 197//6
f 207//6 197//6 208//6
f 208//6 197//6 199//6
f 209//6 210//6 201//6
f 201//6 210//6 211//6
f 201//6 211//6 202//6
f 202//6 211//6 199//6
f 202//6 199//6 212//6
f 212//6 199//6 198//6
f 206//7 204//7 213//7
f 206//7 213//7 214//7
f 214//8 213//8 215//8
f 214//8 215//8 216//8
f 216//9 215//9 217//9
f 216//9 217//9 218//9
f 218//10 217//10 219//10
f 218//11 219//11 220//11
f 220//12 219//12 221//12
f 220//13 221//13 222//13
f 222//14 221//14 223//14
f 222//15 223//15 224//15
f 224//16 223//16 225//16
f 224//17 225//17 226//17
f 226//18 225//18 227//18
f 226//18 227//18 228//18
f 228//19 227//19 229//19
f 228//20 229//20 230//20
f 230//21 229//21 2//21
f 230//21 2//21 1//21
f 2//22 229//22 231//22
f 232//23 233//23 234//23
f 204//24 235//24 236//24
f 234//25 233//25 204//25
f 237//26 204//26 233//26
f 237//27 233//27 238//27
f 238//28 233//28 232//28
f 238//29 232//29 239//29
f 240//30 204//30 237//30
f 241//31 242//31 243//31
f 243//32 242//32 236//32
f 243//33 236//33 244//33
f 244//34 236//34 235//34
f 244//34 235//34 245//34
f 240//35 237//35 246//35
f 246//36 237//36 238//36
f 246//37 238//37 247//37
f 247//37 238//37 239//37
f 247//38 239//38 248//38
f 249//39 204//39 240//39
f 250//40 241//40 251//40
f 251//41 241//41 243//41
f 251//41 243//41 252//41
f 252//42 243//42 244//42
f 252//43 244//43 253//43
f 253//44 244//44 245//44
f 253//45 245//45 254//45
f 249//46 240//46 255//46
f 255//47 240//47 246//47
f 255//48 246//48 256//48
f 256//49 246//49 247//49
f 256//50 247//50 257//50
f 257//51 247//51 248//51
f 257//52 248//52 258//52
f 259//53 204//53 249//53
f 260//54 250//54 261//54
f 261//55 250//55 251//55
f 261//56 251//56 262//56
f 262//57 251//57 252//57
f 262//58 252//58 263//58
f 263//59 252//59 253//59
f 263//60 253//60 264//60
f 264//61 253//61 254//61
f 264//62 254//62 265//62
f 259//63 249//63 266//63
f 266//64 249//64 255//64
f 266//65 255//65 267//65
f 267//66 255//66 256//66
f 267//67 256//67 268//67
f 268//68 256//68 257//68
f 268//69 257//69 269//69
f 269//70 257//70 258//70
f 269//71 258//71 270//71
f 271//72 204//72 259//72
f 272//73 260//73 273//73
f 273//74 260//74 261//74
f 273//75 261//75 274//75
f 274//76 261//76 262//76
f 274//77 262//77 275//77
f 275//78 262//78 263//78
f 275//78 263//78 276//78
f 276//79 263//79 264//79
f 276//80 264//80 277//80
f 277//81 264//81 265//81
f 277//82 265//82 278//82
f 271//83 259//83 279//83
f 279//84 259//84 266//84
f 279//85 266//85 280//85
f 280//86 266//86 267//86
f 280//87 267//87 281//87
f 281//88 267//88 268//88
f 281//89 268//89 282//89
f 282//90 268//90 269//90
f 282//91 269//91 283//91
f 283//92 269//92 270//92
f 283//93 270//93 284//93
f 213//94 204//94 271//94
f 285//95 272//95 286//95
f 286//96 272//96 273//96
f 286//97 273//97 287//97
f 287//98 273//98 274//98
f 287//98 274//98 288//98
f 288//99 274//99 275//99
f 288//100 275//100 289//100
f 289//101 275//101 276//101
f 289//102 276//102 290//102
f 290//103 276//103 277//103
f 290//103 277//103 291//103
f 291//104 277//104 278//104
f 291//105 278//105 292//105
f 213//106 271//106 215//106
f 215//107 271//107 279//107
f 215//108 279//108 217//108
f 217//108 279//108 280//108
f 217//109 280//109 219//109
f 219//110 280//110 281//110
f 219//111 281//111 221//111
f 221//112 281//112 282//112
f 221//113 282//113 223//113
f 223//114 282//114 283//114
f 223//115 283//115 225//115
f 225//115 283//115 284//115
f 225//116 284//116 227//116
f 293//117 285//117 294//117
f 294//118 285//118 286//118
f 294//118 286//118 295//118
f 295//119 286//119 287//119
f 295//119 287//119 296//119
f 296//120 287//120 288//120
f 296//120 288//120 297//120
f 297//121 288//121 289//121
f 297//121 289//121 298//121
f 298//122 289//122 290//122
f 298//123 290//123 299//123
f 299//124 290//124 291//124
f 299//124 291//124 300//124
f 300//125 291//125 292//125
f 300//126 292//126 301//126
f 302//127 293//127 303//127
f 303//128 293//128 294//128
f 303//129 294//129 304//129
f 304//130 294//130 295//130
f 304//131 295//131 305//131
f 305//132 295//132 296//132
f 305//133 296//133 306//133
f 306//134 296//134 297//134
f 306//135 297//135 307//135
f 307//136 297//136 298//136
f 307//137 298//137 308//137
f 308//138 298//138 299//138
f 308//139 299//139 309//139
f 309//140 299//140 300//140
f 309//140 300//140 310//140
f 310//141 300//141 301//141
f 310//141 301//141 311//141
f 229//142 302//142 231//142
f 231//143 302//143 303//143
f 231//143 303//143 312//143
f 312//144 303//144 304//144
f 312//144 304//144 313//144
f 313//145 304//145 305//145
f 313//146 305//146 314//146
f 314//147 305//147 306//147
f 314//148 306//148 315//148
f 315//149 306//149 307//149
f 315//149 307//149 316//149
f 316//150 307//150 308//150
f 316//151 308//151 317//151
f 317//152 308//152 309//152
f 317//152 309//152 318//152
f 318//153 309//153 310//153
f 318//154 310//154 319//154
f 319//155 310//155 311//155
f 319//156 311//156 320//156
f 2//22 231//22 321//22
f 321//157 231//157 312//157
f 321//157 312//157 322//157
f 322//158 312//158 313//158
f 322//159 313//159 323//159
f 323//160 313//160 314//160
f 323//161 314//161 324//161
f 324//162 314//162 315//162
f 324//163 315//163 325//163
f 325//164 315//164 316//164
f 325//165 316//165 326//165
f 326//166 316//166 317//166
f 326//166 317//166 327//166
f 327//167 317//167 318//167
f 327//168 318//168 328//168
f 328//169 318//169 319//169
f 328//170 319//170 329//170
f 329//171 319//171 320//171
f 329//172 320//172 72//172
f 242//173 204//173 236//173
f 229//174 227//174 302//174
f 302//175 227//175 284//175
f 302//176 284//176 293//176
f 293//93 284//93 270//93
f 293//177 270//177 285//177
f 285//71 270//71 258//71
f 285//95 258//95 272//95
f 272//178 258//178 248//178
f 272//73 248//73 260//73
f 260//179 248//179 239//179
f 260//180 239//180 250//180
f 250//181 239//181 232//181
f 250//182 232//182 241//182
f 241//23 232//23 234//23
f 241//183 234//183 242//183
f 242//184 234//184 204//184
f 204//185 203//185 330//185
f 204//185 330//185 235//185
f 235//186 330//186 331//186
f 235//187 331//187 245//187
f 245//188 331//188 332//188
f 245//188 332//188 254//188
f 254//189 332//189 333//189
f 254//190 333//190 265//190
f 265//191 333//191 334//191
f 265//192 334//192 278//192
f 278//193 334//193 335//193
f 278//193 335//193 292//193
f 292//194 335//194 336//194
f 292//194 336//194 301//194
f 301//195 336//195 337//195
f 301//195 337//195 311//195
f 311//196 337//196 338//196
f 311//196 338//196 320//196
f 320//197 338//197 56//197
f 320//197 56//197 72//197
f 72//198 71//198 339//198
f 72//198 339//198 329//198
f 329//199 339//199 340//199
f 329//200 340//200 328//200
f 328//201 340//201 341//201
f 328//201 341//201 327//201
f 327//202 341//202 342//202
f 327//203 342//203 326//203
f 326//204 342//204 343//204
f 326//205 343//205 325//205
f 325//206 343//206 344//206
f 325//206 344//206 324//206
f 324//207 344//207 345//207
f 324//207 345//207 323//207
f 323//208 345//208 346//208
f 323//208 346//208 322//208
f 322//209 346//209 347//209
f 322//209 347//209 321//209
f 321//210 347//210 4//210
f 321//210 4//210 2//210
f 27//211 26//211 348//211
f 27//211 348//211 349//211
f 349//212 348//212 350//212
f 349//213 350//213 351//213
f 351//214 350//214 352//214
f 351//214 352//214 353//214
f 353//215 352//215 354//215
f 353//216 354//216 355//216
f 355//217 354//217 356//217
f 355//218 356//218 357//218
f 357//219 356//219 358//219
f 357//220 358//220 359//220
f 359//221 358//221 360//221
f 359//221 360//221 361//221
f 361//222 360//222 362//222
f 361//222 362//222 363//222
f 363//223 362//223 364//223
f 363//224 364//224 365//224
f 365//225 364//225 10//225
f 365//225 10//225 9//225
f 171//226 153//226 366//226
f 171//226 366//226 367//226
f 367//227 366//227 368//227
f 367//227 368//227 369//227
f 369//228 368//228 370//228
f 369//228 370//228 371//228
f 371//229 370//229 372//229
f 371//229 372//229 373//229
f 373//230 372//230 374//230
f 373//230 374//230 375//230
f 375//231 374//231 376//231
f 375//231 376//231 377//231
f 377//232 376//232 378//232
f 377//232 378//232 379//232
f 379//233 378//233 380//233
f 379//233 380//233 381//233
f 381//234 380//234 382//234
f 381//234 382//234 383//234
f 383//235 382//235 13//235
f 383//235 13//235 12//235
f 155//236 151//236 384//236
f 155//236 384//236 385//236
f 385//237 384//237 386//237
f 385//238 386//238 387//238
f 387//239 386//239 388//239
f 387//239 388//239 389//239
f 389//240 388//240 390//240
f 389//241 390//241 391//241
f 391//242 390//242 392//242
f 391//243 392//243 393//243
f 393//244 392//244 394//244
f 393//245 394//245 395//245
f 395//246 394//246 396//246
f 395//246 396//246 397//246
f 397//247 396//247 398//247
f 397//247 398//247 399//247
f 399//248 398//248 400//248
f 399//249 400//249 401//249
f 401//250 400//250 198//250
f 401//250 198//250 197//250
f 202//251 212//251 402//251
f 202//251 402//251 403//251
f 403//252 402//252 404//252
f 403//252 404//252 405//252
f 405//253 404//253 406//253
f 405//253 406//253 407//253
f 407//254 406//254 408//254
f 407//254 408//254 409//254
f 409//255 408//255 410//255
f 409//255 410//255 411//255
f 411//256 410//256 412//256
f 411//256 412//256 413//256
f 413//257 412//257 414//257
f 413//257 414//257 415//257
f 415//258 414//258 416//258
f 415//258 416//258 417//258
f 417//259 416//259 418//259
f 417//259 418//259 419//259
f 419//260 418//260 420//260
f 419//260 420//260 421//260
f 46//261 44//261 422//261
f 46//261 422//261 423//261
f 423//262 422//262 424//262
f 423//263 424//263 425//263
f 425//264 424//264 426//264
f 425//264 426//264 427//264
f 427//265 426//265 428//265
f 427//265 428//265 429//265
f 429//266 428//266 430//266
f 429//267 430//267 431//267
f 431//268 430//268 432//268
f 431//269 432//269 433//269
f 433//270 432//270 434//270
f 433//270 434//270 435//270
f 435//271 434//271 436//271
f 435//271 436//271 437//271
f 437//272 436//272 438//272
f 437//273 438//273 439//273
f 439//274 438//274 440//274
f 439//274 440//274 441//274
f 50//275 48//275 442//275
f 50//275 442//275 443//275
f 443//276 442//276 444//276
f 443//276 444//276 445//276
f 445//277 444//277 446//277
f 445//277 446//277 447//277
f 447//278 446//278 448//278
f 447//278 448//278 449//278
f 449//279 448//279 450//279
f 449//279 450//279 451//279
f 451//280 450//280 452//280
f 451//280 452//280 453//280
f 453//281 452//281 454//281
f 453//281 454//281 455//281
f 455//282 454//282 456//282
f 455//282 456//282 457//282
f 457//283 456//283 458//283
f 457//283 458//283 459//283
f 459//284 458//284 25//284
f 459//284 25//284 28//284
f 20//285 19//285 460//285
f 20//285 460//285 461//285
f 461//286 460//286 462//286
f 461//286 462//286 463//286
f 463//287 462//287 464//287
f 463//287 464//287 465//287
f 465//288 464//288 466//288
f 465//288 466//288 467//288
f 467//289 466//289 468//289
f 467//289 468//289 469//289
f 469//290 468//290 470//290
f 469//290 470//290 471//290
f 471//291 470//291 472//291
f 471//291 472//291 473//291
f 473//292 472//292 474//292
f 473//292 474//292 475//292
f 475//293 474//293 476//293
f 475//293 476//293 477//293
f 477//294 476//294 167//294
f 477//294 167//294 169//294
f 165//295 167//295 478//295
f 165//295 478//295 479//295
f 479//296 478//296 480//296
f 479//296 480//296 481//296
f 481//297 480//297 482//297
f 481//297 482//297 483//297
f 483//298 482//298 484//298
f 483//298 484//298 485//298
f 485//299 484//299 486//299
f 485//299 486//299 487//299
f 487//300 486//300 488//300
f 487//300 488//300 489//300
f 489//301 488//301 490//301
f 489//301 490//301 491//301
f 491//302 490//302 492//302
f 491//302 492//302 493//302
f 493//303 492//303 494//303
f 493//303 494//303 495//303
f 495//304 494//304 496//304
f 495//304 496//304 497//304
f 498//305 494//305 499//305
f 500//306 501//306 502//306
f 167//307 476//307 503//307
f 502//308 501//308 167//308
f 504//309 167//309 501//309
f 504//310 501//310 505//310
f 505//310 501//310 500//310
f 505//311 500//311 506//311
f 507//312 167//312 504//312
f 508//313 509//313 510//313
f 510//314 509//314 503//314
f 510//314 503//314 511//314
f 511//315 503//315 476//315
f 511//315 476//315 474//315
f 507//316 504//316 512//316
f 512//316 504//316 505//316
f 512//317 505//317 513//317
f 513//317 505//317 506//317
f 513//318 506//318 514//318
f 515//319 167//319 507//319
f 516//320 508//320 517//320
f 517//321 508//321 510//321
f 517//321 510//321 518//321
f 518//322 510//322 511//322
f 518//322 511//322 519//322
f 519//323 511//323 474//323
f 519//323 474//323 472//323
f 515//324 507//324 520//324
f 520//324 507//324 512//324
f 520//325 512//325 521//325
f 521//325 512//325 513//325
f 521//326 513//326 522//326
f 522//326 513//326 514//326
f 522//327 514//327 523//327
f 524//328 167//328 515//328
f 525//329 516//329 526//329
f 526//330 516//330 517//330
f 526//330 517//330 527//330
f 527//331 517//331 518//331
f 527//331 518//331 528//331
f 528//332 518//332 519//332
f 528//332 519//332 529//332
f 529//333 519//333 472//333
f 529//333 472//333 470//333
f 524//334 515//334 530//334
f 530//334 515//334 520//334
f 530//335 520//335 531//335
f 531//335 520//335 521//335
f 531//336 521//336 532//336
f 532//336 521//336 522//336
f 532//337 522//337 533//337
f 533//337 522//337 523//337
f 533//338 523//338 534//338
f 535//339 167//339 524//339
f 536//340 525//340 537//340
f 537//341 525//341 526//341
f 537//341 526//341 538//341
f 538//342 526//342 527//342
f 538//342 527//342 539//342
f 539//343 527//343 528//343
f 539//343 528//343 540//343
f 540//344 528//344 529//344
f 540//344 529//344 541//344
f 541//345 529//345 470//345
f 541//345 470//345 468//345
f 535//346 524//346 542//346
f 542//346 524//346 530//346
f 542//347 530//347 543//347
f 543//347 530//347 531//347
f 543//348 531//348 544//348
f 544//348 531//348 532//348
f 544//349 532//349 545//349
f 545//349 532//349 533//349
f 545//350 533//350 546//350
f 546//350 533//350 534//350
f 546//351 534//351 547//351
f 478//352 167//352 535//352
f 548//353 536//353 549//353
f 549//354 536//354 537//354
f 549//354 537//354 550//354
f 550//355 537//355 538//355
f 550//355 538//355 551//355
f 551//356 538//356 539//356
f 551//356 539//356 552//356
f 552//357 539//357 540//357
f 552//357 540//357 553//357
f 553//358 540//358 541//358
f 553//358 541//358 554//358
f 554//359 541//359 468//359
f 554//359 468//359 466//359
f 478//360 535//360 480//360
f 480//360 535//360 542//360
f 480//361 542//361 482//361
f 482//361 542//361 543//361
f 482//362 543//362 484//362
f 484//363 543//363 544//363
f 484//364 544//364 486//364
f 486//364 544//364 545//364
f 486//365 545//365 488//365
f 488//365 545//365 546//365
f 488//366 546//366 490//366
f 490//366 546//366 547//366
f 490//367 547//367 492//367
f 555//368 548//368 556//368
f 556//369 548//369 549//369
f 556//369 549//369 557//369
f 557//370 549//370 550//370
f 557//370 550//370 558//370
f 558//371 550//371 551//371
f 558//371 551//371 559//371
f 559//372 551//372 552//372
f 559//372 552//372 560//372
f 560//373 552//373 553//373
f 560//373 553//373 561//373
f 561//374 553//374 554//374
f 561//374 554//374 562//374
f 562//375 554//375 466//375
f 562//375 466//375 464//375
f 563//376 555//376 564//376
f 564//377 555//377 556//377
f 564//377 556//377 565//377
f 565//378 556//378 557//378
f 565//378 557//378 566//378
f 566//379 557//379 558//379
f 566//379 558//379 567//379
f 567//380 558//380 559//380
f 567//380 559//380 568//380
f 568//381 559//381 560//381
f 568//381 560//381 569//381
f 569//382 560//382 561//382
f 569//382 561//382 570//382
f 570//383 561//383 562//383
f 570//383 562//383 571//383
f 571//384 562//384 464//384
f 571//384 464//384 462//384
f 494//385 563//385 499//385
f 499//386 563//386 564//386
f 499//386 564//386 572//386
f 572//387 564//387 565//387
f 572//387 565//387 573//387
f 573//388 565//388 566//388
f 573//388 566//388 574//388
f 574//389 566//389 567//389
f 574//389 567//389 575//389
f 575//390 567//390 568//390
f 575//390 568//390 576//390
f 576//391 568//391 569//391
f 576//391 569//391 577//391
f 577//392 569//392 570//392
f 577//392 570//392 578//392
f 578//393 570//393 571//393
f 578//393 571//393 579//393
f 579//394 571//394 462//394
f 579//394 462//394 460//394
f 498//305 499//305 580//305
f 580//395 499//395 572//395
f 580//395 572//395 581//395
f 581//396 572//396 573//396
f 581//396 573//396 582//396
f 582//397 573//397 574//397
f 582//397 574//397 583//397
f 583//398 574//398 575//398
f 583//398 575//398 584//398
f 584//399 575//399 576//399
f 584//399 576//399 585//399
f 585//400 576//400 577//400
f 585//400 577//400 586//400
f 586//401 577//401 578//401
f 586//401 578//401 587//401
f 587//402 578//402 579//402
f 587//402 579//402 588//402
f 588//403 579//403 460//403
f 588//403 460//403 19//403
f 509//404 167//404 503//404
f 494//385 492//385 563//385
f 563//367 492//367 547//367
f 563//376 547//376 555//376
f 555//351 547//351 534//351
f 555//368 534//368 548//368
f 548//338 534//338 523//338
f 548//353 523//353 536//353
f 536//327 523//327 514//327
f 536//340 514//340 525//340
f 525//318 514//318 506//318
f 525//329 506//329 516//329
f 516//311 506//311 500//311
f 516//405 500//405 508//405
f 508//306 500//306 502//306
f 508//313 502//313 509//313
f 509//406 502//406 167//406
f 19//407 24//407 589//407
f 19//407 589//407 588//407
f 588//408 589//408 590//408
f 588//409 590//409 587//409
f 587//410 590//410 591//410
f 587//410 591//410 586//410
f 586//411 591//411 592//411
f 586//411 592//411 585//411
f 585//412 592//412 593//412
f 585//412 593//412 584//412
f 584//413 593//413 594//413
f 584//413 594//413 583//413
f 583//414 594//414 595//414
f 583//414 595//414 582//414
f 582//415 595//415 596//415
f 582//415 596//415 581//415
f 581//416 596//416 597//416
f 581//416 597//416 580//416
f 580//417 597//417 598//417
f 580//417 598//417 496//417
f 599//418 600//418 199//418
f 199//418 600//418 208//418
f 600//4 601//4 208//4
f 208//4 601//4 207//4
f 601//419 602//419 207//419
f 207//419 602//419 200//419
f 602//1 603//1 200//1
f 200//1 603//1 201//1
f 603//420 604//420 201//420
f 201//420 604//420 209//420
f 604//1 605//1 209//1
f 209//1 605//1 210//1
f 605//421 606//421 210//421
f 210//421 606//421 211//421
f 606//1 599//1 211//1
f 211//1 599//1 199//1
f 607//6 605//6 608//6
f 608//6 605//6 604//6
f 606//6 605//6 599//6
f 599//6 605//6 607//6
f 599//6 607//6 600//6
f 600//6 607//6 609//6
f 600//6 609//6 601//6
f 601//6 609//6 608//6
f 601//6 608//6 602//6
f 602//6 608//6 604//6
f 602//6 604//6 603//6
f 608//422 609//422 610//422
f 610//422 609//422 611//422
f 607//4 608//4 612//4
f 612//4 608//4 610//4
f 609//423 607//423 611//423
f 611//423 607//423 612//423
f 611//6 612//6 610//6
f 613//1 614//1 168//1
f 168//1 614//1 170//1
f 614//6 615//6 170//6
f 170//6 615//6 172//6
f 615//4 616//4 172//4
f 172//4 616//4 194//4
f 617//424 173//424 196//424
f 617//424 196//424 618//424
f 618//425 196//425 195//425
f 618//425 195//425 619//425
f 619//426 195//426 194//426
f 619//426 194//426 616//426
f 620//427 190//427 189//427
f 620//427 189//427 621//427
f 621//428 189//428 188//428
f 621//428 188//428 622//428
f 622//429 188//429 179//429
f 622//429 179//429 623//429
f 623//430 179//430 178//430
f 623//430 178//430 624//430
f 624//431 178//431 177//431
f 624//431 177//431 625//431
f 625//432 177//432 176//432
f 625//432 176//432 626//432
f 626//433 176//433 175//433
f 626//433 175//433 627//433
f 627//434 175//434 174//434
f 627//435 174//435 628//435
f 628//436 174//436 173//436
f 628//436 173//436 617//436
f 629//437 187//437 185//437
f 629//438 185//438 630//438
f 630//439 185//439 183//439
f 630//439 183//439 631//439
f 631//440 183//440 193//440
f 631//440 193//440 632//440
f 632//441 193//441 192//441
f 632//441 192//441 633//441
f 633//442 192//442 191//442
f 633//442 191//442 634//442
f 634//443 191//443 190//443
f 634//443 190//443 620//443
f 635//444 152//444 159//444
f 635//444 159//444 636//444
f 636//445 159//445 158//445
f 636//445 158//445 637//445
f 637//446 158//446 157//446
f 637//446 157//446 638//446
f 638//447 157//447 156//447
f 638//447 156//447 639//447
f 639//448 156//448 154//448
f 639//448 154//448 640//448
f 640//449 154//449 184//449
f 640//449 184//449 641//449
f 641//450 184//450 186//450
f 641//451 186//451 642//451
f 642//452 186//452 187//452
f 642//452 187//452 629//452
f 613//453 168//453 166//453
f 613//453 166//453 643//453
f 643//454 166//454 164//454
f 643//454 164//454 644//454
f 644//455 164//455 163//455
f 644//455 163//455 645//455
f 645//456 163//456 182//456
f 645//456 182//456 646//456
f 646//457 182//457 181//457
f 646//457 181//457 647//457
f 647//458 181//458 180//458
f 647//458 180//458 648//458
f 648//459 180//459 162//459
f 648//459 162//459 649//459
f 649//460 162//460 161//460
f 649//460 161//460 650//460
f 650//461 161//461 160//461
f 650//461 160//461 651//461
f 651//462 160//462 152//462
f 651//462 152//462 635//462
f 652//5 615//5 614//5
f 653//5 654//5 629//5
f 629//5 654//5 655//5
f 656//5 657//5 629//5
f 629//5 657//5 658//5
f 655//5 659//5 629//5
f 629//5 659//5 660//5
f 629//5 660//5 656//5
f 658//5 661//5 629//5
f 629//5 661//5 662//5
f 629//5 662//5 663//5
f 663//5 662//5 664//5
f 664//5 665//5 663//5
f 663//5 665//5 666//5
f 663//5 666//5 667//5
f 667//5 666//5 668//5
f 667//5 668//5 669//5
f 627//5 670//5 626//5
f 626//5 670//5 671//5
f 626//5 671//5 625//5
f 625//5 671//5 672//5
f 632//5 633//5 673//5
f 621//5 622//5 673//5
f 673//5 622//5 623//5
f 673//5 623//5 672//5
f 672//5 623//5 624//5
f 672//5 624//5 625//5
f 663//5 674//5 629//5
f 629//5 674//5 675//5
f 629//5 675//5 642//5
f 642//5 675//5 676//5
f 642//5 676//5 641//5
f 641//5 676//5 677//5
f 641//5 677//5 640//5
f 640//5 677//5 678//5
f 640//5 678//5 639//5
f 639//5 678//5 679//5
f 639//5 679//5 638//5
f 638//5 679//5 680//5
f 638//5 680//5 637//5
f 637//5 680//5 681//5
f 637//5 681//5 636//5
f 636//5 681//5 682//5
f 636//5 682//5 635//5
f 635//5 682//5 683//5
f 635//5 683//5 651//5
f 651//5 683//5 684//5
f 651//5 684//5 650//5
f 650//5 684//5 685//5
f 650//5 685//5 649//5
f 649//5 685//5 686//5
f 649//5 686//5 648//5
f 648//5 686//5 687//5
f 648//5 687//5 647//5
f 647//5 687//5 688//5
f 647//5 688//5 646//5
f 646//5 688//5 689//5
f 646//5 689//5 645//5
f 645//5 689//5 690//5
f 645//5 690//5 644//5
f 644//5 690//5 691//5
f 644//5 691//5 643//5
f 643//5 691//5 692//5
f 643//5 692//5 613//5
f 613//5 692//5 693//5
f 613//5 693//5 614//5
f 614//5 693//5 694//5
f 614//5 694//5 652//5
f 669//5 668//5 652//5
f 652//5 668//5 695//5
f 652//5 695//5 615//5
f 615//5 695//5 696//5
f 615//5 696//5 616//5
f 616//5 696//5 697//5
f 616//5 697//5 619//5
f 619//5 697//5 698//5
f 619//5 698//5 618//5
f 618//5 698//5 699//5
f 618//5 699//5 617//5
f 617//5 699//5 700//5
f 617//5 700//5 628//5
f 628//5 700//5 701//5
f 628//5 701//5 627//5
f 627//5 701//5 702//5
f 627//5 702//5 670//5
f 632//5 673//5 631//5
f 633//5 634//5 673//5
f 673//5 634//5 620//5
f 673//5 620//5 621//5
f 653//5 629//5 673//5
f 673//5 629//5 630//5
f 673//5 630//5 631//5
f 697//1 696//1 703//1
f 703//1 696//1 704//1
f 697//463 703//463 705//463
f 697//464 705//464 698//464
f 698//465 705//465 706//465
f 698//465 706//465 699//465
f 699//466 706//466 707//466
f 699//466 707//466 700//466
f 700//467 707//467 708//467
f 700//467 708//467 701//467
f 701//468 708//468 709//468
f 701//468 709//468 702//468
f 702//469 709//469 710//469
f 702//469 710//469 670//469
f 670//470 710//470 711//470
f 670//471 711//471 671//471
f 671//472 711//472 712//472
f 671//472 712//472 672//472
f 672//473 712//473 713//473
f 672//473 713//473 673//473
f 673//474 713//474 714//474
f 673//474 714//474 653//474
f 653//475 714//475 715//475
f 653//475 715//475 654//475
f 654//476 715//476 716//476
f 654//476 716//476 655//476
f 655//477 716//477 717//477
f 655//477 717//477 659//477
f 659//478 717//478 718//478
f 659//478 718//478 660//478
f 660//479 718//479 719//479
f 660//479 719//479 656//479
f 656//480 719//480 720//480
f 656//480 720//480 657//480
f 657//481 720//481 721//481
f 657//481 721//481 658//481
f 658//482 721//482 722//482
f 658//482 722//482 661//482
f 661//483 722//483 723//483
f 661//483 723//483 662//483
f 662//484 723//484 724//484
f 662//484 724//484 664//484
f 664//485 724//485 725//485
f 664//485 725//485 665//485
f 665//486 725//486 726//486
f 665//486 726//486 666//486
f 666//487 726//487 727//487
f 666//487 727//487 668//487
f 695//4 668//4 728//4
f 728//4 668//4 727//4
f 696//2 695//2 704//2
f 704//2 695//2 728//2
f 669//1 652//1 729//1
f 729//1 652//1 730//1
f 669//488 729//488 731//488
f 669//489 731//489 667//489
f 667//490 731//490 732//490
f 667//490 732//490 663//490
f 663//491 732//491 733//491
f 663//491 733//491 674//491
f 674//492 733//492 734//492
f 674//492 734//492 675//492
f 675//493 734//493 735//493
f 675//493 735//493 676//493
f 676//494 735//494 736//494
f 676//494 736//494 677//494
f 677//495 736//495 737//495
f 677//495 737//495 678//495
f 678//496 737//496 738//496
f 678//497 738//497 679//497
f 679//498 738//498 739//498
f 679//498 739//498 680//498
f 680//499 739//499 740//499
f 680//499 740//499 681//499
f 681//500 740//500 741//500
f 681//500 741//500 682//500
f 682//501 741//501 742//501
f 682//501 742//501 683//501
f 683//502 742//502 743//502
f 683//502 743//502 684//502
f 684//503 743//503 744//503
f 684//503 744//503 685//503
f 685//504 744//504 745//504
f 685//504 745//504 686//504
f 686//505 745//505 746//505
f 686//506 746//506 687//506
f 687//507 746//507 747//507
f 687//507 747//507 688//507
f 688//508 747//508 748//508
f 688//508 748//508 689//508
f 689//509 748//509 749//509
f 689//509 749//509 690//509
f 690//510 749//510 750//510
f 690//510 750//510 691//510
f 691//511 750//511 751//511
f 691//511 751//511 692//511
f 692//512 751//512 752//512
f 692//512 752//512 693//512
f 694//4 693//4 753//4
f 753//4 693//4 752//4
f 652//2 694//2 730//2
f 730//2 694//2 753//2
f 704//5 728//5 703//5
f 703//5 728//5 727//5
f 703//5 727//5 705//5
f 710//5 709//5 727//5
f 727//5 709//5 708//5
f 726//5 717//5 727//5
f 727//5 717//5 716//5
f 708//5 707//5 727//5
f 727//5 707//5 706//5
f 727//5 706//5 705//5
f 716//5 715//5 727//5
f 727//5 715//5 714//5
f 727//5 714//5 713//5
f 726//5 725//5 717//5
f 717//5 725//5 724//5
f 717//5 724//5 723//5
f 713//5 712//5 727//5
f 727//5 712//5 711//5
f 727//5 711//5 710//5
f 723//5 722//5 717//5
f 717//5 722//5 721//5
f 717//5 721//5 718//5
f 718//5 721//5 720//5
f 718//5 720//5 719//5
f 730//5 753//5 729//5
f 729//5 753//5 752//5
f 729//5 752//5 731//5
f 731//5 752//5 732//5
f 732//5 752//5 751//5
f 732//5 751//5 733//5
f 741//5 750//5 749//5
f 750//5 741//5 751//5
f 751//5 741//5 740//5
f 751//5 740//5 739//5
f 739//5 738//5 751//5
f 751//5 738//5 737//5
f 751//5 737//5 736//5
f 749//5 748//5 741//5
f 741//5 748//5 747//5
f 741//5 747//5 742//5
f 747//5 746//5 745//5
f 736//5 735//5 751//5
f 751//5 735//5 734//5
f 751//5 734//5 733//5
f 745//5 744//5 747//5
f 747//5 744//5 743//5
f 747//5 743//5 742//5
f 754//513 97//513 135//513
f 754//513 135//513 755//513
f 755//514 135//514 136//514
f 755//514 136//514 756//514
f 756//515 136//515 134//515
f 756//515 134//515 757//515
f 757//516 134//516 133//516
f 757//516 133//516 758//516
f 758//517 133//517 132//517
f 758//517 132//517 759//517
f 759//518 132//518 130//518
f 759//519 130//519 760//519
f 754//520 761//520 97//520
f 97//520 761//520 95//520
f 762//521 102//521 101//521
f 762//521 101//521 763//521
f 763//522 101//522 100//522
f 763//522 100//522 764//522
f 764//523 100//523 99//523
f 764//523 99//523 765//523
f 765//524 99//524 98//524
f 765//524 98//524 766//524
f 766//525 98//525 94//525
f 766//525 94//525 767//525
f 767//526 94//526 95//526
f 767//526 95//526 761//526
f 768//527 84//527 85//527
f 768//527 85//527 769//527
f 769//528 85//528 125//528
f 769//528 125//528 770//528
f 770//529 125//529 124//529
f 770//529 124//529 771//529
f 771//530 124//530 117//530
f 771//530 117//530 772//530
f 772//531 117//531 116//531
f 772//531 116//531 773//531
f 773//532 116//532 115//532
f 773//532 115//532 774//532
f 774//533 115//533 106//533
f 774//533 106//533 775//533
f 775//534 106//534 105//534
f 775//534 105//534 776//534
f 776//535 105//535 104//535
f 776//535 104//535 777//535
f 777//536 104//536 103//536
f 777//537 103//537 778//537
f 778//250 103//250 102//250
f 778//250 102//250 762//250
f 779//538 145//538 144//538
f 779//538 144//538 780//538
f 780//539 144//539 143//539
f 780//540 143//540 781//540
f 781//541 143//541 146//541
f 781//541 146//541 782//541
f 782//542 146//542 141//542
f 782//542 141//542 783//542
f 783//543 141//543 140//543
f 783//543 140//543 784//543
f 784//544 140//544 139//544
f 784//544 139//544 785//544
f 785//545 139//545 138//545
f 785//545 138//545 786//545
f 786//546 138//546 137//546
f 786//546 137//546 787//546
f 787//547 137//547 126//547
f 787//547 126//547 788//547
f 788//548 126//548 84//548
f 788//548 84//548 768//548
f 789//549 96//549 83//549
f 789//549 83//549 790//549
f 790//550 83//550 82//550
f 790//550 82//550 791//550
f 791//551 82//551 128//551
f 791//551 128//551 792//551
f 792//552 128//552 127//552
f 792//552 127//552 793//552
f 793//553 127//553 142//553
f 793//553 142//553 794//553
f 794//554 142//554 145//554
f 794//554 145//554 779//554
f 789//555 795//555 96//555
f 96//555 795//555 73//555
f 796//556 119//556 118//556
f 796//556 118//556 797//556
f 797//557 118//557 78//557
f 797//557 78//557 798//557
f 798//558 78//558 77//558
f 798//558 77//558 799//558
f 799//559 77//559 81//559
f 799//559 81//559 800//559
f 800//560 81//560 80//560
f 800//560 80//560 801//560
f 801//561 80//561 73//561
f 801//561 73//561 795//561
f 802//562 149//562 148//562
f 802//562 148//562 803//562
f 803//563 148//563 147//563
f 803//563 147//563 804//563
f 804//564 147//564 112//564
f 804//564 112//564 805//564
f 805//565 112//565 111//565
f 805//565 111//565 806//565
f 806//566 111//566 110//566
f 806//566 110//566 807//566
f 807//567 110//567 91//567
f 807//567 91//567 808//567
f 808//568 91//568 90//568
f 808//568 90//568 809//568
f 809//569 90//569 109//569
f 809//569 109//569 810//569
f 810//570 109//570 108//570
f 810//570 108//570 811//570
f 811//571 108//571 120//571
f 811//571 120//571 812//571
f 812//572 120//572 119//572
f 812//572 119//572 796//572
f 760//573 130//573 129//573
f 760//573 129//573 813//573
f 813//574 129//574 88//574
f 813//574 88//574 814//574
f 814//575 88//575 87//575
f 814//575 87//575 815//575
f 815//576 87//576 114//576
f 815//576 114//576 816//576
f 816//577 114//577 113//577
f 816//577 113//577 817//577
f 817//578 113//578 93//578
f 817//578 93//578 818//578
f 818//579 93//579 92//579
f 818//579 92//579 819//579
f 819//580 92//580 123//580
f 819//580 123//580 820//580
f 820//581 123//581 122//581
f 820//581 122//581 821//581
f 821//582 122//582 121//582
f 821//582 121//582 822//582
f 822//583 121//583 149//583
f 822//583 149//583 802//583
f 767//4 761//4 754//4
f 818//4 819//4 772//4
f 779//4 797//4 794//4
f 794//4 797//4 798//4
f 794//4 798//4 793//4
f 793//4 798//4 799//4
f 793//4 799//4 792//4
f 792//4 799//4 800//4
f 792//4 800//4 791//4
f 791//4 800//4 801//4
f 791//4 801//4 790//4
f 790//4 801//4 795//4
f 790//4 795//4 789//4
f 772//4 819//4 771//4
f 771//4 819//4 820//4
f 771//4 820//4 770//4
f 770//4 820//4 821//4
f 770//4 821//4 769//4
f 769//4 821//4 822//4
f 769//4 822//4 768//4
f 768//4 822//4 802//4
f 768//4 802//4 788//4
f 788//4 802//4 803//4
f 788//4 803//4 787//4
f 787//4 803//4 804//4
f 787//4 804//4 786//4
f 772//4 773//4 818//4
f 818//4 773//4 774//4
f 818//4 774//4 817//4
f 817//4 774//4 775//4
f 817//4 775//4 816//4
f 816//4 775//4 776//4
f 816//4 776//4 815//4
f 815//4 776//4 777//4
f 815//4 777//4 814//4
f 814//4 777//4 778//4
f 814//4 778//4 813//4
f 813//4 778//4 762//4
f 813//4 762//4 760//4
f 760//4 762//4 763//4
f 760//4 763//4 759//4
f 759//4 763//4 764//4
f 759//4 764//4 758//4
f 758//4 764//4 765//4
f 758//4 765//4 757//4
f 757//4 765//4 766//4
f 757//4 766//4 756//4
f 756//4 766//4 767//4
f 756//4 767//4 755//4
f 755//4 767//4 754//4
f 804//4 805//4 786//4
f 786//4 805//4 806//4
f 786//4 806//4 785//4
f 785//4 806//4 807//4
f 785//4 807//4 784//4
f 784//4 807//4 808//4
f 784//4 808//4 783//4
f 783//4 808//4 809//4
f 783//4 809//4 782//4
f 782//4 809//4 810//4
f 782//4 810//4 781//4
f 781//4 810//4 811//4
f 781//4 811//4 780//4
f 780//4 811//4 812//4
f 780//4 812//4 779//4
f 779//4 812//4 796//4
f 779//4 796//4 797//4
f 823//1 824//1 45//1
f 45//1 824//1 43//1
f 824//2 825//2 43//2
f 43//2 825//2 66//2
f 826//584 58//584 53//584
f 826//584 53//584 827//584
f 827//585 53//585 54//585
f 827//585 54//585 828//585
f 828//586 54//586 55//586
f 828//586 55//586 829//586
f 829//587 55//587 57//587
f 829//587 57//587 830//587
f 830//588 57//588 70//588
f 830//588 70//588 831//588
f 831//589 70//589 69//589
f 831//589 69//589 832//589
f 832//590 69//590 65//590
f 832//590 65//590 833//590
f 833//591 65//591 64//591
f 833//591 64//591 834//591
f 834//592 64//592 63//592
f 834//592 63//592 835//592
f 835//593 63//593 68//593
f 835//593 68//593 836//593
f 836//594 68//594 67//594
f 836//594 67//594 837//594
f 837//595 67//595 66//595
f 837//595 66//595 825//595
f 838//596 47//596 49//596
f 838//596 49//596 839//596
f 839//597 49//597 51//597
f 839//597 51//597 840//597
f 840//598 51//598 52//598
f 840//598 52//598 841//598
f 841//599 52//599 62//599
f 841//599 62//599 842//599
f 842//600 62//600 61//600
f 842//600 61//600 843//600
f 843//601 61//601 60//601
f 843//601 60//601 844//601
f 844//602 60//602 42//602
f 844//602 42//602 845//602
f 845//603 42//603 40//603
f 845//603 40//603 846//603
f 846//604 40//604 39//604
f 846//604 39//604 847//604
f 847//605 39//605 59//605
f 847//605 59//605 848//605
f 848//606 59//606 58//606
f 848//606 58//606 826//606
f 838//6 823//6 47//6
f 47//6 823//6 45//6
f 833//3 834//3 849//3
f 849//3 834//3 835//3
f 849//3 835//3 850//3
f 850//3 835//3 836//3
f 850//3 836//3 851//3
f 851//3 836//3 837//3
f 851//3 837//3 852//3
f 852//3 837//3 825//3
f 852//3 825//3 853//3
f 853//3 825//3 824//3
f 853//3 824//3 854//3
f 854//3 824//3 823//3
f 854//3 823//3 855//3
f 855//3 823//3 838//3
f 855//3 838//3 856//3
f 856//3 838//3 839//3
f 856//3 839//3 857//3
f 857//3 839//3 840//3
f 857//3 840//3 858//3
f 858//3 840//3 841//3
f 858//3 841//3 859//3
f 859//3 841//3 842//3
f 859//3 842//3 860//3
f 860//3 842//3 843//3
f 860//3 843//3 861//3
f 861//3 843//3 844//3
f 861//3 844//3 862//3
f 862//3 844//3 845//3
f 862//3 845//3 863//3
f 863//3 845//3 846//3
f 863//3 846//3 864//3
f 864//3 846//3 847//3
f 864//3 847//3 865//3
f 865//3 847//3 848//3
f 865//3 848//3 866//3
f 866//3 848//3 826//3
f 866//3 826//3 867//3
f 867//3 826//3 827//3
f 867//3 827//3 868//3
f 868//3 827//3 828//3
f 868//3 828//3 869//3
f 869//3 828//3 829//3
f 869//3 829//3 870//3
f 870//3 829//3 830//3
f 870//3 830//3 871//3
f 871//3 830//3 831//3
f 871//3 831//3 872//3
f 872//3 831//3 832//3
f 872//3 832//3 873//3
f 873//3 832//3 833//3
f 873//3 833//3 849//3
f 852//6 853//6 874//6
f 874//6 853//6 875//6
f 852//607 874//607 876//607
f 852//607 876//607 851//607
f 851//608 876//608 877//608
f 851//608 877//608 850//608
f 850//609 877//609 878//609
f 850//609 878//609 849//609
f 849//610 878//610 879//610
f 849//610 879//610 873//610
f 873//611 879//611 880//611
f 873//611 880//611 872//611
f 872//612 880//612 881//612
f 872//612 881//612 871//612
f 871//613 881//613 882//613
f 871//613 882//613 870//613
f 870//614 882//614 883//614
f 870//614 883//614 869//614
f 869//615 883//615 884//615
f 869//615 884//615 868//615
f 868//616 884//616 885//616
f 868//616 885//616 867//616
f 867//617 885//617 886//617
f 867//618 886//618 866//618
f 866//619 886//619 887//619
f 866//619 887//619 865//619
f 865//620 887//620 888//620
f 865//620 888//620 864//620
f 864//621 888//621 889//621
f 864//621 889//621 863//621
f 863//622 889//622 890//622
f 863//622 890//622 862//622
f 862//623 890//623 891//623
f 862//623 891//623 861//623
f 861//624 891//624 892//624
f 861//624 892//624 860//624
f 860//625 892//625 893//625
f 860//625 893//625 859//625
f 859//626 893//626 894//626
f 859//626 894//626 858//626
f 858//627 894//627 895//627
f 858//627 895//627 857//627
f 857//628 895//628 896//628
f 857//628 896//628 856//628
f 856//629 896//629 897//629
f 856//629 897//629 855//629
f 854//2 855//2 898//2
f 898//2 855//2 897//2
f 853//4 854//4 875//4
f 875//4 854//4 898//4
f 875//3 898//3 874//3
f 874//3 898//3 897//3
f 877//3 876//3 885//3
f 885//3 876//3 874//3
f 885//3 874//3 886//3
f 891//3 890//3 874//3
f 874//3 890//3 889//3
f 897//3 896//3 874//3
f 874//3 896//3 895//3
f 874//3 895//3 894//3
f 889//3 888//3 874//3
f 874//3 888//3 887//3
f 874//3 887//3 886//3
f 877//3 885//3 878//3
f 878//3 885//3 884//3
f 878//3 884//3 883//3
f 894//3 893//3 874//3
f 874//3 893//3 892//3
f 874//3 892//3 891//3
f 883//3 882//3 878//3
f 878//3 882//3 881//3
f 878//3 881//3 879//3
f 879//3 881//3 880//3
f 899//1 900//1 23//1
f 23//1 900//1 33//1
f 900//5 901//5 33//5
f 33//5 901//5 34//5
f 901//4 902//4 34//4
f 34//4 902//4 31//4
f 902//3 903//3 31//3
f 31//3 903//3 29//3
f 903//4 904//4 29//4
f 29//4 904//4 30//4
f 904//5 905//5 30//5
f 30//5 905//5 32//5
f 905//4 906//4 32//4
f 32//4 906//4 35//4
f 906//3 907//3 35//3
f 35//3 907//3 38//3
f 907//4 908//4 38//4
f 38//4 908//4 37//4
f 908//5 909//5 37//5
f 37//5 909//5 36//5
f 909//4 910//4 36//4
f 36//4 910//4 22//4
f 910//3 899//3 22//3
f 22//3 899//3 23//3
f 910//2 909//2 899//2
f 899//2 909//2 908//2
f 899//2 908//2 900//2
f 900//2 908//2 907//2
f 902//2 901//2 903//2
f 903//2 901//2 900//2
f 903//2 900//2 904//2
f 904//2 900//2 907//2
f 904//2 907//2 905//2
f 905//2 907//2 906//2
f 911//6 912//6 11//6
f 11//6 912//6 17//6
f 912//5 913//5 17//5
f 17//5 913//5 18//5
f 913//2 914//2 18//2
f 18//2 914//2 7//2
f 914//3 915//3 7//3
f 7//3 915//3 5//3
f 915//2 916//2 5//2
f 5//2 916//2 6//2
f 916//5 917//5 6//5
f 6//5 917//5 8//5
f 917//2 918//2 8//2
f 8//2 918//2 16//2
f 918//3 919//3 16//3
f 16//3 919//3 15//3
f 919//2 920//2 15//2
f 15//2 920//2 14//2
f 920//3 911//3 14//3
f 14//3 911//3 11//3
f 911//1 920//1 912//1
f 912//1 920//1 919//1
f 914//1 913//1 915//1
f 915//1 913//1 912//1
f 915//1 912//1 916//1
f 916//1 912//1 919//1
f 916//1 919//1 917//1
f 917//1 919//1 918//1
f 419//3 131//3 409//3
f 921//3 205//3 131//3
f 131//3 205//3 202//3
f 131//3 202//3 403//3
f 413//3 415//3 417//3
f 403//3 405//3 131//3
f 131//3 405//3 407//3
f 131//3 407//3 409//3
f 419//3 409//3 417//3
f 417//630 409//630 411//630
f 417//3 411//3 413//3
f 205//4 921//4 203//4
f 203//4 921//4 56//4
f 203//4 56//4 338//4
f 338//4 337//4 203//4
f 203//4 337//4 336//4
f 203//4 336//4 335//4
f 335//4 334//4 203//4
f 203//4 334//4 333//4
f 203//4 333//4 330//4
f 330//631 333//631 332//631
f 330//632 332//632 331//632
f 921//6 131//6 56//6
f 56//6 131//6 440//6
f 56//6 440//6 44//6
f 436//633 434//633 432//633
f 430//6 428//6 440//6
f 440//6 428//6 426//6
f 426//6 424//6 440//6
f 440//6 424//6 422//6
f 440//6 422//6 44//6
f 430//6 440//6 432//6
f 432//6 440//6 438//6
f 432//6 438//6 436//6
f 495//6 89//6 485//6
f 922//6 150//6 89//6
f 89//6 150//6 165//6
f 89//6 165//6 479//6
f 489//634 491//634 493//634
f 479//6 481//6 89//6
f 89//6 481//6 483//6
f 89//6 483//6 485//6
f 495//6 485//6 493//6
f 493//6 485//6 487//6
f 493//6 487//6 489//6
f 150//4 922//4 151//4
f 151//4 922//4 198//4
f 151//4 198//4 400//4
f 400//4 398//4 151//4
f 151//4 398//4 396//4
f 151//4 396//4 394//4
f 394//4 392//4 151//4
f 151//4 392//4 390//4
f 151//4 390//4 384//4
f 384//4 390//4 388//4
f 384//4 388//4 386//4
f 922//5 89//5 198//5
f 198//5 89//5 923//5
f 404//5 402//5 923//5
f 923//5 402//5 212//5
f 923//5 212//5 198//5
f 414//5 412//5 416//5
f 416//5 412//5 418//5
f 412//5 410//5 418//5
f 418//5 410//5 408//5
f 418//5 408//5 923//5
f 923//5 408//5 406//5
f 923//5 406//5 404//5
f 924//3 79//3 24//3
f 24//3 79//3 76//3
f 24//3 76//3 589//3
f 589//3 76//3 590//3
f 595//635 594//635 596//635
f 596//3 594//3 597//3
f 594//636 593//636 597//636
f 597//3 593//3 592//3
f 597//3 592//3 76//3
f 76//3 592//3 591//3
f 76//3 591//3 590//3
f 439//2 74//2 429//2
f 79//2 924//2 74//2
f 74//2 924//2 46//2
f 74//2 46//2 423//2
f 423//2 425//2 74//2
f 74//2 425//2 427//2
f 74//2 427//2 429//2
f 429//2 431//2 439//2
f 439//637 431//637 433//637
f 439//2 433//2 437//2
f 437//638 433//638 435//638
f 924//4 24//4 46//4
f 46//4 24//4 25//4
f 46//4 25//4 48//4
f 48//4 25//4 458//4
f 458//4 456//4 48//4
f 48//4 456//4 454//4
f 48//4 454//4 452//4
f 452//4 450//4 48//4
f 48//4 450//4 448//4
f 48//4 448//4 442//4
f 442//4 448//4 446//4
f 442//4 446//4 444//4
f 925//1 41//1 28//1
f 28//1 41//1 50//1
f 28//1 50//1 443//1
f 453//1 28//1 451//1
f 451//1 28//1 449//1
f 443//1 445//1 28//1
f 28//1 445//1 447//1
f 28//1 447//1 449//1
f 455//1 457//1 453//1
f 453//639 457//639 459//639
f 453//1 459//1 28//1
f 41//2 925//2 71//2
f 71//2 925//2 4//2
f 4//2 342//2 341//2
f 346//2 345//2 344//2
f 341//2 340//2 4//2
f 4//2 340//2 339//2
f 4//2 339//2 71//2
f 4//2 347//2 342//2
f 342//2 347//2 346//2
f 342//2 346//2 343//2
f 343//2 346//2 344//2
f 9//3 4//3 925//3
f 365//3 9//3 355//3
f 925//3 28//3 9//3
f 9//3 28//3 27//3
f 9//3 27//3 349//3
f 359//3 361//3 363//3
f 349//3 351//3 9//3
f 9//3 351//3 353//3
f 9//3 353//3 355//3
f 365//3 355//3 363//3
f 363//3 355//3 357//3
f 363//3 357//3 359//3
f 21//5 926//5 26//5
f 26//5 926//5 10//5
f 10//5 354//5 352//5
f 362//640 360//640 358//640
f 352//5 350//5 10//5
f 10//5 350//5 348//5
f 10//5 348//5 26//5
f 10//5 364//5 354//5
f 354//641 364//641 362//641
f 354//5 362//5 356//5
f 356//5 362//5 358//5
f 926//1 21//1 169//1
f 169//1 21//1 20//1
f 169//1 20//1 461//1
f 471//1 473//1 475//1
f 461//1 463//1 169//1
f 169//1 463//1 465//1
f 169//1 465//1 467//1
f 467//1 469//1 169//1
f 169//1 469//1 471//1
f 169//1 471//1 477//1
f 477//1 471//1 475//1
f 369//2 371//2 12//2
f 12//2 371//2 373//2
f 12//2 373//2 383//2
f 377//2 379//2 381//2
f 926//2 169//2 10//2
f 10//2 169//2 171//2
f 10//2 171//2 12//2
f 12//2 171//2 367//2
f 12//2 367//2 369//2
f 383//2 373//2 381//2
f 381//2 373//2 375//2
f 381//2 375//2 377//2
f 927//6 3//6 153//6
f 153//6 3//6 13//6
f 13//6 372//6 370//6
f 380//634 378//634 376//634
f 370//6 368//6 13//6
f 13//6 368//6 366//6
f 13//6 366//6 153//6
f 13//6 382//6 372//6
f 372//6 382//6 380//6
f 372//6 380//6 374//6
f 374//6 380//6 376//6
f 230//5 1//5 220//5
f 3//5 927//5 1//5
f 1//5 927//5 206//5
f 1//5 206//5 214//5
f 224//5 226//5 228//5
f 214//5 216//5 1//5
f 1//5 216//5 218//5
f 1//5 218//5 220//5
f 230//5 220//5 228//5
f 228//5 220//5 222//5
f 228//642 222//642 224//642
f 387//1 389//1 197//1
f 389//1 391//1 197//1
f 197//639 391//639 393//639
f 197//643 393//643 395//643
f 927//1 153//1 206//1
f 206//1 153//1 155//1
f 206//1 155//1 197//1
f 197//1 155//1 385//1
f 197//1 385//1 387//1
f 397//1 399//1 395//1
f 395//644 399//644 401//644
f 395//645 401//645 197//645
